G04 #@! TF.GenerationSoftware,KiCad,Pcbnew,(5.99.0-879-ga0698723b)*
G04 #@! TF.CreationDate,2020-02-28T07:42:53-06:00*
G04 #@! TF.ProjectId,Primary,5072696d-6172-4792-9e6b-696361645f70,rev?*
G04 #@! TF.SameCoordinates,Original*
G04 #@! TF.FileFunction,Legend,Top*
G04 #@! TF.FilePolarity,Positive*
%FSLAX46Y46*%
G04 Gerber Fmt 4.6, Leading zero omitted, Abs format (unit mm)*
G04 Created by KiCad (PCBNEW (5.99.0-879-ga0698723b)) date 2020-02-28 07:42:53*
%MOMM*%
%LPD*%
G01*
G04 APERTURE LIST*
%ADD10C,0.300000*%
%ADD11C,0.250000*%
%ADD12C,0.120000*%
%ADD13C,0.150000*%
G04 APERTURE END LIST*
D10*
X211321428Y-97324285D02*
X211392857Y-97252857D01*
X211607142Y-97181428D01*
X211750000Y-97181428D01*
X211964285Y-97252857D01*
X212107142Y-97395714D01*
X212178571Y-97538571D01*
X212250000Y-97824285D01*
X212250000Y-98038571D01*
X212178571Y-98324285D01*
X212107142Y-98467142D01*
X211964285Y-98610000D01*
X211750000Y-98681428D01*
X211607142Y-98681428D01*
X211392857Y-98610000D01*
X211321428Y-98538571D01*
X210678571Y-97181428D02*
X210678571Y-98181428D01*
X210678571Y-97895714D02*
X210607142Y-98038571D01*
X210535714Y-98110000D01*
X210392857Y-98181428D01*
X210250000Y-98181428D01*
X209178571Y-97252857D02*
X209321428Y-97181428D01*
X209607142Y-97181428D01*
X209750000Y-97252857D01*
X209821428Y-97395714D01*
X209821428Y-97967142D01*
X209750000Y-98110000D01*
X209607142Y-98181428D01*
X209321428Y-98181428D01*
X209178571Y-98110000D01*
X209107142Y-97967142D01*
X209107142Y-97824285D01*
X209821428Y-97681428D01*
X207821428Y-97181428D02*
X207821428Y-97967142D01*
X207892857Y-98110000D01*
X208035714Y-98181428D01*
X208321428Y-98181428D01*
X208464285Y-98110000D01*
X207821428Y-97252857D02*
X207964285Y-97181428D01*
X208321428Y-97181428D01*
X208464285Y-97252857D01*
X208535714Y-97395714D01*
X208535714Y-97538571D01*
X208464285Y-97681428D01*
X208321428Y-97752857D01*
X207964285Y-97752857D01*
X207821428Y-97824285D01*
X207321428Y-98181428D02*
X206750000Y-98181428D01*
X207107142Y-98681428D02*
X207107142Y-97395714D01*
X207035714Y-97252857D01*
X206892857Y-97181428D01*
X206750000Y-97181428D01*
X205678571Y-97252857D02*
X205821428Y-97181428D01*
X206107142Y-97181428D01*
X206250000Y-97252857D01*
X206321428Y-97395714D01*
X206321428Y-97967142D01*
X206250000Y-98110000D01*
X206107142Y-98181428D01*
X205821428Y-98181428D01*
X205678571Y-98110000D01*
X205607142Y-97967142D01*
X205607142Y-97824285D01*
X206321428Y-97681428D01*
X204321428Y-97181428D02*
X204321428Y-98681428D01*
X204321428Y-97252857D02*
X204464285Y-97181428D01*
X204750000Y-97181428D01*
X204892857Y-97252857D01*
X204964285Y-97324285D01*
X205035714Y-97467142D01*
X205035714Y-97895714D01*
X204964285Y-98038571D01*
X204892857Y-98110000D01*
X204750000Y-98181428D01*
X204464285Y-98181428D01*
X204321428Y-98110000D01*
X201964285Y-97967142D02*
X201750000Y-97895714D01*
X201678571Y-97824285D01*
X201607142Y-97681428D01*
X201607142Y-97467142D01*
X201678571Y-97324285D01*
X201750000Y-97252857D01*
X201892857Y-97181428D01*
X202464285Y-97181428D01*
X202464285Y-98681428D01*
X201964285Y-98681428D01*
X201821428Y-98610000D01*
X201750000Y-98538571D01*
X201678571Y-98395714D01*
X201678571Y-98252857D01*
X201750000Y-98110000D01*
X201821428Y-98038571D01*
X201964285Y-97967142D01*
X202464285Y-97967142D01*
X201107142Y-98181428D02*
X200750000Y-97181428D01*
X200392857Y-98181428D02*
X200750000Y-97181428D01*
X200892857Y-96824285D01*
X200964285Y-96752857D01*
X201107142Y-96681428D01*
X199821428Y-97324285D02*
X199750000Y-97252857D01*
X199821428Y-97181428D01*
X199892857Y-97252857D01*
X199821428Y-97324285D01*
X199821428Y-97181428D01*
X199821428Y-98110000D02*
X199750000Y-98038571D01*
X199821428Y-97967142D01*
X199892857Y-98038571D01*
X199821428Y-98110000D01*
X199821428Y-97967142D01*
X161865714Y-97252857D02*
X161651428Y-97181428D01*
X161294285Y-97181428D01*
X161151428Y-97252857D01*
X161080000Y-97324285D01*
X161008571Y-97467142D01*
X161008571Y-97610000D01*
X161080000Y-97752857D01*
X161151428Y-97824285D01*
X161294285Y-97895714D01*
X161580000Y-97967142D01*
X161722857Y-98038571D01*
X161794285Y-98110000D01*
X161865714Y-98252857D01*
X161865714Y-98395714D01*
X161794285Y-98538571D01*
X161722857Y-98610000D01*
X161580000Y-98681428D01*
X161222857Y-98681428D01*
X161008571Y-98610000D01*
X160365714Y-98181428D02*
X160365714Y-96681428D01*
X160365714Y-98110000D02*
X160222857Y-98181428D01*
X159937142Y-98181428D01*
X159794285Y-98110000D01*
X159722857Y-98038571D01*
X159651428Y-97895714D01*
X159651428Y-97467142D01*
X159722857Y-97324285D01*
X159794285Y-97252857D01*
X159937142Y-97181428D01*
X160222857Y-97181428D01*
X160365714Y-97252857D01*
X158794285Y-97181428D02*
X158937142Y-97252857D01*
X159008571Y-97324285D01*
X159080000Y-97467142D01*
X159080000Y-97895714D01*
X159008571Y-98038571D01*
X158937142Y-98110000D01*
X158794285Y-98181428D01*
X158580000Y-98181428D01*
X158437142Y-98110000D01*
X158365714Y-98038571D01*
X158294285Y-97895714D01*
X158294285Y-97467142D01*
X158365714Y-97324285D01*
X158437142Y-97252857D01*
X158580000Y-97181428D01*
X158794285Y-97181428D01*
X157651428Y-98181428D02*
X157651428Y-97181428D01*
X157651428Y-98038571D02*
X157580000Y-98110000D01*
X157437142Y-98181428D01*
X157222857Y-98181428D01*
X157080000Y-98110000D01*
X157008571Y-97967142D01*
X157008571Y-97181428D01*
X156365714Y-97252857D02*
X156222857Y-97181428D01*
X155937142Y-97181428D01*
X155794285Y-97252857D01*
X155722857Y-97395714D01*
X155722857Y-97467142D01*
X155794285Y-97610000D01*
X155937142Y-97681428D01*
X156151428Y-97681428D01*
X156294285Y-97752857D01*
X156365714Y-97895714D01*
X156365714Y-97967142D01*
X156294285Y-98110000D01*
X156151428Y-98181428D01*
X155937142Y-98181428D01*
X155794285Y-98110000D01*
X154865714Y-97181428D02*
X155008571Y-97252857D01*
X155080000Y-97324285D01*
X155151428Y-97467142D01*
X155151428Y-97895714D01*
X155080000Y-98038571D01*
X155008571Y-98110000D01*
X154865714Y-98181428D01*
X154651428Y-98181428D01*
X154508571Y-98110000D01*
X154437142Y-98038571D01*
X154365714Y-97895714D01*
X154365714Y-97467142D01*
X154437142Y-97324285D01*
X154508571Y-97252857D01*
X154651428Y-97181428D01*
X154865714Y-97181428D01*
X153722857Y-97181428D02*
X153722857Y-98181428D01*
X153722857Y-97895714D02*
X153651428Y-98038571D01*
X153580000Y-98110000D01*
X153437142Y-98181428D01*
X153294285Y-98181428D01*
X152222857Y-97252857D02*
X152365714Y-97181428D01*
X152651428Y-97181428D01*
X152794285Y-97252857D01*
X152865714Y-97395714D01*
X152865714Y-97967142D01*
X152794285Y-98110000D01*
X152651428Y-98181428D01*
X152365714Y-98181428D01*
X152222857Y-98110000D01*
X152151428Y-97967142D01*
X152151428Y-97824285D01*
X152865714Y-97681428D01*
X150865714Y-97181428D02*
X150865714Y-98681428D01*
X150865714Y-97252857D02*
X151008571Y-97181428D01*
X151294285Y-97181428D01*
X151437142Y-97252857D01*
X151508571Y-97324285D01*
X151580000Y-97467142D01*
X151580000Y-97895714D01*
X151508571Y-98038571D01*
X151437142Y-98110000D01*
X151294285Y-98181428D01*
X151008571Y-98181428D01*
X150865714Y-98110000D01*
X148508571Y-97967142D02*
X148294285Y-97895714D01*
X148222857Y-97824285D01*
X148151428Y-97681428D01*
X148151428Y-97467142D01*
X148222857Y-97324285D01*
X148294285Y-97252857D01*
X148437142Y-97181428D01*
X149008571Y-97181428D01*
X149008571Y-98681428D01*
X148508571Y-98681428D01*
X148365714Y-98610000D01*
X148294285Y-98538571D01*
X148222857Y-98395714D01*
X148222857Y-98252857D01*
X148294285Y-98110000D01*
X148365714Y-98038571D01*
X148508571Y-97967142D01*
X149008571Y-97967142D01*
X147651428Y-98181428D02*
X147294285Y-97181428D01*
X146937142Y-98181428D02*
X147294285Y-97181428D01*
X147437142Y-96824285D01*
X147508571Y-96752857D01*
X147651428Y-96681428D01*
X146365714Y-97324285D02*
X146294285Y-97252857D01*
X146365714Y-97181428D01*
X146437142Y-97252857D01*
X146365714Y-97324285D01*
X146365714Y-97181428D01*
X146365714Y-98110000D02*
X146294285Y-98038571D01*
X146365714Y-97967142D01*
X146437142Y-98038571D01*
X146365714Y-98110000D01*
X146365714Y-97967142D01*
G36*
X190059527Y-95262500D02*
G01*
X189321664Y-95262500D01*
X189321664Y-95087500D01*
X189859429Y-95087500D01*
X189859429Y-94250000D01*
X189371689Y-94250000D01*
X189371689Y-94075000D01*
X189859429Y-94075000D01*
X189859429Y-93187500D01*
X189309158Y-93187500D01*
X189309158Y-93139063D01*
X189311306Y-93095060D01*
X189316523Y-93053902D01*
X189316974Y-93051563D01*
X189324791Y-93012500D01*
X190059527Y-93012500D01*
X190059527Y-95262500D01*
G37*
G36*
X190578533Y-94100006D02*
G01*
X190850542Y-94100003D01*
X191122550Y-94100000D01*
X191122550Y-93012500D01*
X191322649Y-93012500D01*
X191322649Y-95262500D01*
X191122550Y-95262500D01*
X191122550Y-94275000D01*
X190584786Y-94275000D01*
X190584786Y-95262500D01*
X190368511Y-95262500D01*
X190376599Y-95166865D01*
X190377853Y-95139588D01*
X190379048Y-95089391D01*
X190380168Y-95018354D01*
X190381199Y-94928555D01*
X190382125Y-94822074D01*
X190382933Y-94700991D01*
X190383605Y-94567386D01*
X190384129Y-94423338D01*
X190384488Y-94270926D01*
X190384669Y-94112230D01*
X190384687Y-94041865D01*
X190384687Y-93012500D01*
X190587215Y-93012500D01*
X190578533Y-94100006D01*
G37*
G36*
X192122300Y-94046875D02*
G01*
X192120258Y-95081250D01*
X192296736Y-95084719D01*
X192473215Y-95088187D01*
X192473215Y-95262500D01*
X191572772Y-95262500D01*
X191572772Y-95087500D01*
X191922944Y-95087500D01*
X191922944Y-93012500D01*
X192124343Y-93012500D01*
X192122300Y-94046875D01*
G37*
G36*
X202726175Y-92599751D02*
G01*
X202811933Y-92748826D01*
X202893978Y-92891936D01*
X202971463Y-93027576D01*
X203043542Y-93154243D01*
X203109369Y-93270432D01*
X203168096Y-93374641D01*
X203218878Y-93465366D01*
X203260869Y-93541102D01*
X203293222Y-93600346D01*
X203315090Y-93641594D01*
X203325627Y-93663342D01*
X203326470Y-93666301D01*
X203319747Y-93679419D01*
X203301362Y-93712666D01*
X203272180Y-93764528D01*
X203233065Y-93833496D01*
X203184882Y-93918057D01*
X203128496Y-94016700D01*
X203064770Y-94127913D01*
X202994569Y-94250186D01*
X202918758Y-94382006D01*
X202838200Y-94521862D01*
X202753761Y-94668243D01*
X202722036Y-94723186D01*
X202121768Y-95762501D01*
X200902390Y-95761942D01*
X199683013Y-95761384D01*
X199077922Y-94711200D01*
X198976506Y-94535092D01*
X198886952Y-94379344D01*
X198808565Y-94242694D01*
X198740653Y-94123878D01*
X198682522Y-94021634D01*
X198633480Y-93934700D01*
X198592831Y-93861813D01*
X198559884Y-93801709D01*
X198533945Y-93753127D01*
X198514321Y-93714805D01*
X198500318Y-93685478D01*
X198491243Y-93663885D01*
X198486403Y-93648763D01*
X198485104Y-93638849D01*
X198486237Y-93633634D01*
X198494314Y-93619064D01*
X198514030Y-93584398D01*
X198544497Y-93531176D01*
X198584827Y-93460941D01*
X198634131Y-93375233D01*
X198691522Y-93275595D01*
X198756110Y-93163569D01*
X198827010Y-93040695D01*
X198903331Y-92908516D01*
X198984186Y-92768573D01*
X199068687Y-92622408D01*
X199092491Y-92581250D01*
X199685338Y-91556250D01*
X200903526Y-91553512D01*
X202121713Y-91550773D01*
X202726175Y-92599751D01*
G37*
G36*
X199520529Y-91354943D02*
G01*
X199540021Y-91378279D01*
X199564676Y-91416868D01*
X199567461Y-91421686D01*
X199614489Y-91503801D01*
X199010937Y-92550724D01*
X198904599Y-92734975D01*
X198810038Y-92898369D01*
X198726714Y-93041807D01*
X198654088Y-93166190D01*
X198591620Y-93272420D01*
X198538772Y-93361398D01*
X198495003Y-93434026D01*
X198459774Y-93491205D01*
X198432546Y-93533837D01*
X198412779Y-93562823D01*
X198399934Y-93579064D01*
X198393471Y-93583463D01*
X198393058Y-93583198D01*
X198379634Y-93565035D01*
X198359288Y-93532502D01*
X198340567Y-93500000D01*
X198302402Y-93431250D01*
X198900124Y-92396289D01*
X198985638Y-92248309D01*
X199067726Y-92106431D01*
X199145513Y-91972158D01*
X199218122Y-91846995D01*
X199284678Y-91732445D01*
X199344305Y-91630013D01*
X199396126Y-91541203D01*
X199439266Y-91467520D01*
X199472848Y-91410467D01*
X199495998Y-91371549D01*
X199507838Y-91352271D01*
X199509140Y-91350449D01*
X199520529Y-91354943D01*
G37*
G36*
X185262709Y-89953346D02*
G01*
X185329485Y-89954628D01*
X185380445Y-89956663D01*
X185417889Y-89959513D01*
X185444113Y-89963242D01*
X185460507Y-89967576D01*
X185493047Y-89980044D01*
X185519208Y-89993160D01*
X185539685Y-90009640D01*
X185555175Y-90032200D01*
X185566372Y-90063554D01*
X185573973Y-90106420D01*
X185578673Y-90163512D01*
X185581168Y-90237545D01*
X185582153Y-90331236D01*
X185582324Y-90443130D01*
X185582324Y-90800000D01*
X185194633Y-90800000D01*
X185194633Y-90275000D01*
X184718750Y-90275000D01*
X184719922Y-90530276D01*
X184721093Y-90785552D01*
X185128615Y-91170694D01*
X185237987Y-91274520D01*
X185329678Y-91362598D01*
X185404621Y-91435872D01*
X185463752Y-91495289D01*
X185508005Y-91541794D01*
X185538317Y-91576334D01*
X185555621Y-91599853D01*
X185558955Y-91606043D01*
X185565592Y-91622783D01*
X185570822Y-91642481D01*
X185574812Y-91668161D01*
X185577728Y-91702852D01*
X185579739Y-91749580D01*
X185581009Y-91811373D01*
X185581707Y-91891256D01*
X185581998Y-91992258D01*
X185582030Y-92025000D01*
X185581953Y-92140730D01*
X185581169Y-92234203D01*
X185579113Y-92308166D01*
X185575220Y-92365360D01*
X185568926Y-92408532D01*
X185559666Y-92440424D01*
X185546876Y-92463781D01*
X185529991Y-92481347D01*
X185508445Y-92495867D01*
X185482275Y-92509779D01*
X185467550Y-92517023D01*
X185453069Y-92522904D01*
X185436229Y-92527544D01*
X185414431Y-92531064D01*
X185385073Y-92533584D01*
X185345555Y-92535226D01*
X185293276Y-92536110D01*
X185225635Y-92536357D01*
X185140032Y-92536088D01*
X185033866Y-92535424D01*
X184944510Y-92534779D01*
X184821611Y-92533819D01*
X184721185Y-92532827D01*
X184640694Y-92531664D01*
X184577598Y-92530191D01*
X184529358Y-92528270D01*
X184493436Y-92525764D01*
X184467293Y-92522533D01*
X184448389Y-92518440D01*
X184434186Y-92513346D01*
X184422144Y-92507113D01*
X184420671Y-92506250D01*
X184396407Y-92490332D01*
X184377068Y-92472424D01*
X184362088Y-92449636D01*
X184350902Y-92419078D01*
X184342944Y-92377861D01*
X184337649Y-92323095D01*
X184334452Y-92251889D01*
X184332788Y-92161353D01*
X184332108Y-92053457D01*
X184331002Y-91725000D01*
X184719399Y-91725000D01*
X184720511Y-91909375D01*
X184720774Y-91980398D01*
X184720729Y-92047669D01*
X184720398Y-92104749D01*
X184719808Y-92145200D01*
X184719583Y-92153125D01*
X184717545Y-92212500D01*
X185194633Y-92212500D01*
X185194519Y-91743750D01*
X184795566Y-91369890D01*
X184703415Y-91282988D01*
X184618818Y-91202135D01*
X184543513Y-91129055D01*
X184479235Y-91065471D01*
X184427723Y-91013107D01*
X184390713Y-90973686D01*
X184369942Y-90948933D01*
X184367287Y-90944890D01*
X184359265Y-90930392D01*
X184352858Y-90916004D01*
X184347885Y-90898883D01*
X184344164Y-90876184D01*
X184341513Y-90845061D01*
X184339751Y-90802671D01*
X184338696Y-90746169D01*
X184338167Y-90672710D01*
X184337983Y-90579449D01*
X184337962Y-90485299D01*
X184338016Y-90373336D01*
X184338287Y-90283623D01*
X184338938Y-90213408D01*
X184340132Y-90159941D01*
X184342033Y-90120472D01*
X184344803Y-90092250D01*
X184348606Y-90072524D01*
X184353605Y-90058543D01*
X184359963Y-90047557D01*
X184364281Y-90041549D01*
X184393751Y-90010681D01*
X184430030Y-89983086D01*
X184433065Y-89981250D01*
X184445181Y-89974791D01*
X184459123Y-89969522D01*
X184477469Y-89965303D01*
X184502799Y-89961994D01*
X184537691Y-89959454D01*
X184584727Y-89957543D01*
X184646483Y-89956120D01*
X184725541Y-89955045D01*
X184824478Y-89954177D01*
X184944510Y-89953383D01*
X185072520Y-89952787D01*
X185177820Y-89952753D01*
X185262709Y-89953346D01*
G37*
G36*
X186185547Y-89956250D02*
G01*
X186607205Y-91143750D01*
X186607829Y-91387500D01*
X186232644Y-91387500D01*
X186230086Y-91737500D01*
X186229392Y-91831505D01*
X186228729Y-91919852D01*
X186228125Y-91998706D01*
X186227610Y-92064234D01*
X186227214Y-92112600D01*
X186226966Y-92139968D01*
X186226959Y-92140625D01*
X186226391Y-92193750D01*
X186473387Y-92197140D01*
X186720384Y-92200529D01*
X186720384Y-89950000D01*
X187108075Y-89950000D01*
X187108075Y-92537500D01*
X186554677Y-92537226D01*
X186421872Y-92537105D01*
X186311693Y-92536823D01*
X186221756Y-92536284D01*
X186149675Y-92535393D01*
X186093065Y-92534053D01*
X186049541Y-92532171D01*
X186016717Y-92529649D01*
X185992209Y-92526393D01*
X185973630Y-92522307D01*
X185958596Y-92517296D01*
X185948387Y-92512953D01*
X185905812Y-92486074D01*
X185873031Y-92451855D01*
X185870271Y-92447602D01*
X185864320Y-92437005D01*
X185859386Y-92424959D01*
X185855374Y-92409165D01*
X185852188Y-92387324D01*
X185849732Y-92357134D01*
X185847913Y-92316297D01*
X185846635Y-92262511D01*
X185845801Y-92193478D01*
X185845318Y-92106896D01*
X185845090Y-92000465D01*
X185845022Y-91871887D01*
X185845019Y-91837500D01*
X185845081Y-91702199D01*
X185845334Y-91589605D01*
X185845861Y-91497428D01*
X185846743Y-91423376D01*
X185848061Y-91365158D01*
X185849899Y-91320482D01*
X185852337Y-91287056D01*
X185855457Y-91262590D01*
X185859342Y-91244791D01*
X185864072Y-91231369D01*
X185866858Y-91225426D01*
X185891470Y-91188505D01*
X185924982Y-91162166D01*
X185971805Y-91144464D01*
X186036349Y-91133456D01*
X186084926Y-91129286D01*
X186202985Y-91121535D01*
X186000469Y-90563893D01*
X185959408Y-90450738D01*
X185920774Y-90344094D01*
X185885446Y-90246399D01*
X185854304Y-90160095D01*
X185828226Y-90087622D01*
X185808093Y-90031420D01*
X185794784Y-89993930D01*
X185789245Y-89977811D01*
X185780537Y-89949372D01*
X186185547Y-89956250D01*
G37*
G36*
X188421221Y-92537500D02*
G01*
X187342075Y-92537500D01*
X187350047Y-92453125D01*
X187354505Y-92391709D01*
X187357438Y-92324050D01*
X187358109Y-92284375D01*
X187358198Y-92200000D01*
X188033530Y-92200000D01*
X188033530Y-91450000D01*
X187445741Y-91450000D01*
X187445741Y-91112500D01*
X188033530Y-91112500D01*
X188033530Y-90287500D01*
X187345692Y-90287500D01*
X187345692Y-89950000D01*
X188421221Y-89950000D01*
X188421221Y-92537500D01*
G37*
G36*
X189518137Y-92537500D02*
G01*
X189394143Y-92537305D01*
X189292455Y-92536652D01*
X189210367Y-92535439D01*
X189145175Y-92533567D01*
X189094176Y-92530933D01*
X189054664Y-92527438D01*
X189023935Y-92522980D01*
X189002258Y-92518244D01*
X188906720Y-92481443D01*
X188822547Y-92424930D01*
X188753290Y-92352006D01*
X188702500Y-92265974D01*
X188686975Y-92225000D01*
X188682797Y-92210296D01*
X188679183Y-92193081D01*
X188676093Y-92171545D01*
X188673485Y-92143878D01*
X188671321Y-92108269D01*
X188669558Y-92062908D01*
X188668158Y-92005985D01*
X188667080Y-91935688D01*
X188666282Y-91850207D01*
X188665725Y-91747732D01*
X188665369Y-91626453D01*
X188665173Y-91484558D01*
X188665097Y-91320238D01*
X188665091Y-91243750D01*
X188665123Y-91071644D01*
X189059055Y-91071644D01*
X189059081Y-91238954D01*
X189059082Y-91251890D01*
X189059114Y-91415009D01*
X189059228Y-91555002D01*
X189059475Y-91673743D01*
X189059910Y-91773107D01*
X189060587Y-91854966D01*
X189061557Y-91921196D01*
X189062875Y-91973670D01*
X189064595Y-92014263D01*
X189066769Y-92044847D01*
X189069451Y-92067298D01*
X189072694Y-92083490D01*
X189076553Y-92095296D01*
X189081079Y-92104590D01*
X189083497Y-92108696D01*
X189103446Y-92138294D01*
X189124707Y-92160206D01*
X189151362Y-92175687D01*
X189187494Y-92185990D01*
X189237187Y-92192369D01*
X189304523Y-92196078D01*
X189374224Y-92197974D01*
X189571787Y-92202197D01*
X189571787Y-90284829D01*
X189381068Y-90289324D01*
X189306413Y-90291399D01*
X189252080Y-90293988D01*
X189213378Y-90297741D01*
X189185618Y-90303309D01*
X189164109Y-90311343D01*
X189144783Y-90322106D01*
X189128246Y-90332210D01*
X189113981Y-90341722D01*
X189101822Y-90352459D01*
X189091599Y-90366241D01*
X189083147Y-90384887D01*
X189076297Y-90410215D01*
X189070881Y-90444044D01*
X189066732Y-90488192D01*
X189063683Y-90544479D01*
X189061565Y-90614723D01*
X189060210Y-90700743D01*
X189059453Y-90804357D01*
X189059124Y-90927385D01*
X189059055Y-91071644D01*
X188665123Y-91071644D01*
X188665124Y-91069829D01*
X188665252Y-90919102D01*
X188665516Y-90789763D01*
X188665958Y-90680005D01*
X188666618Y-90588023D01*
X188667539Y-90512011D01*
X188668763Y-90450163D01*
X188670330Y-90400672D01*
X188672282Y-90361733D01*
X188674662Y-90331540D01*
X188677509Y-90308286D01*
X188680867Y-90290166D01*
X188684776Y-90275373D01*
X188687564Y-90266882D01*
X188732854Y-90169014D01*
X188794679Y-90089383D01*
X188874604Y-90026357D01*
X188958387Y-89984442D01*
X188977240Y-89977200D01*
X188996093Y-89971297D01*
X189017685Y-89966570D01*
X189044751Y-89962855D01*
X189080028Y-89959990D01*
X189126253Y-89957811D01*
X189186162Y-89956155D01*
X189262491Y-89954860D01*
X189357977Y-89953761D01*
X189475357Y-89952697D01*
X189493624Y-89952542D01*
X189959478Y-89948606D01*
X189959478Y-92537500D01*
X189518137Y-92537500D01*
G37*
G36*
X191210094Y-92537500D02*
G01*
X191013122Y-92537504D01*
X190816150Y-92537507D01*
X190819896Y-91418754D01*
X190823643Y-90300000D01*
X190184589Y-90300000D01*
X190184589Y-89950000D01*
X191210094Y-89950000D01*
X191210094Y-92537500D01*
G37*
G36*
X192116790Y-89950619D02*
G01*
X192245232Y-89950959D01*
X192350902Y-89951741D01*
X192436038Y-89953042D01*
X192502880Y-89954938D01*
X192553663Y-89957507D01*
X192590627Y-89960826D01*
X192616010Y-89964972D01*
X192627601Y-89968234D01*
X192689549Y-90001061D01*
X192731703Y-90047730D01*
X192748300Y-90086572D01*
X192750506Y-90107217D01*
X192752520Y-90152082D01*
X192754334Y-90220389D01*
X192755940Y-90311361D01*
X192757331Y-90424218D01*
X192758499Y-90558182D01*
X192759435Y-90712474D01*
X192760132Y-90886316D01*
X192760583Y-91078930D01*
X192760779Y-91289537D01*
X192760787Y-91334375D01*
X192760857Y-92537500D01*
X192563885Y-92537504D01*
X192366913Y-92537507D01*
X192370657Y-91412504D01*
X192374400Y-90287500D01*
X191847907Y-90287500D01*
X191847907Y-92537500D01*
X191460217Y-92537500D01*
X191460217Y-91324599D01*
X191460209Y-91119322D01*
X191460234Y-90937548D01*
X191460364Y-90777781D01*
X191460671Y-90638523D01*
X191461230Y-90518279D01*
X191462111Y-90415551D01*
X191463388Y-90328842D01*
X191465134Y-90256656D01*
X191467420Y-90197497D01*
X191470320Y-90149866D01*
X191473905Y-90112269D01*
X191478250Y-90083207D01*
X191483426Y-90061185D01*
X191489505Y-90044705D01*
X191496562Y-90032271D01*
X191504667Y-90022386D01*
X191513894Y-90013553D01*
X191524262Y-90004324D01*
X191540764Y-89991012D01*
X191559725Y-89980060D01*
X191583610Y-89971245D01*
X191614884Y-89964343D01*
X191656012Y-89959131D01*
X191709458Y-89955386D01*
X191777687Y-89952883D01*
X191863165Y-89951401D01*
X191968355Y-89950714D01*
X192095722Y-89950600D01*
X192116790Y-89950619D01*
G37*
G36*
X194315193Y-92264383D02*
G01*
X194313716Y-92313793D01*
X194311956Y-92352348D01*
X194309871Y-92381618D01*
X194307421Y-92403177D01*
X194304568Y-92418595D01*
X194301270Y-92429443D01*
X194297487Y-92437295D01*
X194293179Y-92443720D01*
X194292088Y-92445192D01*
X194262304Y-92478563D01*
X194231782Y-92505478D01*
X194222422Y-92511854D01*
X194211435Y-92517105D01*
X194196412Y-92521362D01*
X194174942Y-92524753D01*
X194144617Y-92527407D01*
X194103025Y-92529453D01*
X194047758Y-92531019D01*
X193976405Y-92532235D01*
X193886557Y-92533230D01*
X193775804Y-92534132D01*
X193683945Y-92534781D01*
X193557062Y-92535620D01*
X193452687Y-92536154D01*
X193368317Y-92536284D01*
X193301447Y-92535906D01*
X193249575Y-92534918D01*
X193210196Y-92533218D01*
X193180808Y-92530704D01*
X193158906Y-92527275D01*
X193141987Y-92522827D01*
X193127548Y-92517258D01*
X193115398Y-92511589D01*
X193064294Y-92476526D01*
X193035574Y-92436681D01*
X193031353Y-92427795D01*
X193027646Y-92417666D01*
X193024417Y-92404709D01*
X193021635Y-92387338D01*
X193019267Y-92363970D01*
X193017278Y-92333018D01*
X193015637Y-92292899D01*
X193014311Y-92242027D01*
X193013265Y-92178818D01*
X193012468Y-92101687D01*
X193011886Y-92009048D01*
X193011487Y-91899318D01*
X193011236Y-91770911D01*
X193011102Y-91622243D01*
X193011051Y-91451728D01*
X193011050Y-91259873D01*
X193011201Y-91055594D01*
X193011623Y-90868223D01*
X193012306Y-90698666D01*
X193013240Y-90547825D01*
X193014416Y-90416603D01*
X193015824Y-90305906D01*
X193016160Y-90287500D01*
X193398671Y-90287500D01*
X193398671Y-92200000D01*
X193936435Y-92200000D01*
X193936435Y-90287500D01*
X193398671Y-90287500D01*
X193016160Y-90287500D01*
X193017454Y-90216636D01*
X193019298Y-90149697D01*
X193021345Y-90105992D01*
X193023477Y-90086790D01*
X193050680Y-90033086D01*
X193096668Y-89990228D01*
X193154801Y-89963735D01*
X193183503Y-89959496D01*
X193233207Y-89956027D01*
X193300404Y-89953311D01*
X193381588Y-89951330D01*
X193473251Y-89950067D01*
X193571885Y-89949505D01*
X193673984Y-89949628D01*
X193776040Y-89950418D01*
X193874545Y-89951859D01*
X193965992Y-89953933D01*
X194046874Y-89956622D01*
X194113683Y-89959911D01*
X194162912Y-89963783D01*
X194191054Y-89968219D01*
X194192811Y-89968776D01*
X194251866Y-90001438D01*
X194294400Y-90049884D01*
X194316810Y-90109897D01*
X194317591Y-90114832D01*
X194318696Y-90135148D01*
X194319671Y-90178580D01*
X194320511Y-90243248D01*
X194321208Y-90327269D01*
X194321757Y-90428760D01*
X194322151Y-90545840D01*
X194322384Y-90676625D01*
X194322448Y-90819235D01*
X194322339Y-90971785D01*
X194322049Y-91132396D01*
X194321603Y-91289714D01*
X194320952Y-91482545D01*
X194320339Y-91651948D01*
X194319723Y-91799495D01*
X194319064Y-91926756D01*
X194318321Y-92035304D01*
X194317456Y-92126710D01*
X194316461Y-92200000D01*
X194316426Y-92202546D01*
X194315193Y-92264383D01*
G37*
G36*
X194974446Y-91112500D02*
G01*
X195499705Y-91112500D01*
X195499705Y-89950000D01*
X195887395Y-89950000D01*
X195887395Y-92537500D01*
X195690423Y-92537505D01*
X195493451Y-92537509D01*
X195497724Y-92006255D01*
X195501996Y-91475000D01*
X194974446Y-91475000D01*
X194974446Y-92537500D01*
X194574249Y-92537500D01*
X194574249Y-89950000D01*
X194974446Y-89950000D01*
X194974446Y-91112500D01*
G37*
G36*
X197068519Y-89953346D02*
G01*
X197135295Y-89954628D01*
X197186255Y-89956663D01*
X197223699Y-89959513D01*
X197249923Y-89963242D01*
X197266317Y-89967576D01*
X197298857Y-89980044D01*
X197325018Y-89993160D01*
X197345495Y-90009640D01*
X197360984Y-90032200D01*
X197372182Y-90063554D01*
X197379783Y-90106420D01*
X197384483Y-90163512D01*
X197386978Y-90237545D01*
X197387963Y-90331236D01*
X197388134Y-90443130D01*
X197388134Y-90800000D01*
X197000443Y-90800000D01*
X197000443Y-90275000D01*
X196524560Y-90275000D01*
X196525731Y-90530276D01*
X196526903Y-90785552D01*
X196934425Y-91170694D01*
X197043797Y-91274520D01*
X197135488Y-91362598D01*
X197210431Y-91435872D01*
X197269562Y-91495289D01*
X197313815Y-91541794D01*
X197344127Y-91576334D01*
X197361431Y-91599853D01*
X197364765Y-91606043D01*
X197371402Y-91622783D01*
X197376631Y-91642481D01*
X197380621Y-91668161D01*
X197383538Y-91702852D01*
X197385549Y-91749580D01*
X197386819Y-91811373D01*
X197387517Y-91891256D01*
X197387808Y-91992258D01*
X197387840Y-92025000D01*
X197387763Y-92140730D01*
X197386979Y-92234203D01*
X197384923Y-92308166D01*
X197381030Y-92365360D01*
X197374736Y-92408532D01*
X197365476Y-92440424D01*
X197352686Y-92463781D01*
X197335801Y-92481347D01*
X197314255Y-92495867D01*
X197288085Y-92509779D01*
X197273360Y-92517023D01*
X197258879Y-92522904D01*
X197242039Y-92527544D01*
X197220241Y-92531064D01*
X197190883Y-92533584D01*
X197151365Y-92535226D01*
X197099086Y-92536110D01*
X197031445Y-92536357D01*
X196945842Y-92536088D01*
X196839676Y-92535424D01*
X196750320Y-92534779D01*
X196627421Y-92533819D01*
X196526995Y-92532827D01*
X196446504Y-92531664D01*
X196383408Y-92530191D01*
X196335168Y-92528270D01*
X196299246Y-92525764D01*
X196273103Y-92522533D01*
X196254199Y-92518440D01*
X196239996Y-92513346D01*
X196227954Y-92507113D01*
X196226481Y-92506250D01*
X196202217Y-92490332D01*
X196182878Y-92472424D01*
X196167898Y-92449636D01*
X196156711Y-92419078D01*
X196148754Y-92377861D01*
X196143459Y-92323095D01*
X196140262Y-92251889D01*
X196138598Y-92161353D01*
X196137918Y-92053457D01*
X196136812Y-91725000D01*
X196525209Y-91725000D01*
X196526321Y-91909375D01*
X196526584Y-91980398D01*
X196526539Y-92047669D01*
X196526208Y-92104749D01*
X196525617Y-92145200D01*
X196525393Y-92153125D01*
X196523355Y-92212500D01*
X197000443Y-92212500D01*
X197000329Y-91743750D01*
X196601376Y-91369890D01*
X196509225Y-91282988D01*
X196424628Y-91202135D01*
X196349322Y-91129055D01*
X196285045Y-91065471D01*
X196233533Y-91013107D01*
X196196523Y-90973686D01*
X196175752Y-90948933D01*
X196173097Y-90944890D01*
X196165075Y-90930392D01*
X196158668Y-90916004D01*
X196153695Y-90898883D01*
X196149974Y-90876184D01*
X196147323Y-90845061D01*
X196145561Y-90802671D01*
X196144506Y-90746169D01*
X196143977Y-90672710D01*
X196143793Y-90579449D01*
X196143772Y-90485299D01*
X196143826Y-90373336D01*
X196144097Y-90283623D01*
X196144748Y-90213408D01*
X196145942Y-90159941D01*
X196147843Y-90120472D01*
X196150613Y-90092250D01*
X196154416Y-90072524D01*
X196159415Y-90058543D01*
X196165772Y-90047557D01*
X196170091Y-90041549D01*
X196199561Y-90010681D01*
X196235840Y-89983086D01*
X196238875Y-89981250D01*
X196250991Y-89974791D01*
X196264933Y-89969522D01*
X196283279Y-89965303D01*
X196308609Y-89961994D01*
X196343501Y-89959454D01*
X196390537Y-89957543D01*
X196452293Y-89956120D01*
X196531351Y-89955045D01*
X196630288Y-89954177D01*
X196750320Y-89953383D01*
X196878330Y-89952787D01*
X196983630Y-89952753D01*
X197068519Y-89953346D01*
G37*
G36*
X205864950Y-89440564D02*
G01*
X205890268Y-89482793D01*
X205925210Y-89542045D01*
X205968742Y-89616511D01*
X206019829Y-89704382D01*
X206077437Y-89803848D01*
X206140531Y-89913102D01*
X206208078Y-90030334D01*
X206279041Y-90153734D01*
X206352388Y-90281494D01*
X206427084Y-90411804D01*
X206502094Y-90542856D01*
X206576384Y-90672841D01*
X206648920Y-90799949D01*
X206718667Y-90922371D01*
X206784590Y-91038298D01*
X206845656Y-91145922D01*
X206900830Y-91243432D01*
X206949077Y-91329021D01*
X206989363Y-91400879D01*
X207020654Y-91457197D01*
X207041916Y-91496165D01*
X207052113Y-91515975D01*
X207052871Y-91518106D01*
X207046213Y-91530836D01*
X207027900Y-91563701D01*
X206998792Y-91615198D01*
X206959755Y-91683817D01*
X206911649Y-91768055D01*
X206855339Y-91866403D01*
X206791687Y-91977355D01*
X206721555Y-92099406D01*
X206645808Y-92231048D01*
X206565307Y-92370775D01*
X206480916Y-92517081D01*
X206448843Y-92572641D01*
X205848547Y-93612299D01*
X204629408Y-93609275D01*
X203410268Y-93606250D01*
X202806957Y-92562500D01*
X202721190Y-92414053D01*
X202639056Y-92271760D01*
X202561408Y-92137108D01*
X202489103Y-92011588D01*
X202422994Y-91896687D01*
X202363937Y-91793894D01*
X202312787Y-91704697D01*
X202270398Y-91630586D01*
X202237626Y-91573048D01*
X202215325Y-91533572D01*
X202204351Y-91513647D01*
X202203324Y-91511481D01*
X202209396Y-91499858D01*
X202227137Y-91468077D01*
X202255695Y-91417625D01*
X202294220Y-91349985D01*
X202341860Y-91266643D01*
X202397763Y-91169083D01*
X202461078Y-91058792D01*
X202530954Y-90937255D01*
X202606539Y-90805955D01*
X202686982Y-90666379D01*
X202771433Y-90520011D01*
X202808838Y-90455231D01*
X203414672Y-89406250D01*
X204627425Y-89403064D01*
X205840178Y-89399877D01*
X205864950Y-89440564D01*
G37*
G36*
X205713951Y-89243750D02*
G01*
X205753459Y-89312500D01*
X203418246Y-89312500D01*
X203379655Y-89249813D01*
X203358989Y-89215294D01*
X203344984Y-89190086D01*
X203341063Y-89181063D01*
X203353281Y-89180187D01*
X203388777Y-89179350D01*
X203445818Y-89178559D01*
X203522671Y-89177825D01*
X203617602Y-89177155D01*
X203728878Y-89176559D01*
X203854766Y-89176046D01*
X203993531Y-89175625D01*
X204143440Y-89175305D01*
X204302760Y-89175095D01*
X204469757Y-89175004D01*
X204507754Y-89175000D01*
X205674444Y-89175000D01*
X205713951Y-89243750D01*
G37*
G36*
X202728326Y-88296838D02*
G01*
X202814171Y-88445658D01*
X202896378Y-88588432D01*
X202974093Y-88723664D01*
X203046463Y-88849857D01*
X203112634Y-88965512D01*
X203171752Y-89069132D01*
X203222963Y-89159220D01*
X203265414Y-89234279D01*
X203298251Y-89292811D01*
X203320620Y-89333318D01*
X203331667Y-89354303D01*
X203332726Y-89356922D01*
X203326604Y-89369406D01*
X203308805Y-89402030D01*
X203280186Y-89453295D01*
X203241599Y-89521704D01*
X203193899Y-89605758D01*
X203137939Y-89703961D01*
X203074575Y-89814813D01*
X203004660Y-89936818D01*
X202929048Y-90068478D01*
X202848593Y-90208294D01*
X202764149Y-90354769D01*
X202728576Y-90416396D01*
X202124426Y-91462623D01*
X200906105Y-91459437D01*
X199687785Y-91456250D01*
X199082186Y-90407844D01*
X198996332Y-90259065D01*
X198914190Y-90116425D01*
X198836604Y-89981409D01*
X198764422Y-89855504D01*
X198698490Y-89740195D01*
X198639653Y-89636968D01*
X198588758Y-89547308D01*
X198546650Y-89472701D01*
X198514177Y-89414632D01*
X198492184Y-89374588D01*
X198481518Y-89354054D01*
X198480624Y-89351594D01*
X198487309Y-89339878D01*
X198505625Y-89307992D01*
X198534715Y-89257424D01*
X198573719Y-89189664D01*
X198621782Y-89106202D01*
X198678043Y-89008528D01*
X198741645Y-88898130D01*
X198811730Y-88776499D01*
X198887441Y-88645124D01*
X198967919Y-88505494D01*
X199052305Y-88359099D01*
X199088176Y-88296875D01*
X199691692Y-87250000D01*
X202123927Y-87250000D01*
X202728326Y-88296838D01*
G37*
G36*
X209591804Y-87290625D02*
G01*
X209601547Y-87307184D01*
X209622871Y-87343819D01*
X209654863Y-87398948D01*
X209696607Y-87470991D01*
X209747189Y-87558367D01*
X209805695Y-87659496D01*
X209871211Y-87772796D01*
X209942821Y-87896687D01*
X210019611Y-88029587D01*
X210100667Y-88169916D01*
X210185074Y-88316094D01*
X210200778Y-88343296D01*
X210785036Y-89355342D01*
X210764340Y-89393296D01*
X210755185Y-89409454D01*
X210734428Y-89445687D01*
X210702977Y-89500421D01*
X210661738Y-89572080D01*
X210611619Y-89659092D01*
X210553528Y-89759881D01*
X210488372Y-89872874D01*
X210417057Y-89996497D01*
X210340493Y-90129175D01*
X210259585Y-90269334D01*
X210175241Y-90415399D01*
X210158867Y-90443750D01*
X209574090Y-91456250D01*
X208355164Y-91459437D01*
X207136238Y-91462623D01*
X206530885Y-90413803D01*
X206445018Y-90264940D01*
X206362790Y-90122206D01*
X206285053Y-89987090D01*
X206212659Y-89861080D01*
X206146457Y-89745663D01*
X206087301Y-89642327D01*
X206036041Y-89552560D01*
X205993528Y-89477849D01*
X205960613Y-89419683D01*
X205938149Y-89379549D01*
X205926986Y-89358936D01*
X205925872Y-89356446D01*
X205932036Y-89344638D01*
X205949860Y-89312672D01*
X205978494Y-89262035D01*
X206017083Y-89194215D01*
X206064777Y-89110702D01*
X206120722Y-89012982D01*
X206184067Y-88902543D01*
X206253958Y-88780875D01*
X206329545Y-88649464D01*
X206409974Y-88509800D01*
X206494393Y-88363369D01*
X206531447Y-88299147D01*
X207136681Y-87250385D01*
X208351885Y-87250193D01*
X209567088Y-87250000D01*
X209591804Y-87290625D01*
G37*
G36*
X201971351Y-87056250D02*
G01*
X201993154Y-87092034D01*
X202009158Y-87118311D01*
X202022727Y-87142698D01*
X202027917Y-87155875D01*
X202015700Y-87156815D01*
X201980200Y-87157650D01*
X201923149Y-87158374D01*
X201846277Y-87158982D01*
X201751314Y-87159469D01*
X201639991Y-87159829D01*
X201514038Y-87160058D01*
X201375184Y-87160149D01*
X201225162Y-87160098D01*
X201065700Y-87159900D01*
X200898529Y-87159549D01*
X200856960Y-87159440D01*
X199686002Y-87156250D01*
X199648909Y-87090625D01*
X199611815Y-87025000D01*
X201952304Y-87025000D01*
X201971351Y-87056250D01*
G37*
G36*
X209440750Y-87093689D02*
G01*
X209480293Y-87162500D01*
X208283475Y-87162607D01*
X207086657Y-87162713D01*
X206680905Y-87865732D01*
X206562053Y-88071677D01*
X206455088Y-88257042D01*
X206359374Y-88422887D01*
X206274277Y-88570274D01*
X206199163Y-88700264D01*
X206133399Y-88813920D01*
X206076349Y-88912302D01*
X206027380Y-88996472D01*
X205985856Y-89067492D01*
X205951145Y-89126423D01*
X205922611Y-89174327D01*
X205899620Y-89212265D01*
X205881539Y-89241298D01*
X205867732Y-89262489D01*
X205857566Y-89276898D01*
X205850406Y-89285588D01*
X205845618Y-89289619D01*
X205842568Y-89290053D01*
X205840621Y-89287953D01*
X205839144Y-89284378D01*
X205837501Y-89280391D01*
X205836579Y-89278804D01*
X205822066Y-89255430D01*
X205801167Y-89219574D01*
X205786513Y-89193558D01*
X205751723Y-89130866D01*
X206357801Y-88081058D01*
X206963878Y-87031250D01*
X209401208Y-87024878D01*
X209440750Y-87093689D01*
G37*
G36*
X182725737Y-86903910D02*
G01*
X182816131Y-86904653D01*
X182893660Y-86905832D01*
X182955331Y-86907400D01*
X182998155Y-86909312D01*
X183019140Y-86911520D01*
X183019643Y-86911662D01*
X183054376Y-86926254D01*
X183085940Y-86943979D01*
X183105301Y-86957608D01*
X183120735Y-86972263D01*
X183132684Y-86990789D01*
X183141594Y-87016030D01*
X183147909Y-87050830D01*
X183152073Y-87098034D01*
X183154531Y-87160485D01*
X183155728Y-87241027D01*
X183156107Y-87342505D01*
X183156130Y-87393130D01*
X183156130Y-87750000D01*
X182768439Y-87750000D01*
X182768439Y-87225000D01*
X182292624Y-87225000D01*
X182293732Y-87480249D01*
X182294841Y-87735497D01*
X182702391Y-88120666D01*
X182811768Y-88224496D01*
X182903462Y-88312577D01*
X182978408Y-88385854D01*
X183037543Y-88445274D01*
X183081800Y-88491782D01*
X183112115Y-88526324D01*
X183129423Y-88549847D01*
X183132761Y-88556043D01*
X183139398Y-88572783D01*
X183144628Y-88592481D01*
X183148618Y-88618161D01*
X183151534Y-88652852D01*
X183153545Y-88699580D01*
X183154815Y-88761373D01*
X183155513Y-88841256D01*
X183155804Y-88942258D01*
X183155836Y-88975000D01*
X183155759Y-89090730D01*
X183154975Y-89184203D01*
X183152919Y-89258166D01*
X183149026Y-89315360D01*
X183142732Y-89358532D01*
X183133472Y-89390424D01*
X183120682Y-89413781D01*
X183103797Y-89431347D01*
X183082251Y-89445867D01*
X183056081Y-89459779D01*
X183041356Y-89467023D01*
X183026875Y-89472904D01*
X183010035Y-89477544D01*
X182988237Y-89481064D01*
X182958879Y-89483584D01*
X182919361Y-89485226D01*
X182867082Y-89486110D01*
X182799441Y-89486357D01*
X182713838Y-89486088D01*
X182607672Y-89485424D01*
X182518316Y-89484779D01*
X182378605Y-89484110D01*
X182261821Y-89483251D01*
X182165919Y-89480583D01*
X182088853Y-89474487D01*
X182028580Y-89463345D01*
X181983053Y-89445538D01*
X181950229Y-89419448D01*
X181928062Y-89383456D01*
X181914507Y-89335944D01*
X181907520Y-89275293D01*
X181905055Y-89199884D01*
X181905068Y-89108100D01*
X181905515Y-88999748D01*
X181905515Y-88675000D01*
X182293205Y-88675000D01*
X182294317Y-88859375D01*
X182294580Y-88930398D01*
X182294535Y-88997669D01*
X182294204Y-89054749D01*
X182293614Y-89095200D01*
X182293389Y-89103125D01*
X182291351Y-89162500D01*
X182768439Y-89162500D01*
X182768325Y-88693750D01*
X182369372Y-88319890D01*
X182277221Y-88232988D01*
X182192624Y-88152135D01*
X182117319Y-88079055D01*
X182053041Y-88015471D01*
X182001529Y-87963107D01*
X181964519Y-87923686D01*
X181943748Y-87898933D01*
X181941093Y-87894890D01*
X181933071Y-87880392D01*
X181926664Y-87866004D01*
X181921691Y-87848883D01*
X181917970Y-87826184D01*
X181915319Y-87795061D01*
X181913557Y-87752671D01*
X181912502Y-87696169D01*
X181911973Y-87622710D01*
X181911789Y-87529449D01*
X181911768Y-87435299D01*
X181911822Y-87323336D01*
X181912093Y-87233623D01*
X181912744Y-87163408D01*
X181913938Y-87109941D01*
X181915839Y-87070472D01*
X181918609Y-87042250D01*
X181922412Y-87022524D01*
X181927411Y-87008543D01*
X181933769Y-86997557D01*
X181938087Y-86991549D01*
X181967557Y-86960681D01*
X182003836Y-86933086D01*
X182006871Y-86931250D01*
X182018968Y-86924793D01*
X182032854Y-86919531D01*
X182051110Y-86915326D01*
X182076314Y-86912040D01*
X182111047Y-86909536D01*
X182157886Y-86907676D01*
X182219412Y-86906322D01*
X182298205Y-86905336D01*
X182396843Y-86904580D01*
X182517905Y-86903917D01*
X182518316Y-86903915D01*
X182625469Y-86903648D01*
X182725737Y-86903910D01*
G37*
G36*
X184181019Y-88021875D02*
G01*
X184179301Y-89143750D01*
X184393072Y-89147171D01*
X184606844Y-89150591D01*
X184606844Y-89487500D01*
X183352612Y-89487500D01*
X183360584Y-89403125D01*
X183365041Y-89341709D01*
X183367975Y-89274050D01*
X183368646Y-89234375D01*
X183368735Y-89150000D01*
X183793944Y-89150000D01*
X183793944Y-86900000D01*
X184182736Y-86900000D01*
X184181019Y-88021875D01*
G37*
G36*
X185598700Y-88060358D02*
G01*
X185633461Y-88152330D01*
X185662634Y-88229795D01*
X185685342Y-88290435D01*
X185700711Y-88331932D01*
X185707204Y-88350000D01*
X185720802Y-88387699D01*
X185735256Y-88424748D01*
X185748653Y-88456794D01*
X185759081Y-88479483D01*
X185764626Y-88488461D01*
X185763374Y-88479376D01*
X185762138Y-88475000D01*
X185760438Y-88457202D01*
X185758686Y-88416650D01*
X185756921Y-88355590D01*
X185755182Y-88276268D01*
X185753509Y-88180932D01*
X185751940Y-88071825D01*
X185750515Y-87951196D01*
X185749272Y-87821289D01*
X185748250Y-87684352D01*
X185748171Y-87671875D01*
X185743355Y-86900000D01*
X186132595Y-86900000D01*
X186132595Y-89487500D01*
X185784491Y-89487500D01*
X185762615Y-89428125D01*
X185753337Y-89403545D01*
X185736473Y-89359488D01*
X185712953Y-89298352D01*
X185683707Y-89222536D01*
X185649666Y-89134438D01*
X185611762Y-89036458D01*
X185570924Y-88930994D01*
X185528083Y-88820444D01*
X185484171Y-88707207D01*
X185440117Y-88593681D01*
X185396853Y-88482265D01*
X185355310Y-88375358D01*
X185316417Y-88275357D01*
X185281106Y-88184663D01*
X185250307Y-88105672D01*
X185224951Y-88040784D01*
X185205969Y-87992398D01*
X185194292Y-87962911D01*
X185190807Y-87954502D01*
X185190434Y-87966207D01*
X185190192Y-88000784D01*
X185190077Y-88056109D01*
X185190087Y-88130054D01*
X185190218Y-88220494D01*
X185190468Y-88325301D01*
X185190832Y-88442350D01*
X185191308Y-88569514D01*
X185191892Y-88704667D01*
X185191962Y-88719784D01*
X185195544Y-89487500D01*
X184803325Y-89487500D01*
X184811298Y-89403125D01*
X184812438Y-89378661D01*
X184813532Y-89331059D01*
X184814567Y-89262183D01*
X184815531Y-89173896D01*
X184816414Y-89068060D01*
X184817204Y-88946539D01*
X184817889Y-88811196D01*
X184818457Y-88663893D01*
X184818897Y-88506494D01*
X184819197Y-88340861D01*
X184819346Y-88168858D01*
X184819360Y-88109023D01*
X184819373Y-87931250D01*
X185169621Y-87931250D01*
X185175874Y-87937500D01*
X185182127Y-87931250D01*
X185175874Y-87925000D01*
X185169621Y-87931250D01*
X184819373Y-87931250D01*
X184819449Y-86899295D01*
X184989203Y-86902773D01*
X185158958Y-86906250D01*
X185421303Y-87593750D01*
X185469653Y-87720575D01*
X185515920Y-87842163D01*
X185549753Y-87931250D01*
X185559228Y-87956197D01*
X185598700Y-88060358D01*
G37*
G36*
X187541260Y-87980368D02*
G01*
X187511605Y-88133323D01*
X187481776Y-88287003D01*
X187452159Y-88439425D01*
X187423139Y-88588603D01*
X187395101Y-88732555D01*
X187368429Y-88869294D01*
X187343509Y-88996838D01*
X187320726Y-89113202D01*
X187300465Y-89216401D01*
X187283112Y-89304452D01*
X187269050Y-89375370D01*
X187258665Y-89427171D01*
X187252343Y-89457870D01*
X187250577Y-89465625D01*
X187245941Y-89473785D01*
X187235331Y-89479639D01*
X187215123Y-89483562D01*
X187181694Y-89485928D01*
X187131422Y-89487112D01*
X187060684Y-89487489D01*
X187039015Y-89487500D01*
X186834073Y-89487500D01*
X186826091Y-89440625D01*
X186822664Y-89421976D01*
X186814868Y-89380492D01*
X186803030Y-89317895D01*
X186787478Y-89235906D01*
X186768540Y-89136245D01*
X186746543Y-89020633D01*
X186721814Y-88890792D01*
X186694682Y-88748443D01*
X186665474Y-88595306D01*
X186634517Y-88433102D01*
X186602139Y-88263553D01*
X186581639Y-88156250D01*
X186548737Y-87983977D01*
X186517194Y-87818636D01*
X186499351Y-87725000D01*
X186858577Y-87725000D01*
X186864817Y-87759375D01*
X186869719Y-87787954D01*
X186877925Y-87837590D01*
X186888853Y-87904643D01*
X186901924Y-87985473D01*
X186916557Y-88076441D01*
X186932170Y-88173906D01*
X186948184Y-88274229D01*
X186964018Y-88373770D01*
X186979090Y-88468889D01*
X186992821Y-88555946D01*
X187004629Y-88631302D01*
X187013934Y-88691316D01*
X187020155Y-88732350D01*
X187021364Y-88740625D01*
X187029162Y-88789236D01*
X187036740Y-88826745D01*
X187042895Y-88847566D01*
X187044884Y-88850000D01*
X187048117Y-88838129D01*
X187054881Y-88804385D01*
X187064699Y-88751571D01*
X187077092Y-88682491D01*
X187091583Y-88599948D01*
X187107695Y-88506746D01*
X187124950Y-88405689D01*
X187142870Y-88299581D01*
X187160978Y-88191224D01*
X187178796Y-88083422D01*
X187195846Y-87978980D01*
X187211651Y-87880700D01*
X187225733Y-87791386D01*
X187230688Y-87759375D01*
X187235975Y-87725000D01*
X186858577Y-87725000D01*
X186499351Y-87725000D01*
X186487322Y-87661882D01*
X186459436Y-87515369D01*
X186433850Y-87380751D01*
X186410876Y-87259681D01*
X186390828Y-87153813D01*
X186374021Y-87064802D01*
X186360768Y-86994299D01*
X186351382Y-86943960D01*
X186346176Y-86915439D01*
X186345184Y-86909375D01*
X186356982Y-86906145D01*
X186389512Y-86903395D01*
X186438497Y-86901337D01*
X186499658Y-86900178D01*
X186536747Y-86900000D01*
X186728295Y-86900000D01*
X186755240Y-87078125D01*
X186765768Y-87148521D01*
X186775661Y-87216105D01*
X186783938Y-87274090D01*
X186789622Y-87315689D01*
X186790448Y-87322134D01*
X186798712Y-87388018D01*
X187044063Y-87384634D01*
X187289413Y-87381250D01*
X187364765Y-86906250D01*
X187555327Y-86902800D01*
X187636515Y-86902027D01*
X187694228Y-86903145D01*
X187729938Y-86906234D01*
X187745117Y-86911375D01*
X187745889Y-86913239D01*
X187743556Y-86927253D01*
X187736814Y-86963820D01*
X187726048Y-87020954D01*
X187711643Y-87096673D01*
X187693983Y-87188990D01*
X187673456Y-87295924D01*
X187650444Y-87415487D01*
X187625333Y-87545698D01*
X187598509Y-87684571D01*
X187590690Y-87725000D01*
X187570356Y-87830123D01*
X187541260Y-87980368D01*
G37*
G36*
X188346184Y-89487500D02*
G01*
X187958493Y-89487500D01*
X187958493Y-86900000D01*
X188346184Y-86900000D01*
X188346184Y-89487500D01*
G37*
G36*
X189552771Y-86903157D02*
G01*
X189620149Y-86904267D01*
X189672099Y-86906085D01*
X189711019Y-86908679D01*
X189739302Y-86912116D01*
X189759344Y-86916466D01*
X189765633Y-86918491D01*
X189824831Y-86951507D01*
X189867364Y-87000132D01*
X189889684Y-87060206D01*
X189890412Y-87064832D01*
X189891517Y-87085148D01*
X189892492Y-87128580D01*
X189893332Y-87193248D01*
X189894030Y-87277269D01*
X189894579Y-87378760D01*
X189894973Y-87495840D01*
X189895205Y-87626625D01*
X189895270Y-87769235D01*
X189895160Y-87921785D01*
X189894870Y-88082396D01*
X189894424Y-88239714D01*
X189893774Y-88432545D01*
X189893161Y-88601948D01*
X189892544Y-88749495D01*
X189891885Y-88876756D01*
X189891143Y-88985304D01*
X189890277Y-89076710D01*
X189889248Y-89152546D01*
X189888015Y-89214383D01*
X189886538Y-89263793D01*
X189884777Y-89302348D01*
X189882692Y-89331618D01*
X189880243Y-89353177D01*
X189877389Y-89368595D01*
X189874091Y-89379443D01*
X189870308Y-89387295D01*
X189866001Y-89393720D01*
X189864909Y-89395192D01*
X189835122Y-89428562D01*
X189804588Y-89455478D01*
X189795322Y-89461836D01*
X189784592Y-89467052D01*
X189769991Y-89471240D01*
X189749115Y-89474512D01*
X189719557Y-89476981D01*
X189678913Y-89478760D01*
X189624777Y-89479961D01*
X189554744Y-89480698D01*
X189466408Y-89481083D01*
X189357364Y-89481230D01*
X189255090Y-89481250D01*
X189127780Y-89481203D01*
X189023043Y-89480989D01*
X188938440Y-89480498D01*
X188871531Y-89479620D01*
X188819877Y-89478247D01*
X188781038Y-89476268D01*
X188752574Y-89473575D01*
X188732048Y-89470056D01*
X188717019Y-89465604D01*
X188705047Y-89460109D01*
X188698293Y-89456250D01*
X188672938Y-89439690D01*
X188652865Y-89421719D01*
X188637463Y-89399345D01*
X188626118Y-89369578D01*
X188618217Y-89329427D01*
X188613149Y-89275900D01*
X188610302Y-89206006D01*
X188609061Y-89116753D01*
X188608813Y-89019248D01*
X188608813Y-88700000D01*
X188996504Y-88700000D01*
X188996504Y-89150000D01*
X189509256Y-89150000D01*
X189509256Y-87237500D01*
X188996504Y-87237500D01*
X188996504Y-87962500D01*
X189284146Y-87962500D01*
X189284146Y-88287500D01*
X188607934Y-88287500D01*
X188611500Y-87657154D01*
X188612326Y-87515437D01*
X188613128Y-87396572D01*
X188614001Y-87298409D01*
X188615042Y-87218799D01*
X188616348Y-87155596D01*
X188618016Y-87106649D01*
X188620141Y-87069810D01*
X188622820Y-87042930D01*
X188626150Y-87023862D01*
X188630227Y-87010456D01*
X188635148Y-87000563D01*
X188641009Y-86992036D01*
X188641386Y-86991529D01*
X188670855Y-86960675D01*
X188707133Y-86933087D01*
X188710170Y-86931250D01*
X188722126Y-86924869D01*
X188735882Y-86919649D01*
X188753978Y-86915455D01*
X188778953Y-86912153D01*
X188813348Y-86909608D01*
X188859700Y-86907684D01*
X188920552Y-86906246D01*
X188998441Y-86905160D01*
X189095908Y-86904290D01*
X189215492Y-86903501D01*
X189234121Y-86903389D01*
X189362152Y-86902786D01*
X189467570Y-86902685D01*
X189552771Y-86903157D01*
G37*
G36*
X191447710Y-89150000D02*
G01*
X190722353Y-89150000D01*
X190722353Y-88975000D01*
X191247612Y-88975000D01*
X191247612Y-88125000D01*
X190759872Y-88125000D01*
X190759872Y-87950000D01*
X191247612Y-87950000D01*
X191247612Y-86900000D01*
X191447710Y-86900000D01*
X191447710Y-89150000D01*
G37*
G36*
X192696433Y-89025152D02*
G01*
X192691503Y-89051764D01*
X192685560Y-89071690D01*
X192678511Y-89086594D01*
X192670259Y-89098142D01*
X192660711Y-89107997D01*
X192649773Y-89117826D01*
X192648734Y-89118750D01*
X192639464Y-89125932D01*
X192627656Y-89131643D01*
X192610455Y-89136090D01*
X192585002Y-89139482D01*
X192548442Y-89142025D01*
X192497918Y-89143927D01*
X192430573Y-89145395D01*
X192343550Y-89146637D01*
X192249938Y-89147690D01*
X192141965Y-89148700D01*
X192056091Y-89149098D01*
X191989408Y-89148766D01*
X191939007Y-89147583D01*
X191901981Y-89145429D01*
X191875419Y-89142184D01*
X191856415Y-89137730D01*
X191842060Y-89131945D01*
X191839808Y-89130786D01*
X191825631Y-89123595D01*
X191813213Y-89116935D01*
X191802442Y-89109200D01*
X191793209Y-89098783D01*
X191785403Y-89084078D01*
X191778914Y-89063480D01*
X191773632Y-89035382D01*
X191769447Y-88998178D01*
X191766248Y-88950262D01*
X191763925Y-88890027D01*
X191762368Y-88815869D01*
X191761467Y-88726180D01*
X191761111Y-88619355D01*
X191761191Y-88493787D01*
X191761595Y-88347870D01*
X191762215Y-88179999D01*
X191762862Y-88009612D01*
X191766297Y-87075000D01*
X191960463Y-87075000D01*
X191960463Y-88975000D01*
X192510734Y-88975000D01*
X192510734Y-87075000D01*
X191960463Y-87075000D01*
X191766297Y-87075000D01*
X191766617Y-86987974D01*
X191848353Y-86906250D01*
X192220188Y-86902876D01*
X192326721Y-86901982D01*
X192411199Y-86901556D01*
X192476581Y-86901758D01*
X192525822Y-86902745D01*
X192561879Y-86904677D01*
X192587709Y-86907711D01*
X192606269Y-86912006D01*
X192620515Y-86917721D01*
X192633404Y-86925014D01*
X192633421Y-86925025D01*
X192647133Y-86933334D01*
X192659124Y-86941339D01*
X192669509Y-86950677D01*
X192678404Y-86962986D01*
X192685923Y-86979904D01*
X192692182Y-87003070D01*
X192697296Y-87034123D01*
X192701381Y-87074699D01*
X192704552Y-87126438D01*
X192706924Y-87190978D01*
X192708612Y-87269957D01*
X192709733Y-87365013D01*
X192710400Y-87477784D01*
X192710729Y-87609909D01*
X192710836Y-87763025D01*
X192710836Y-87938772D01*
X192710832Y-88025000D01*
X192710830Y-88210045D01*
X192710760Y-88371755D01*
X192710529Y-88511794D01*
X192710041Y-88631829D01*
X192709202Y-88733522D01*
X192707917Y-88818540D01*
X192706092Y-88888547D01*
X192703633Y-88945208D01*
X192701522Y-88975000D01*
X192700445Y-88990188D01*
X192696433Y-89025152D01*
G37*
G36*
X199002072Y-86145902D02*
G01*
X199087875Y-86294661D01*
X199170039Y-86437378D01*
X199247710Y-86572556D01*
X199320036Y-86698696D01*
X199386160Y-86814299D01*
X199445230Y-86917866D01*
X199496391Y-87007900D01*
X199538788Y-87082901D01*
X199571569Y-87141370D01*
X199593878Y-87181810D01*
X199604861Y-87202721D01*
X199605892Y-87205297D01*
X199599769Y-87217817D01*
X199581969Y-87250475D01*
X199553347Y-87301774D01*
X199514756Y-87370216D01*
X199467050Y-87454304D01*
X199411083Y-87552540D01*
X199347709Y-87663425D01*
X199277782Y-87785463D01*
X199202155Y-87917155D01*
X199121684Y-88057004D01*
X199037220Y-88203512D01*
X199001353Y-88265645D01*
X198396814Y-89312500D01*
X195965312Y-89312500D01*
X195361492Y-88266599D01*
X195275685Y-88117823D01*
X195193516Y-87975072D01*
X195115840Y-87839848D01*
X195043511Y-87713650D01*
X194977384Y-87597979D01*
X194918313Y-87494333D01*
X194867153Y-87404214D01*
X194824757Y-87329122D01*
X194791980Y-87270556D01*
X194769676Y-87230017D01*
X194758700Y-87209004D01*
X194757673Y-87206388D01*
X194763797Y-87193750D01*
X194781599Y-87160978D01*
X194810226Y-87109570D01*
X194848822Y-87041026D01*
X194896533Y-86956845D01*
X194952505Y-86858529D01*
X195015883Y-86747576D01*
X195085813Y-86625486D01*
X195161439Y-86493759D01*
X195241909Y-86353895D01*
X195326367Y-86207393D01*
X195361786Y-86146039D01*
X195965900Y-85100000D01*
X198398253Y-85100000D01*
X199002072Y-86145902D01*
G37*
G36*
X198266691Y-84937687D02*
G01*
X198285390Y-84972584D01*
X198297881Y-84997830D01*
X198301083Y-85006257D01*
X198288863Y-85007149D01*
X198253344Y-85008003D01*
X198196243Y-85008809D01*
X198119271Y-85009560D01*
X198024146Y-85010246D01*
X197912579Y-85010857D01*
X197786287Y-85011386D01*
X197646983Y-85011823D01*
X197496381Y-85012159D01*
X197336197Y-85012385D01*
X197168144Y-85012493D01*
X197108199Y-85012500D01*
X195915314Y-85012500D01*
X195311383Y-86059375D01*
X195225323Y-86208518D01*
X195142618Y-86351775D01*
X195064146Y-86487629D01*
X194990785Y-86614563D01*
X194923414Y-86731058D01*
X194862912Y-86835598D01*
X194810157Y-86926665D01*
X194766027Y-87002740D01*
X194731400Y-87062307D01*
X194707156Y-87103848D01*
X194694173Y-87125845D01*
X194692339Y-87128818D01*
X194683471Y-87138017D01*
X194673626Y-87135315D01*
X194659610Y-87117563D01*
X194638232Y-87081614D01*
X194630481Y-87067840D01*
X194606998Y-87024565D01*
X194594668Y-86996178D01*
X194591847Y-86976086D01*
X194596892Y-86957696D01*
X194600879Y-86949063D01*
X194609500Y-86933321D01*
X194629727Y-86897490D01*
X194660663Y-86843134D01*
X194701412Y-86771816D01*
X194751075Y-86685100D01*
X194808757Y-86584549D01*
X194873560Y-86471727D01*
X194944586Y-86348198D01*
X195020940Y-86215524D01*
X195101723Y-86075269D01*
X195186039Y-85928998D01*
X195205810Y-85894716D01*
X195793599Y-84875599D01*
X198232299Y-84875361D01*
X198266691Y-84937687D01*
G37*
D11*
X135600000Y-155800000D02*
X135600000Y-120800000D01*
X149600000Y-155800000D02*
X149600000Y-120800000D01*
X135600000Y-155800000D02*
X149600000Y-155800000D01*
X135600000Y-120800000D02*
X149600000Y-120800000D01*
X152000000Y-126000000D02*
X152000000Y-156000000D01*
X212000000Y-126000000D02*
X212000000Y-156000000D01*
X152000000Y-126000000D02*
X212000000Y-126000000D01*
X152000000Y-156000000D02*
X212000000Y-156000000D01*
G36*
X155498284Y-88601782D02*
G01*
X155415762Y-88593816D01*
X155348430Y-88573454D01*
X155334110Y-88565272D01*
X155291876Y-88512515D01*
X155289348Y-88487251D01*
X155375798Y-88487251D01*
X155388218Y-88519928D01*
X155432677Y-88531154D01*
X155446158Y-88531422D01*
X155496443Y-88525112D01*
X155514838Y-88498286D01*
X155516518Y-88472789D01*
X155512551Y-88430357D01*
X155492108Y-88416656D01*
X155442379Y-88425298D01*
X155428568Y-88428938D01*
X155385500Y-88457801D01*
X155375798Y-88487251D01*
X155289348Y-88487251D01*
X155285601Y-88449812D01*
X155315888Y-88394417D01*
X155327804Y-88384722D01*
X155356452Y-88361590D01*
X155360523Y-88338189D01*
X155340018Y-88297498D01*
X155327804Y-88277285D01*
X155294101Y-88219160D01*
X155285621Y-88190332D01*
X155302320Y-88180578D01*
X155327391Y-88179622D01*
X155371501Y-88201405D01*
X155419105Y-88262384D01*
X155425523Y-88273435D01*
X155460476Y-88329367D01*
X155488239Y-88362931D01*
X155495968Y-88367249D01*
X155509094Y-88346515D01*
X155519386Y-88295123D01*
X155520966Y-88279494D01*
X155535357Y-88212650D01*
X155565940Y-88184718D01*
X155569289Y-88183960D01*
X155588778Y-88184898D01*
X155600944Y-88202277D01*
X155607463Y-88244471D01*
X155610011Y-88319853D01*
X155610332Y-88388982D01*
X155610332Y-88601782D01*
X155498284Y-88601782D01*
G37*
G36*
X159844460Y-91675452D02*
G01*
X159819022Y-91740685D01*
X159750387Y-91863962D01*
X159643780Y-92014640D01*
X159499253Y-92192658D01*
X159316859Y-92397952D01*
X159316663Y-92398159D01*
X159096652Y-92630461D01*
X158854824Y-92874176D01*
X158517198Y-93198825D01*
X158194007Y-93490828D01*
X157887668Y-93748144D01*
X157600595Y-93968731D01*
X157377022Y-94123549D01*
X157261145Y-94177532D01*
X157135929Y-94192474D01*
X156998567Y-94167754D01*
X156846247Y-94102749D01*
X156676161Y-93996838D01*
X156619783Y-93955898D01*
X156347397Y-93742642D01*
X156068728Y-93506683D01*
X155790037Y-93254321D01*
X155517586Y-92991859D01*
X155257638Y-92725598D01*
X155016455Y-92461839D01*
X154980180Y-92419052D01*
X156704683Y-92419052D01*
X156704711Y-92424682D01*
X156713672Y-92455729D01*
X156736398Y-92521813D01*
X156770295Y-92616090D01*
X156812770Y-92731718D01*
X156861230Y-92861853D01*
X156913080Y-92999654D01*
X156965728Y-93138277D01*
X157016580Y-93270880D01*
X157063043Y-93390620D01*
X157102522Y-93490654D01*
X157132426Y-93564139D01*
X157150159Y-93604233D01*
X157153793Y-93609565D01*
X157163686Y-93586056D01*
X157186027Y-93526202D01*
X157217912Y-93437982D01*
X157256439Y-93329373D01*
X157274680Y-93277373D01*
X157326053Y-93131042D01*
X157382475Y-92971322D01*
X157437187Y-92817297D01*
X157483428Y-92688049D01*
X157484358Y-92685463D01*
X157521566Y-92580472D01*
X157552062Y-92491370D01*
X157572721Y-92427511D01*
X157580414Y-92398249D01*
X157580415Y-92398159D01*
X157559084Y-92387514D01*
X157503534Y-92380138D01*
X157436456Y-92377775D01*
X157292497Y-92377775D01*
X157306616Y-92231191D01*
X157312163Y-92158920D01*
X157318654Y-92050869D01*
X157325506Y-91918141D01*
X157332137Y-91771838D01*
X157336739Y-91656584D01*
X157352743Y-91228560D01*
X157165594Y-91228560D01*
X157076981Y-91229696D01*
X157008336Y-91232714D01*
X156971561Y-91237023D01*
X156968673Y-91238299D01*
X156966197Y-91263949D01*
X156966029Y-91327844D01*
X156968031Y-91421383D01*
X156972069Y-91535968D01*
X156974153Y-91584236D01*
X156980539Y-91729903D01*
X156986844Y-91882292D01*
X156992368Y-92023920D01*
X156996407Y-92137305D01*
X156996600Y-92143241D01*
X157003795Y-92366048D01*
X156852354Y-92377775D01*
X156766751Y-92387088D01*
X156720155Y-92400012D01*
X156704683Y-92419052D01*
X154980180Y-92419052D01*
X154800299Y-92206884D01*
X154615432Y-91967036D01*
X154547301Y-91870382D01*
X154472294Y-91749336D01*
X154430388Y-91649153D01*
X154419845Y-91559289D01*
X154428955Y-91516281D01*
X155618365Y-91516281D01*
X155619330Y-91578532D01*
X155648804Y-91652970D01*
X155707604Y-91734073D01*
X155783081Y-91807571D01*
X155862584Y-91859193D01*
X155871646Y-91863179D01*
X155922863Y-91892125D01*
X155936668Y-91917049D01*
X155910920Y-91931088D01*
X155893157Y-91932161D01*
X155849280Y-91941438D01*
X155835057Y-91952511D01*
X155850441Y-91965855D01*
X155902295Y-91984037D01*
X155980871Y-92003901D01*
X156017697Y-92011630D01*
X156134595Y-92036454D01*
X156258133Y-92065219D01*
X156362756Y-92091959D01*
X156368369Y-92093506D01*
X156447260Y-92113673D01*
X156506485Y-92125608D01*
X156533590Y-92126815D01*
X156533793Y-92126644D01*
X156530297Y-92102710D01*
X156514048Y-92049418D01*
X156490149Y-91980785D01*
X156463705Y-91910826D01*
X156439823Y-91853557D01*
X156423605Y-91822996D01*
X156422932Y-91822262D01*
X156396890Y-91821701D01*
X156340705Y-91830340D01*
X156303756Y-91838000D01*
X156234741Y-91850055D01*
X156180054Y-91846724D01*
X156118372Y-91824758D01*
X156071974Y-91802687D01*
X155956575Y-91732323D01*
X155887607Y-91658270D01*
X155865176Y-91580858D01*
X155889390Y-91500414D01*
X155950212Y-91426577D01*
X156033603Y-91364025D01*
X156145129Y-91309380D01*
X156291042Y-91260118D01*
X156477594Y-91213718D01*
X156478107Y-91213606D01*
X156622382Y-91190481D01*
X156799108Y-91175332D01*
X156995879Y-91168049D01*
X157200291Y-91168521D01*
X157399940Y-91176637D01*
X157582422Y-91192288D01*
X157735331Y-91215362D01*
X157779769Y-91225221D01*
X157950542Y-91273480D01*
X158079621Y-91324357D01*
X158172218Y-91380547D01*
X158233544Y-91444746D01*
X158247110Y-91466858D01*
X158292291Y-91549772D01*
X158237664Y-91626488D01*
X158145552Y-91720735D01*
X158016379Y-91801797D01*
X157859344Y-91864247D01*
X157812308Y-91877485D01*
X157733190Y-91899485D01*
X157675769Y-91918543D01*
X157651465Y-91930827D01*
X157651293Y-91931492D01*
X157670447Y-91950762D01*
X157719844Y-91985841D01*
X157788531Y-92030100D01*
X157865559Y-92076912D01*
X157939975Y-92119650D01*
X158000830Y-92151686D01*
X158037171Y-92166392D01*
X158039929Y-92166695D01*
X158091530Y-92157269D01*
X158172775Y-92132198D01*
X158271098Y-92096293D01*
X158373930Y-92054364D01*
X158468706Y-92011221D01*
X158530628Y-91978867D01*
X158620402Y-91917804D01*
X158710188Y-91841656D01*
X158752120Y-91798695D01*
X158823320Y-91692947D01*
X158848550Y-91590805D01*
X158828658Y-91492965D01*
X158764491Y-91400123D01*
X158656895Y-91312975D01*
X158506719Y-91232216D01*
X158314809Y-91158544D01*
X158082012Y-91092652D01*
X157826675Y-91038435D01*
X157685036Y-91019534D01*
X157509227Y-91007163D01*
X157311514Y-91001209D01*
X157104162Y-91001556D01*
X156899435Y-91008090D01*
X156709599Y-91020696D01*
X156546918Y-91039259D01*
X156478107Y-91051034D01*
X156231290Y-91108672D01*
X156024252Y-91175275D01*
X155858216Y-91250089D01*
X155734407Y-91332363D01*
X155654049Y-91421344D01*
X155618365Y-91516281D01*
X154428955Y-91516281D01*
X154438928Y-91469199D01*
X154469610Y-91399114D01*
X154553139Y-91257304D01*
X154671662Y-91090933D01*
X154822369Y-90903212D01*
X155002453Y-90697350D01*
X155209105Y-90476558D01*
X155439515Y-90244046D01*
X155690876Y-90003025D01*
X155692419Y-90001580D01*
X155895763Y-89815299D01*
X155941136Y-89775458D01*
X156894676Y-89775458D01*
X156895999Y-89839011D01*
X156898960Y-89933897D01*
X156903231Y-90052358D01*
X156908481Y-90186636D01*
X156914380Y-90328973D01*
X156920599Y-90471609D01*
X156926807Y-90606787D01*
X156932674Y-90726748D01*
X156937870Y-90823734D01*
X156942066Y-90889986D01*
X156944931Y-90917746D01*
X156944952Y-90917803D01*
X156967683Y-90920406D01*
X157026621Y-90922416D01*
X157111068Y-90923534D01*
X157155004Y-90923666D01*
X157362833Y-90923666D01*
X157378336Y-90519095D01*
X157384490Y-90369803D01*
X157391361Y-90221736D01*
X157398305Y-90087636D01*
X157404676Y-89980245D01*
X157407870Y-89935026D01*
X157413920Y-89843449D01*
X157413304Y-89788218D01*
X157404423Y-89759047D01*
X157385677Y-89745650D01*
X157378029Y-89743208D01*
X157336554Y-89738121D01*
X157265401Y-89735372D01*
X157176933Y-89734761D01*
X157083512Y-89736089D01*
X156997503Y-89739156D01*
X156931267Y-89743762D01*
X156897168Y-89749708D01*
X156895324Y-89750997D01*
X156894676Y-89775458D01*
X155941136Y-89775458D01*
X156095978Y-89639496D01*
X156288843Y-89477452D01*
X156470138Y-89332446D01*
X156635642Y-89207756D01*
X156781136Y-89106661D01*
X156902399Y-89032441D01*
X156995210Y-88988375D01*
X156997540Y-88987543D01*
X157073311Y-88963754D01*
X157132180Y-88957027D01*
X157191941Y-88968901D01*
X157270387Y-89000910D01*
X157297628Y-89013459D01*
X157426509Y-89083720D01*
X157581388Y-89185305D01*
X157757581Y-89314060D01*
X157950402Y-89465831D01*
X158155167Y-89636463D01*
X158367191Y-89821802D01*
X158390905Y-89843449D01*
X158581787Y-90017693D01*
X158794271Y-90219983D01*
X158999958Y-90424517D01*
X159194162Y-90627140D01*
X159372199Y-90823698D01*
X159476058Y-90945071D01*
X159608186Y-91106810D01*
X159709917Y-91240377D01*
X159783589Y-91351195D01*
X159831542Y-91444687D01*
X159856113Y-91526279D01*
X159859142Y-91590805D01*
X159859639Y-91601392D01*
X159844460Y-91675452D01*
G37*
G36*
X139005346Y-94254045D02*
G01*
X134549205Y-94254045D01*
X134549205Y-93128283D01*
X137387063Y-93128283D01*
X137387063Y-91909101D01*
X136079538Y-91903041D01*
X134772012Y-91896981D01*
X134767283Y-91339963D01*
X134762554Y-90782946D01*
X137387063Y-90782946D01*
X137387063Y-89516464D01*
X134549205Y-89516464D01*
X134549205Y-88390702D01*
X139005346Y-88390702D01*
X139005346Y-94254045D01*
G37*
G36*
X144376168Y-94254045D02*
G01*
X139920027Y-94254045D01*
X139920027Y-93128283D01*
X142757885Y-93128283D01*
X142757885Y-91908707D01*
X140154561Y-91908707D01*
X140154561Y-90782946D01*
X142757885Y-90782946D01*
X142757885Y-89516464D01*
X139920027Y-89516464D01*
X139920027Y-88390702D01*
X144376168Y-88390702D01*
X144376168Y-94254045D01*
G37*
G36*
X147907687Y-88390819D02*
G01*
X148251160Y-88391189D01*
X148552420Y-88391845D01*
X148813816Y-88392815D01*
X149037695Y-88394132D01*
X149226402Y-88395826D01*
X149382287Y-88397927D01*
X149507696Y-88400466D01*
X149604975Y-88403475D01*
X149676473Y-88406983D01*
X149724536Y-88411021D01*
X149751511Y-88415621D01*
X149759623Y-88420019D01*
X149760980Y-88446745D01*
X149762195Y-88517514D01*
X149763262Y-88629463D01*
X149764175Y-88779727D01*
X149764930Y-88965442D01*
X149765521Y-89183746D01*
X149765945Y-89431774D01*
X149766195Y-89706662D01*
X149766267Y-90005548D01*
X149766155Y-90325566D01*
X149765855Y-90663855D01*
X149765362Y-91017548D01*
X149764750Y-91345827D01*
X149758716Y-94242318D01*
X147524783Y-94248300D01*
X145290849Y-94254281D01*
X145290849Y-93128283D01*
X148152160Y-93128283D01*
X148152160Y-91908707D01*
X145525383Y-91908707D01*
X145525383Y-90783340D01*
X146832908Y-90777279D01*
X148140434Y-90771219D01*
X148140434Y-89528190D01*
X146715641Y-89522145D01*
X145290849Y-89516100D01*
X145290849Y-88390702D01*
X147519655Y-88390702D01*
X147907687Y-88390819D01*
G37*
G36*
X152233047Y-94254660D02*
G01*
X150626491Y-94242318D01*
X150626491Y-88402429D01*
X151429769Y-88396257D01*
X152233047Y-88390086D01*
X152233047Y-94254660D01*
G37*
G36*
X155828911Y-88519759D02*
G01*
X155778864Y-88622822D01*
X155690677Y-88704986D01*
X155670180Y-88718299D01*
X155612011Y-88748464D01*
X155552431Y-88762461D01*
X155472576Y-88763747D01*
X155433482Y-88761653D01*
X155315137Y-88745731D01*
X155233285Y-88714205D01*
X155217741Y-88703775D01*
X155128922Y-88611019D01*
X155077086Y-88499353D01*
X155063843Y-88391804D01*
X155167952Y-88391804D01*
X155187565Y-88500272D01*
X155211552Y-88549315D01*
X155284945Y-88631072D01*
X155376289Y-88676939D01*
X155475368Y-88688014D01*
X155571967Y-88665394D01*
X155655870Y-88610178D01*
X155716862Y-88523462D01*
X155728413Y-88493776D01*
X155745060Y-88379912D01*
X155723043Y-88272466D01*
X155666725Y-88182372D01*
X155580473Y-88120567D01*
X155579245Y-88120030D01*
X155475780Y-88089929D01*
X155382643Y-88098834D01*
X155326690Y-88122127D01*
X155240720Y-88190839D01*
X155186739Y-88284695D01*
X155167952Y-88391804D01*
X155063843Y-88391804D01*
X155062231Y-88378721D01*
X155084359Y-88259066D01*
X155143470Y-88150334D01*
X155217741Y-88077628D01*
X155299521Y-88039647D01*
X155406273Y-88020436D01*
X155519626Y-88020838D01*
X155621205Y-88041696D01*
X155657239Y-88057463D01*
X155758478Y-88135130D01*
X155820390Y-88237181D01*
X155844367Y-88366072D01*
X155844622Y-88379912D01*
X155844778Y-88388307D01*
X155828911Y-88519759D01*
G37*
G36*
X161029104Y-91695676D02*
G01*
X161028955Y-91695957D01*
X161002682Y-91723269D01*
X160944728Y-91771402D01*
X160862214Y-91834819D01*
X160762261Y-91907986D01*
X160694744Y-91955756D01*
X160079518Y-92410049D01*
X159494221Y-92893346D01*
X158935022Y-93409270D01*
X158398090Y-93961443D01*
X157879592Y-94553486D01*
X157654795Y-94829444D01*
X157528336Y-94986412D01*
X157425599Y-95108964D01*
X157342386Y-95200376D01*
X157274498Y-95263924D01*
X157217736Y-95302884D01*
X157167902Y-95320530D01*
X157120797Y-95320139D01*
X157072221Y-95304986D01*
X157055107Y-95297283D01*
X156994273Y-95255520D01*
X156920138Y-95180310D01*
X156829198Y-95067971D01*
X156801155Y-95030590D01*
X156544490Y-94698603D01*
X156262442Y-94362225D01*
X155950041Y-94015785D01*
X155602318Y-93653613D01*
X155534906Y-93585623D01*
X155203652Y-93260060D01*
X154889756Y-92966800D01*
X154584926Y-92698871D01*
X154280871Y-92449306D01*
X153969300Y-92211133D01*
X153641921Y-91977381D01*
X153533016Y-91902749D01*
X153421918Y-91825495D01*
X153344083Y-91766150D01*
X153292579Y-91718451D01*
X153260471Y-91676136D01*
X153243974Y-91641644D01*
X153233124Y-91587793D01*
X154240638Y-91587793D01*
X154264132Y-91686001D01*
X154318944Y-91794936D01*
X154405293Y-91923560D01*
X154477330Y-92020512D01*
X154783210Y-92400556D01*
X155125408Y-92783814D01*
X155494926Y-93161384D01*
X155882767Y-93524365D01*
X156279934Y-93863855D01*
X156571262Y-94092245D01*
X156725616Y-94201700D01*
X156857539Y-94279092D01*
X156975060Y-94328030D01*
X157086205Y-94352123D01*
X157158254Y-94356171D01*
X157215260Y-94353084D01*
X157270450Y-94341542D01*
X157330301Y-94318015D01*
X157401292Y-94278973D01*
X157489902Y-94220885D01*
X157602609Y-94140219D01*
X157734005Y-94042390D01*
X157962869Y-93863879D01*
X158201163Y-93666235D01*
X158443977Y-93454304D01*
X158686405Y-93232928D01*
X158923540Y-93006952D01*
X159150473Y-92781221D01*
X159362298Y-92560577D01*
X159554107Y-92349866D01*
X159720992Y-92153932D01*
X159858047Y-91977619D01*
X159928687Y-91876021D01*
X159986987Y-91781094D01*
X160027456Y-91696313D01*
X160048426Y-91616355D01*
X160048228Y-91535900D01*
X160025193Y-91449626D01*
X159977653Y-91352210D01*
X159903937Y-91238333D01*
X159802379Y-91102671D01*
X159671308Y-90939904D01*
X159612984Y-90869319D01*
X159441384Y-90671131D01*
X159247114Y-90461654D01*
X159035511Y-90245666D01*
X158811914Y-90027946D01*
X158581660Y-89813275D01*
X158350087Y-89606431D01*
X158122531Y-89412194D01*
X157904332Y-89235343D01*
X157700825Y-89080656D01*
X157517350Y-88952914D01*
X157375507Y-88865912D01*
X157233934Y-88806727D01*
X157096313Y-88788267D01*
X156970053Y-88811380D01*
X156954141Y-88817793D01*
X156835986Y-88879668D01*
X156691463Y-88973048D01*
X156524884Y-89093957D01*
X156340558Y-89238417D01*
X156142798Y-89402450D01*
X155935915Y-89582080D01*
X155724218Y-89773329D01*
X155512020Y-89972219D01*
X155303632Y-90174774D01*
X155103364Y-90377016D01*
X154915527Y-90574967D01*
X154744434Y-90764651D01*
X154594394Y-90942090D01*
X154469718Y-91103306D01*
X154455488Y-91123020D01*
X154355888Y-91267927D01*
X154286734Y-91387718D01*
X154248245Y-91491353D01*
X154240638Y-91587793D01*
X153233124Y-91587793D01*
X153226356Y-91554204D01*
X153246756Y-91476145D01*
X153307954Y-91402457D01*
X153412730Y-91328130D01*
X153420546Y-91323492D01*
X153502251Y-91271715D01*
X153612944Y-91196209D01*
X153744999Y-91102570D01*
X153890791Y-90996391D01*
X154042694Y-90883264D01*
X154193082Y-90768785D01*
X154334331Y-90658546D01*
X154414210Y-90594587D01*
X154851812Y-90223251D01*
X155289765Y-89819552D01*
X155718111Y-89393594D01*
X156126893Y-88955483D01*
X156506154Y-88515324D01*
X156696762Y-88278316D01*
X156775730Y-88177149D01*
X156845059Y-88087741D01*
X156899289Y-88017181D01*
X156932959Y-87972555D01*
X156940695Y-87961695D01*
X156992726Y-87905395D01*
X157061329Y-87861183D01*
X157129697Y-87838010D01*
X157169981Y-87839582D01*
X157209121Y-87850014D01*
X157256188Y-87860959D01*
X157295990Y-87880881D01*
X157345519Y-87927963D01*
X157409428Y-88007231D01*
X157471534Y-88093608D01*
X157741019Y-88457193D01*
X158048722Y-88831500D01*
X158388883Y-89210937D01*
X158755741Y-89589909D01*
X159143535Y-89962825D01*
X159546506Y-90324091D01*
X159958894Y-90668115D01*
X160374937Y-90989304D01*
X160676260Y-91205179D01*
X160807463Y-91297072D01*
X160904374Y-91368387D01*
X160972041Y-91424092D01*
X161015510Y-91469155D01*
X161039829Y-91508546D01*
X161050045Y-91547231D01*
X161051514Y-91574563D01*
X161047477Y-91616355D01*
X161044936Y-91642644D01*
X161029104Y-91695676D01*
G37*
D12*
X198410000Y-112970000D02*
G75*
G02*
X196410000Y-112970000I-1000000J0D01*
G01*
X196410000Y-112970000D02*
X194760000Y-112970000D01*
X194760000Y-112970000D02*
X194760000Y-123250000D01*
X194760000Y-123250000D02*
X200060000Y-123250000D01*
X200060000Y-123250000D02*
X200060000Y-112970000D01*
X200060000Y-112970000D02*
X198410000Y-112970000D01*
X154790000Y-118630000D02*
G75*
G02*
X156790000Y-118630000I1000000J0D01*
G01*
X156790000Y-118630000D02*
X158440000Y-118630000D01*
X158440000Y-118630000D02*
X158440000Y-108350000D01*
X158440000Y-108350000D02*
X153140000Y-108350000D01*
X153140000Y-108350000D02*
X153140000Y-118630000D01*
X153140000Y-118630000D02*
X154790000Y-118630000D01*
X201060000Y-106840000D02*
X201060000Y-107170000D01*
X201060000Y-107170000D02*
X194520000Y-107170000D01*
X194520000Y-107170000D02*
X194520000Y-106840000D01*
X201060000Y-104760000D02*
X201060000Y-104430000D01*
X201060000Y-104430000D02*
X194520000Y-104430000D01*
X194520000Y-104430000D02*
X194520000Y-104760000D01*
X139140000Y-116260000D02*
X139140000Y-115930000D01*
X139140000Y-115930000D02*
X145680000Y-115930000D01*
X145680000Y-115930000D02*
X145680000Y-116260000D01*
X139140000Y-118340000D02*
X139140000Y-118670000D01*
X139140000Y-118670000D02*
X145680000Y-118670000D01*
X145680000Y-118670000D02*
X145680000Y-118340000D01*
X180060000Y-115340000D02*
X180060000Y-115670000D01*
X180060000Y-115670000D02*
X173520000Y-115670000D01*
X173520000Y-115670000D02*
X173520000Y-115340000D01*
X180060000Y-113260000D02*
X180060000Y-112930000D01*
X180060000Y-112930000D02*
X173520000Y-112930000D01*
X173520000Y-112930000D02*
X173520000Y-113260000D01*
X162140000Y-121260000D02*
X162140000Y-120930000D01*
X162140000Y-120930000D02*
X168680000Y-120930000D01*
X168680000Y-120930000D02*
X168680000Y-121260000D01*
X162140000Y-123340000D02*
X162140000Y-123670000D01*
X162140000Y-123670000D02*
X168680000Y-123670000D01*
X168680000Y-123670000D02*
X168680000Y-123340000D01*
X209450000Y-119100000D02*
X209450000Y-115500000D01*
X209438478Y-119138478D02*
G75*
G02*
X205000000Y-117300000I-1838478J1838478D01*
G01*
X209438478Y-115461522D02*
G75*
G03*
X205000000Y-117300000I-1838478J-1838478D01*
G01*
X209450000Y-110370000D02*
X209450000Y-106770000D01*
X209438478Y-110408478D02*
G75*
G02*
X205000000Y-108570000I-1838478J1838478D01*
G01*
X209438478Y-106731522D02*
G75*
G03*
X205000000Y-108570000I-1838478J-1838478D01*
G01*
X179620000Y-105800000D02*
G75*
G03*
X179620000Y-105800000I-3270000J0D01*
G01*
X176350000Y-109030000D02*
X176350000Y-102570000D01*
X176310000Y-109030000D02*
X176310000Y-102570000D01*
X176270000Y-109030000D02*
X176270000Y-102570000D01*
X176230000Y-109028000D02*
X176230000Y-102572000D01*
X176190000Y-109027000D02*
X176190000Y-102573000D01*
X176150000Y-109024000D02*
X176150000Y-102576000D01*
X176110000Y-109022000D02*
X176110000Y-106840000D01*
X176110000Y-104760000D02*
X176110000Y-102578000D01*
X176070000Y-109018000D02*
X176070000Y-106840000D01*
X176070000Y-104760000D02*
X176070000Y-102582000D01*
X176030000Y-109015000D02*
X176030000Y-106840000D01*
X176030000Y-104760000D02*
X176030000Y-102585000D01*
X175990000Y-109011000D02*
X175990000Y-106840000D01*
X175990000Y-104760000D02*
X175990000Y-102589000D01*
X175950000Y-109006000D02*
X175950000Y-106840000D01*
X175950000Y-104760000D02*
X175950000Y-102594000D01*
X175910000Y-109001000D02*
X175910000Y-106840000D01*
X175910000Y-104760000D02*
X175910000Y-102599000D01*
X175870000Y-108995000D02*
X175870000Y-106840000D01*
X175870000Y-104760000D02*
X175870000Y-102605000D01*
X175830000Y-108989000D02*
X175830000Y-106840000D01*
X175830000Y-104760000D02*
X175830000Y-102611000D01*
X175790000Y-108982000D02*
X175790000Y-106840000D01*
X175790000Y-104760000D02*
X175790000Y-102618000D01*
X175750000Y-108975000D02*
X175750000Y-106840000D01*
X175750000Y-104760000D02*
X175750000Y-102625000D01*
X175710000Y-108967000D02*
X175710000Y-106840000D01*
X175710000Y-104760000D02*
X175710000Y-102633000D01*
X175670000Y-108959000D02*
X175670000Y-106840000D01*
X175670000Y-104760000D02*
X175670000Y-102641000D01*
X175629000Y-108950000D02*
X175629000Y-106840000D01*
X175629000Y-104760000D02*
X175629000Y-102650000D01*
X175589000Y-108941000D02*
X175589000Y-106840000D01*
X175589000Y-104760000D02*
X175589000Y-102659000D01*
X175549000Y-108931000D02*
X175549000Y-106840000D01*
X175549000Y-104760000D02*
X175549000Y-102669000D01*
X175509000Y-108921000D02*
X175509000Y-106840000D01*
X175509000Y-104760000D02*
X175509000Y-102679000D01*
X175469000Y-108910000D02*
X175469000Y-106840000D01*
X175469000Y-104760000D02*
X175469000Y-102690000D01*
X175429000Y-108898000D02*
X175429000Y-106840000D01*
X175429000Y-104760000D02*
X175429000Y-102702000D01*
X175389000Y-108886000D02*
X175389000Y-106840000D01*
X175389000Y-104760000D02*
X175389000Y-102714000D01*
X175349000Y-108874000D02*
X175349000Y-106840000D01*
X175349000Y-104760000D02*
X175349000Y-102726000D01*
X175309000Y-108861000D02*
X175309000Y-106840000D01*
X175309000Y-104760000D02*
X175309000Y-102739000D01*
X175269000Y-108847000D02*
X175269000Y-106840000D01*
X175269000Y-104760000D02*
X175269000Y-102753000D01*
X175229000Y-108833000D02*
X175229000Y-106840000D01*
X175229000Y-104760000D02*
X175229000Y-102767000D01*
X175189000Y-108818000D02*
X175189000Y-106840000D01*
X175189000Y-104760000D02*
X175189000Y-102782000D01*
X175149000Y-108802000D02*
X175149000Y-106840000D01*
X175149000Y-104760000D02*
X175149000Y-102798000D01*
X175109000Y-108786000D02*
X175109000Y-106840000D01*
X175109000Y-104760000D02*
X175109000Y-102814000D01*
X175069000Y-108770000D02*
X175069000Y-106840000D01*
X175069000Y-104760000D02*
X175069000Y-102830000D01*
X175029000Y-108752000D02*
X175029000Y-106840000D01*
X175029000Y-104760000D02*
X175029000Y-102848000D01*
X174989000Y-108734000D02*
X174989000Y-106840000D01*
X174989000Y-104760000D02*
X174989000Y-102866000D01*
X174949000Y-108716000D02*
X174949000Y-106840000D01*
X174949000Y-104760000D02*
X174949000Y-102884000D01*
X174909000Y-108696000D02*
X174909000Y-106840000D01*
X174909000Y-104760000D02*
X174909000Y-102904000D01*
X174869000Y-108676000D02*
X174869000Y-106840000D01*
X174869000Y-104760000D02*
X174869000Y-102924000D01*
X174829000Y-108656000D02*
X174829000Y-106840000D01*
X174829000Y-104760000D02*
X174829000Y-102944000D01*
X174789000Y-108634000D02*
X174789000Y-106840000D01*
X174789000Y-104760000D02*
X174789000Y-102966000D01*
X174749000Y-108612000D02*
X174749000Y-106840000D01*
X174749000Y-104760000D02*
X174749000Y-102988000D01*
X174709000Y-108590000D02*
X174709000Y-106840000D01*
X174709000Y-104760000D02*
X174709000Y-103010000D01*
X174669000Y-108566000D02*
X174669000Y-106840000D01*
X174669000Y-104760000D02*
X174669000Y-103034000D01*
X174629000Y-108542000D02*
X174629000Y-106840000D01*
X174629000Y-104760000D02*
X174629000Y-103058000D01*
X174589000Y-108516000D02*
X174589000Y-106840000D01*
X174589000Y-104760000D02*
X174589000Y-103084000D01*
X174549000Y-108490000D02*
X174549000Y-106840000D01*
X174549000Y-104760000D02*
X174549000Y-103110000D01*
X174509000Y-108464000D02*
X174509000Y-106840000D01*
X174509000Y-104760000D02*
X174509000Y-103136000D01*
X174469000Y-108436000D02*
X174469000Y-106840000D01*
X174469000Y-104760000D02*
X174469000Y-103164000D01*
X174429000Y-108407000D02*
X174429000Y-106840000D01*
X174429000Y-104760000D02*
X174429000Y-103193000D01*
X174389000Y-108378000D02*
X174389000Y-106840000D01*
X174389000Y-104760000D02*
X174389000Y-103222000D01*
X174349000Y-108348000D02*
X174349000Y-106840000D01*
X174349000Y-104760000D02*
X174349000Y-103252000D01*
X174309000Y-108316000D02*
X174309000Y-106840000D01*
X174309000Y-104760000D02*
X174309000Y-103284000D01*
X174269000Y-108284000D02*
X174269000Y-106840000D01*
X174269000Y-104760000D02*
X174269000Y-103316000D01*
X174229000Y-108250000D02*
X174229000Y-106840000D01*
X174229000Y-104760000D02*
X174229000Y-103350000D01*
X174189000Y-108216000D02*
X174189000Y-106840000D01*
X174189000Y-104760000D02*
X174189000Y-103384000D01*
X174149000Y-108180000D02*
X174149000Y-106840000D01*
X174149000Y-104760000D02*
X174149000Y-103420000D01*
X174109000Y-108143000D02*
X174109000Y-106840000D01*
X174109000Y-104760000D02*
X174109000Y-103457000D01*
X174069000Y-108105000D02*
X174069000Y-106840000D01*
X174069000Y-104760000D02*
X174069000Y-103495000D01*
X174029000Y-108065000D02*
X174029000Y-103535000D01*
X173989000Y-108024000D02*
X173989000Y-103576000D01*
X173949000Y-107982000D02*
X173949000Y-103618000D01*
X173909000Y-107937000D02*
X173909000Y-103663000D01*
X173869000Y-107892000D02*
X173869000Y-103708000D01*
X173829000Y-107844000D02*
X173829000Y-103756000D01*
X173789000Y-107795000D02*
X173789000Y-103805000D01*
X173749000Y-107744000D02*
X173749000Y-103856000D01*
X173709000Y-107690000D02*
X173709000Y-103910000D01*
X173669000Y-107634000D02*
X173669000Y-103966000D01*
X173629000Y-107576000D02*
X173629000Y-104024000D01*
X173589000Y-107514000D02*
X173589000Y-104086000D01*
X173549000Y-107450000D02*
X173549000Y-104150000D01*
X173509000Y-107381000D02*
X173509000Y-104219000D01*
X173469000Y-107309000D02*
X173469000Y-104291000D01*
X173429000Y-107232000D02*
X173429000Y-104368000D01*
X173389000Y-107150000D02*
X173389000Y-104450000D01*
X173349000Y-107062000D02*
X173349000Y-104538000D01*
X173309000Y-106965000D02*
X173309000Y-104635000D01*
X173269000Y-106859000D02*
X173269000Y-104741000D01*
X173229000Y-106740000D02*
X173229000Y-104860000D01*
X173189000Y-106602000D02*
X173189000Y-104998000D01*
X173149000Y-106433000D02*
X173149000Y-105167000D01*
X173109000Y-106202000D02*
X173109000Y-105398000D01*
X179850241Y-107639000D02*
X179220241Y-107639000D01*
X179535241Y-107954000D02*
X179535241Y-107324000D01*
X189870000Y-113550000D02*
G75*
G03*
X189870000Y-113550000I-3270000J0D01*
G01*
X189830000Y-113550000D02*
X183370000Y-113550000D01*
X189830000Y-113590000D02*
X183370000Y-113590000D01*
X189830000Y-113630000D02*
X183370000Y-113630000D01*
X189828000Y-113670000D02*
X183372000Y-113670000D01*
X189827000Y-113710000D02*
X183373000Y-113710000D01*
X189824000Y-113750000D02*
X183376000Y-113750000D01*
X189822000Y-113790000D02*
X187640000Y-113790000D01*
X185560000Y-113790000D02*
X183378000Y-113790000D01*
X189818000Y-113830000D02*
X187640000Y-113830000D01*
X185560000Y-113830000D02*
X183382000Y-113830000D01*
X189815000Y-113870000D02*
X187640000Y-113870000D01*
X185560000Y-113870000D02*
X183385000Y-113870000D01*
X189811000Y-113910000D02*
X187640000Y-113910000D01*
X185560000Y-113910000D02*
X183389000Y-113910000D01*
X189806000Y-113950000D02*
X187640000Y-113950000D01*
X185560000Y-113950000D02*
X183394000Y-113950000D01*
X189801000Y-113990000D02*
X187640000Y-113990000D01*
X185560000Y-113990000D02*
X183399000Y-113990000D01*
X189795000Y-114030000D02*
X187640000Y-114030000D01*
X185560000Y-114030000D02*
X183405000Y-114030000D01*
X189789000Y-114070000D02*
X187640000Y-114070000D01*
X185560000Y-114070000D02*
X183411000Y-114070000D01*
X189782000Y-114110000D02*
X187640000Y-114110000D01*
X185560000Y-114110000D02*
X183418000Y-114110000D01*
X189775000Y-114150000D02*
X187640000Y-114150000D01*
X185560000Y-114150000D02*
X183425000Y-114150000D01*
X189767000Y-114190000D02*
X187640000Y-114190000D01*
X185560000Y-114190000D02*
X183433000Y-114190000D01*
X189759000Y-114230000D02*
X187640000Y-114230000D01*
X185560000Y-114230000D02*
X183441000Y-114230000D01*
X189750000Y-114271000D02*
X187640000Y-114271000D01*
X185560000Y-114271000D02*
X183450000Y-114271000D01*
X189741000Y-114311000D02*
X187640000Y-114311000D01*
X185560000Y-114311000D02*
X183459000Y-114311000D01*
X189731000Y-114351000D02*
X187640000Y-114351000D01*
X185560000Y-114351000D02*
X183469000Y-114351000D01*
X189721000Y-114391000D02*
X187640000Y-114391000D01*
X185560000Y-114391000D02*
X183479000Y-114391000D01*
X189710000Y-114431000D02*
X187640000Y-114431000D01*
X185560000Y-114431000D02*
X183490000Y-114431000D01*
X189698000Y-114471000D02*
X187640000Y-114471000D01*
X185560000Y-114471000D02*
X183502000Y-114471000D01*
X189686000Y-114511000D02*
X187640000Y-114511000D01*
X185560000Y-114511000D02*
X183514000Y-114511000D01*
X189674000Y-114551000D02*
X187640000Y-114551000D01*
X185560000Y-114551000D02*
X183526000Y-114551000D01*
X189661000Y-114591000D02*
X187640000Y-114591000D01*
X185560000Y-114591000D02*
X183539000Y-114591000D01*
X189647000Y-114631000D02*
X187640000Y-114631000D01*
X185560000Y-114631000D02*
X183553000Y-114631000D01*
X189633000Y-114671000D02*
X187640000Y-114671000D01*
X185560000Y-114671000D02*
X183567000Y-114671000D01*
X189618000Y-114711000D02*
X187640000Y-114711000D01*
X185560000Y-114711000D02*
X183582000Y-114711000D01*
X189602000Y-114751000D02*
X187640000Y-114751000D01*
X185560000Y-114751000D02*
X183598000Y-114751000D01*
X189586000Y-114791000D02*
X187640000Y-114791000D01*
X185560000Y-114791000D02*
X183614000Y-114791000D01*
X189570000Y-114831000D02*
X187640000Y-114831000D01*
X185560000Y-114831000D02*
X183630000Y-114831000D01*
X189552000Y-114871000D02*
X187640000Y-114871000D01*
X185560000Y-114871000D02*
X183648000Y-114871000D01*
X189534000Y-114911000D02*
X187640000Y-114911000D01*
X185560000Y-114911000D02*
X183666000Y-114911000D01*
X189516000Y-114951000D02*
X187640000Y-114951000D01*
X185560000Y-114951000D02*
X183684000Y-114951000D01*
X189496000Y-114991000D02*
X187640000Y-114991000D01*
X185560000Y-114991000D02*
X183704000Y-114991000D01*
X189476000Y-115031000D02*
X187640000Y-115031000D01*
X185560000Y-115031000D02*
X183724000Y-115031000D01*
X189456000Y-115071000D02*
X187640000Y-115071000D01*
X185560000Y-115071000D02*
X183744000Y-115071000D01*
X189434000Y-115111000D02*
X187640000Y-115111000D01*
X185560000Y-115111000D02*
X183766000Y-115111000D01*
X189412000Y-115151000D02*
X187640000Y-115151000D01*
X185560000Y-115151000D02*
X183788000Y-115151000D01*
X189390000Y-115191000D02*
X187640000Y-115191000D01*
X185560000Y-115191000D02*
X183810000Y-115191000D01*
X189366000Y-115231000D02*
X187640000Y-115231000D01*
X185560000Y-115231000D02*
X183834000Y-115231000D01*
X189342000Y-115271000D02*
X187640000Y-115271000D01*
X185560000Y-115271000D02*
X183858000Y-115271000D01*
X189316000Y-115311000D02*
X187640000Y-115311000D01*
X185560000Y-115311000D02*
X183884000Y-115311000D01*
X189290000Y-115351000D02*
X187640000Y-115351000D01*
X185560000Y-115351000D02*
X183910000Y-115351000D01*
X189264000Y-115391000D02*
X187640000Y-115391000D01*
X185560000Y-115391000D02*
X183936000Y-115391000D01*
X189236000Y-115431000D02*
X187640000Y-115431000D01*
X185560000Y-115431000D02*
X183964000Y-115431000D01*
X189207000Y-115471000D02*
X187640000Y-115471000D01*
X185560000Y-115471000D02*
X183993000Y-115471000D01*
X189178000Y-115511000D02*
X187640000Y-115511000D01*
X185560000Y-115511000D02*
X184022000Y-115511000D01*
X189148000Y-115551000D02*
X187640000Y-115551000D01*
X185560000Y-115551000D02*
X184052000Y-115551000D01*
X189116000Y-115591000D02*
X187640000Y-115591000D01*
X185560000Y-115591000D02*
X184084000Y-115591000D01*
X189084000Y-115631000D02*
X187640000Y-115631000D01*
X185560000Y-115631000D02*
X184116000Y-115631000D01*
X189050000Y-115671000D02*
X187640000Y-115671000D01*
X185560000Y-115671000D02*
X184150000Y-115671000D01*
X189016000Y-115711000D02*
X187640000Y-115711000D01*
X185560000Y-115711000D02*
X184184000Y-115711000D01*
X188980000Y-115751000D02*
X187640000Y-115751000D01*
X185560000Y-115751000D02*
X184220000Y-115751000D01*
X188943000Y-115791000D02*
X187640000Y-115791000D01*
X185560000Y-115791000D02*
X184257000Y-115791000D01*
X188905000Y-115831000D02*
X187640000Y-115831000D01*
X185560000Y-115831000D02*
X184295000Y-115831000D01*
X188865000Y-115871000D02*
X184335000Y-115871000D01*
X188824000Y-115911000D02*
X184376000Y-115911000D01*
X188782000Y-115951000D02*
X184418000Y-115951000D01*
X188737000Y-115991000D02*
X184463000Y-115991000D01*
X188692000Y-116031000D02*
X184508000Y-116031000D01*
X188644000Y-116071000D02*
X184556000Y-116071000D01*
X188595000Y-116111000D02*
X184605000Y-116111000D01*
X188544000Y-116151000D02*
X184656000Y-116151000D01*
X188490000Y-116191000D02*
X184710000Y-116191000D01*
X188434000Y-116231000D02*
X184766000Y-116231000D01*
X188376000Y-116271000D02*
X184824000Y-116271000D01*
X188314000Y-116311000D02*
X184886000Y-116311000D01*
X188250000Y-116351000D02*
X184950000Y-116351000D01*
X188181000Y-116391000D02*
X185019000Y-116391000D01*
X188109000Y-116431000D02*
X185091000Y-116431000D01*
X188032000Y-116471000D02*
X185168000Y-116471000D01*
X187950000Y-116511000D02*
X185250000Y-116511000D01*
X187862000Y-116551000D02*
X185338000Y-116551000D01*
X187765000Y-116591000D02*
X185435000Y-116591000D01*
X187659000Y-116631000D02*
X185541000Y-116631000D01*
X187540000Y-116671000D02*
X185660000Y-116671000D01*
X187402000Y-116711000D02*
X185798000Y-116711000D01*
X187233000Y-116751000D02*
X185967000Y-116751000D01*
X187002000Y-116791000D02*
X186198000Y-116791000D01*
X188439000Y-110049759D02*
X188439000Y-110679759D01*
X188754000Y-110364759D02*
X188124000Y-110364759D01*
X169870000Y-114050000D02*
G75*
G03*
X169870000Y-114050000I-3270000J0D01*
G01*
X163370000Y-114050000D02*
X169830000Y-114050000D01*
X163370000Y-114010000D02*
X169830000Y-114010000D01*
X163370000Y-113970000D02*
X169830000Y-113970000D01*
X163372000Y-113930000D02*
X169828000Y-113930000D01*
X163373000Y-113890000D02*
X169827000Y-113890000D01*
X163376000Y-113850000D02*
X169824000Y-113850000D01*
X163378000Y-113810000D02*
X165560000Y-113810000D01*
X167640000Y-113810000D02*
X169822000Y-113810000D01*
X163382000Y-113770000D02*
X165560000Y-113770000D01*
X167640000Y-113770000D02*
X169818000Y-113770000D01*
X163385000Y-113730000D02*
X165560000Y-113730000D01*
X167640000Y-113730000D02*
X169815000Y-113730000D01*
X163389000Y-113690000D02*
X165560000Y-113690000D01*
X167640000Y-113690000D02*
X169811000Y-113690000D01*
X163394000Y-113650000D02*
X165560000Y-113650000D01*
X167640000Y-113650000D02*
X169806000Y-113650000D01*
X163399000Y-113610000D02*
X165560000Y-113610000D01*
X167640000Y-113610000D02*
X169801000Y-113610000D01*
X163405000Y-113570000D02*
X165560000Y-113570000D01*
X167640000Y-113570000D02*
X169795000Y-113570000D01*
X163411000Y-113530000D02*
X165560000Y-113530000D01*
X167640000Y-113530000D02*
X169789000Y-113530000D01*
X163418000Y-113490000D02*
X165560000Y-113490000D01*
X167640000Y-113490000D02*
X169782000Y-113490000D01*
X163425000Y-113450000D02*
X165560000Y-113450000D01*
X167640000Y-113450000D02*
X169775000Y-113450000D01*
X163433000Y-113410000D02*
X165560000Y-113410000D01*
X167640000Y-113410000D02*
X169767000Y-113410000D01*
X163441000Y-113370000D02*
X165560000Y-113370000D01*
X167640000Y-113370000D02*
X169759000Y-113370000D01*
X163450000Y-113329000D02*
X165560000Y-113329000D01*
X167640000Y-113329000D02*
X169750000Y-113329000D01*
X163459000Y-113289000D02*
X165560000Y-113289000D01*
X167640000Y-113289000D02*
X169741000Y-113289000D01*
X163469000Y-113249000D02*
X165560000Y-113249000D01*
X167640000Y-113249000D02*
X169731000Y-113249000D01*
X163479000Y-113209000D02*
X165560000Y-113209000D01*
X167640000Y-113209000D02*
X169721000Y-113209000D01*
X163490000Y-113169000D02*
X165560000Y-113169000D01*
X167640000Y-113169000D02*
X169710000Y-113169000D01*
X163502000Y-113129000D02*
X165560000Y-113129000D01*
X167640000Y-113129000D02*
X169698000Y-113129000D01*
X163514000Y-113089000D02*
X165560000Y-113089000D01*
X167640000Y-113089000D02*
X169686000Y-113089000D01*
X163526000Y-113049000D02*
X165560000Y-113049000D01*
X167640000Y-113049000D02*
X169674000Y-113049000D01*
X163539000Y-113009000D02*
X165560000Y-113009000D01*
X167640000Y-113009000D02*
X169661000Y-113009000D01*
X163553000Y-112969000D02*
X165560000Y-112969000D01*
X167640000Y-112969000D02*
X169647000Y-112969000D01*
X163567000Y-112929000D02*
X165560000Y-112929000D01*
X167640000Y-112929000D02*
X169633000Y-112929000D01*
X163582000Y-112889000D02*
X165560000Y-112889000D01*
X167640000Y-112889000D02*
X169618000Y-112889000D01*
X163598000Y-112849000D02*
X165560000Y-112849000D01*
X167640000Y-112849000D02*
X169602000Y-112849000D01*
X163614000Y-112809000D02*
X165560000Y-112809000D01*
X167640000Y-112809000D02*
X169586000Y-112809000D01*
X163630000Y-112769000D02*
X165560000Y-112769000D01*
X167640000Y-112769000D02*
X169570000Y-112769000D01*
X163648000Y-112729000D02*
X165560000Y-112729000D01*
X167640000Y-112729000D02*
X169552000Y-112729000D01*
X163666000Y-112689000D02*
X165560000Y-112689000D01*
X167640000Y-112689000D02*
X169534000Y-112689000D01*
X163684000Y-112649000D02*
X165560000Y-112649000D01*
X167640000Y-112649000D02*
X169516000Y-112649000D01*
X163704000Y-112609000D02*
X165560000Y-112609000D01*
X167640000Y-112609000D02*
X169496000Y-112609000D01*
X163724000Y-112569000D02*
X165560000Y-112569000D01*
X167640000Y-112569000D02*
X169476000Y-112569000D01*
X163744000Y-112529000D02*
X165560000Y-112529000D01*
X167640000Y-112529000D02*
X169456000Y-112529000D01*
X163766000Y-112489000D02*
X165560000Y-112489000D01*
X167640000Y-112489000D02*
X169434000Y-112489000D01*
X163788000Y-112449000D02*
X165560000Y-112449000D01*
X167640000Y-112449000D02*
X169412000Y-112449000D01*
X163810000Y-112409000D02*
X165560000Y-112409000D01*
X167640000Y-112409000D02*
X169390000Y-112409000D01*
X163834000Y-112369000D02*
X165560000Y-112369000D01*
X167640000Y-112369000D02*
X169366000Y-112369000D01*
X163858000Y-112329000D02*
X165560000Y-112329000D01*
X167640000Y-112329000D02*
X169342000Y-112329000D01*
X163884000Y-112289000D02*
X165560000Y-112289000D01*
X167640000Y-112289000D02*
X169316000Y-112289000D01*
X163910000Y-112249000D02*
X165560000Y-112249000D01*
X167640000Y-112249000D02*
X169290000Y-112249000D01*
X163936000Y-112209000D02*
X165560000Y-112209000D01*
X167640000Y-112209000D02*
X169264000Y-112209000D01*
X163964000Y-112169000D02*
X165560000Y-112169000D01*
X167640000Y-112169000D02*
X169236000Y-112169000D01*
X163993000Y-112129000D02*
X165560000Y-112129000D01*
X167640000Y-112129000D02*
X169207000Y-112129000D01*
X164022000Y-112089000D02*
X165560000Y-112089000D01*
X167640000Y-112089000D02*
X169178000Y-112089000D01*
X164052000Y-112049000D02*
X165560000Y-112049000D01*
X167640000Y-112049000D02*
X169148000Y-112049000D01*
X164084000Y-112009000D02*
X165560000Y-112009000D01*
X167640000Y-112009000D02*
X169116000Y-112009000D01*
X164116000Y-111969000D02*
X165560000Y-111969000D01*
X167640000Y-111969000D02*
X169084000Y-111969000D01*
X164150000Y-111929000D02*
X165560000Y-111929000D01*
X167640000Y-111929000D02*
X169050000Y-111929000D01*
X164184000Y-111889000D02*
X165560000Y-111889000D01*
X167640000Y-111889000D02*
X169016000Y-111889000D01*
X164220000Y-111849000D02*
X165560000Y-111849000D01*
X167640000Y-111849000D02*
X168980000Y-111849000D01*
X164257000Y-111809000D02*
X165560000Y-111809000D01*
X167640000Y-111809000D02*
X168943000Y-111809000D01*
X164295000Y-111769000D02*
X165560000Y-111769000D01*
X167640000Y-111769000D02*
X168905000Y-111769000D01*
X164335000Y-111729000D02*
X168865000Y-111729000D01*
X164376000Y-111689000D02*
X168824000Y-111689000D01*
X164418000Y-111649000D02*
X168782000Y-111649000D01*
X164463000Y-111609000D02*
X168737000Y-111609000D01*
X164508000Y-111569000D02*
X168692000Y-111569000D01*
X164556000Y-111529000D02*
X168644000Y-111529000D01*
X164605000Y-111489000D02*
X168595000Y-111489000D01*
X164656000Y-111449000D02*
X168544000Y-111449000D01*
X164710000Y-111409000D02*
X168490000Y-111409000D01*
X164766000Y-111369000D02*
X168434000Y-111369000D01*
X164824000Y-111329000D02*
X168376000Y-111329000D01*
X164886000Y-111289000D02*
X168314000Y-111289000D01*
X164950000Y-111249000D02*
X168250000Y-111249000D01*
X165019000Y-111209000D02*
X168181000Y-111209000D01*
X165091000Y-111169000D02*
X168109000Y-111169000D01*
X165168000Y-111129000D02*
X168032000Y-111129000D01*
X165250000Y-111089000D02*
X167950000Y-111089000D01*
X165338000Y-111049000D02*
X167862000Y-111049000D01*
X165435000Y-111009000D02*
X167765000Y-111009000D01*
X165541000Y-110969000D02*
X167659000Y-110969000D01*
X165660000Y-110929000D02*
X167540000Y-110929000D01*
X165798000Y-110889000D02*
X167402000Y-110889000D01*
X165967000Y-110849000D02*
X167233000Y-110849000D01*
X166198000Y-110809000D02*
X167002000Y-110809000D01*
X164761000Y-117550241D02*
X164761000Y-116920241D01*
X164446000Y-117235241D02*
X165076000Y-117235241D01*
X145870000Y-110550000D02*
G75*
G03*
X145870000Y-110550000I-3270000J0D01*
G01*
X145830000Y-110550000D02*
X139370000Y-110550000D01*
X145830000Y-110590000D02*
X139370000Y-110590000D01*
X145830000Y-110630000D02*
X139370000Y-110630000D01*
X145828000Y-110670000D02*
X139372000Y-110670000D01*
X145827000Y-110710000D02*
X139373000Y-110710000D01*
X145824000Y-110750000D02*
X139376000Y-110750000D01*
X145822000Y-110790000D02*
X143640000Y-110790000D01*
X141560000Y-110790000D02*
X139378000Y-110790000D01*
X145818000Y-110830000D02*
X143640000Y-110830000D01*
X141560000Y-110830000D02*
X139382000Y-110830000D01*
X145815000Y-110870000D02*
X143640000Y-110870000D01*
X141560000Y-110870000D02*
X139385000Y-110870000D01*
X145811000Y-110910000D02*
X143640000Y-110910000D01*
X141560000Y-110910000D02*
X139389000Y-110910000D01*
X145806000Y-110950000D02*
X143640000Y-110950000D01*
X141560000Y-110950000D02*
X139394000Y-110950000D01*
X145801000Y-110990000D02*
X143640000Y-110990000D01*
X141560000Y-110990000D02*
X139399000Y-110990000D01*
X145795000Y-111030000D02*
X143640000Y-111030000D01*
X141560000Y-111030000D02*
X139405000Y-111030000D01*
X145789000Y-111070000D02*
X143640000Y-111070000D01*
X141560000Y-111070000D02*
X139411000Y-111070000D01*
X145782000Y-111110000D02*
X143640000Y-111110000D01*
X141560000Y-111110000D02*
X139418000Y-111110000D01*
X145775000Y-111150000D02*
X143640000Y-111150000D01*
X141560000Y-111150000D02*
X139425000Y-111150000D01*
X145767000Y-111190000D02*
X143640000Y-111190000D01*
X141560000Y-111190000D02*
X139433000Y-111190000D01*
X145759000Y-111230000D02*
X143640000Y-111230000D01*
X141560000Y-111230000D02*
X139441000Y-111230000D01*
X145750000Y-111271000D02*
X143640000Y-111271000D01*
X141560000Y-111271000D02*
X139450000Y-111271000D01*
X145741000Y-111311000D02*
X143640000Y-111311000D01*
X141560000Y-111311000D02*
X139459000Y-111311000D01*
X145731000Y-111351000D02*
X143640000Y-111351000D01*
X141560000Y-111351000D02*
X139469000Y-111351000D01*
X145721000Y-111391000D02*
X143640000Y-111391000D01*
X141560000Y-111391000D02*
X139479000Y-111391000D01*
X145710000Y-111431000D02*
X143640000Y-111431000D01*
X141560000Y-111431000D02*
X139490000Y-111431000D01*
X145698000Y-111471000D02*
X143640000Y-111471000D01*
X141560000Y-111471000D02*
X139502000Y-111471000D01*
X145686000Y-111511000D02*
X143640000Y-111511000D01*
X141560000Y-111511000D02*
X139514000Y-111511000D01*
X145674000Y-111551000D02*
X143640000Y-111551000D01*
X141560000Y-111551000D02*
X139526000Y-111551000D01*
X145661000Y-111591000D02*
X143640000Y-111591000D01*
X141560000Y-111591000D02*
X139539000Y-111591000D01*
X145647000Y-111631000D02*
X143640000Y-111631000D01*
X141560000Y-111631000D02*
X139553000Y-111631000D01*
X145633000Y-111671000D02*
X143640000Y-111671000D01*
X141560000Y-111671000D02*
X139567000Y-111671000D01*
X145618000Y-111711000D02*
X143640000Y-111711000D01*
X141560000Y-111711000D02*
X139582000Y-111711000D01*
X145602000Y-111751000D02*
X143640000Y-111751000D01*
X141560000Y-111751000D02*
X139598000Y-111751000D01*
X145586000Y-111791000D02*
X143640000Y-111791000D01*
X141560000Y-111791000D02*
X139614000Y-111791000D01*
X145570000Y-111831000D02*
X143640000Y-111831000D01*
X141560000Y-111831000D02*
X139630000Y-111831000D01*
X145552000Y-111871000D02*
X143640000Y-111871000D01*
X141560000Y-111871000D02*
X139648000Y-111871000D01*
X145534000Y-111911000D02*
X143640000Y-111911000D01*
X141560000Y-111911000D02*
X139666000Y-111911000D01*
X145516000Y-111951000D02*
X143640000Y-111951000D01*
X141560000Y-111951000D02*
X139684000Y-111951000D01*
X145496000Y-111991000D02*
X143640000Y-111991000D01*
X141560000Y-111991000D02*
X139704000Y-111991000D01*
X145476000Y-112031000D02*
X143640000Y-112031000D01*
X141560000Y-112031000D02*
X139724000Y-112031000D01*
X145456000Y-112071000D02*
X143640000Y-112071000D01*
X141560000Y-112071000D02*
X139744000Y-112071000D01*
X145434000Y-112111000D02*
X143640000Y-112111000D01*
X141560000Y-112111000D02*
X139766000Y-112111000D01*
X145412000Y-112151000D02*
X143640000Y-112151000D01*
X141560000Y-112151000D02*
X139788000Y-112151000D01*
X145390000Y-112191000D02*
X143640000Y-112191000D01*
X141560000Y-112191000D02*
X139810000Y-112191000D01*
X145366000Y-112231000D02*
X143640000Y-112231000D01*
X141560000Y-112231000D02*
X139834000Y-112231000D01*
X145342000Y-112271000D02*
X143640000Y-112271000D01*
X141560000Y-112271000D02*
X139858000Y-112271000D01*
X145316000Y-112311000D02*
X143640000Y-112311000D01*
X141560000Y-112311000D02*
X139884000Y-112311000D01*
X145290000Y-112351000D02*
X143640000Y-112351000D01*
X141560000Y-112351000D02*
X139910000Y-112351000D01*
X145264000Y-112391000D02*
X143640000Y-112391000D01*
X141560000Y-112391000D02*
X139936000Y-112391000D01*
X145236000Y-112431000D02*
X143640000Y-112431000D01*
X141560000Y-112431000D02*
X139964000Y-112431000D01*
X145207000Y-112471000D02*
X143640000Y-112471000D01*
X141560000Y-112471000D02*
X139993000Y-112471000D01*
X145178000Y-112511000D02*
X143640000Y-112511000D01*
X141560000Y-112511000D02*
X140022000Y-112511000D01*
X145148000Y-112551000D02*
X143640000Y-112551000D01*
X141560000Y-112551000D02*
X140052000Y-112551000D01*
X145116000Y-112591000D02*
X143640000Y-112591000D01*
X141560000Y-112591000D02*
X140084000Y-112591000D01*
X145084000Y-112631000D02*
X143640000Y-112631000D01*
X141560000Y-112631000D02*
X140116000Y-112631000D01*
X145050000Y-112671000D02*
X143640000Y-112671000D01*
X141560000Y-112671000D02*
X140150000Y-112671000D01*
X145016000Y-112711000D02*
X143640000Y-112711000D01*
X141560000Y-112711000D02*
X140184000Y-112711000D01*
X144980000Y-112751000D02*
X143640000Y-112751000D01*
X141560000Y-112751000D02*
X140220000Y-112751000D01*
X144943000Y-112791000D02*
X143640000Y-112791000D01*
X141560000Y-112791000D02*
X140257000Y-112791000D01*
X144905000Y-112831000D02*
X143640000Y-112831000D01*
X141560000Y-112831000D02*
X140295000Y-112831000D01*
X144865000Y-112871000D02*
X140335000Y-112871000D01*
X144824000Y-112911000D02*
X140376000Y-112911000D01*
X144782000Y-112951000D02*
X140418000Y-112951000D01*
X144737000Y-112991000D02*
X140463000Y-112991000D01*
X144692000Y-113031000D02*
X140508000Y-113031000D01*
X144644000Y-113071000D02*
X140556000Y-113071000D01*
X144595000Y-113111000D02*
X140605000Y-113111000D01*
X144544000Y-113151000D02*
X140656000Y-113151000D01*
X144490000Y-113191000D02*
X140710000Y-113191000D01*
X144434000Y-113231000D02*
X140766000Y-113231000D01*
X144376000Y-113271000D02*
X140824000Y-113271000D01*
X144314000Y-113311000D02*
X140886000Y-113311000D01*
X144250000Y-113351000D02*
X140950000Y-113351000D01*
X144181000Y-113391000D02*
X141019000Y-113391000D01*
X144109000Y-113431000D02*
X141091000Y-113431000D01*
X144032000Y-113471000D02*
X141168000Y-113471000D01*
X143950000Y-113511000D02*
X141250000Y-113511000D01*
X143862000Y-113551000D02*
X141338000Y-113551000D01*
X143765000Y-113591000D02*
X141435000Y-113591000D01*
X143659000Y-113631000D02*
X141541000Y-113631000D01*
X143540000Y-113671000D02*
X141660000Y-113671000D01*
X143402000Y-113711000D02*
X141798000Y-113711000D01*
X143233000Y-113751000D02*
X141967000Y-113751000D01*
X143002000Y-113791000D02*
X142198000Y-113791000D01*
X144439000Y-107049759D02*
X144439000Y-107679759D01*
X144754000Y-107364759D02*
X144124000Y-107364759D01*
X198410000Y-112970000D02*
G75*
G02*
X196410000Y-112970000I-1000000J0D01*
G01*
X196410000Y-112970000D02*
X194760000Y-112970000D01*
X194760000Y-112970000D02*
X194760000Y-123250000D01*
X194760000Y-123250000D02*
X200060000Y-123250000D01*
X200060000Y-123250000D02*
X200060000Y-112970000D01*
X200060000Y-112970000D02*
X198410000Y-112970000D01*
D13*
X157108095Y-133776857D02*
X158631904Y-133776857D01*
X156600095Y-148254857D02*
X158123904Y-148254857D01*
X157362000Y-149016761D02*
X157362000Y-147492952D01*
M02*
