M48
; DRILL file {KiCad (5.99.0-879-ga0698723b)} date 02/18/20 09:15:22
; FORMAT={-:-/ absolute / inch / decimal}
; #@! TF.CreationDate,2020-02-18T09:15:22-06:00
; #@! TF.GenerationSoftware,Kicad,Pcbnew,(5.99.0-879-ga0698723b)
; #@! TF.FileFunction,Plated,1,2,PTH
FMAT,2
INCH
T1C0.0157
T2C0.0295
T3C0.0315
T4C0.0472
T5C0.1280
%
G90
G05
T1
X6.6378Y-5.0315
X6.6378Y-5.0906
X6.6378Y-5.1496
X6.6378Y-5.2087
X6.6969Y-5.0315
X6.6969Y-5.0906
X6.6969Y-5.1496
X6.6969Y-5.2087
X6.7559Y-4.6969
X6.7559Y-4.7559
X6.7559Y-4.815
X6.7559Y-5.0315
X6.7559Y-5.0906
X6.7559Y-5.1496
X6.7559Y-5.2087
X6.815Y-4.6969
X6.815Y-4.7559
X6.815Y-4.815
X6.815Y-5.0315
X6.815Y-5.0906
X6.815Y-5.1496
X6.8346Y-2.5118
X6.9921Y-4.6969
X6.9921Y-4.7559
X6.9921Y-4.815
X6.9921Y-5.0315
X6.9921Y-5.0906
X6.9921Y-5.1496
X6.9921Y-5.2087
X7.0512Y-4.6969
X7.0512Y-4.7559
X7.0512Y-4.815
X7.0512Y-5.0315
X7.0512Y-5.0906
X7.0512Y-5.1496
X7.1102Y-4.6969
X7.1102Y-4.7559
X7.1102Y-4.815
X7.1102Y-5.0315
X7.1102Y-5.0906
X7.1693Y-4.6969
X7.1693Y-4.7559
X7.1693Y-4.815
X7.1693Y-5.0315
T2
X8.1732Y-4.5681
X8.1732Y-4.6181
X8.1732Y-4.6681
X8.1732Y-4.2244
X8.1732Y-4.2744
X8.1732Y-4.3244
T3
X5.9835Y-4.3181
X5.9835Y-4.4181
X5.9835Y-4.5181
X5.9835Y-4.6181
X6.2835Y-4.3181
X6.2835Y-4.4181
X6.2835Y-4.5181
X6.2835Y-4.6181
X7.637Y-4.1654
X7.937Y-4.1654
X5.4567Y-4.6181
X5.7567Y-4.6181
X6.3622Y-4.815
X6.6622Y-4.815
X7.3465Y-4.4213
X7.3465Y-4.5197
X6.5591Y-4.4409
X6.5591Y-4.5394
X5.6142Y-4.3031
X5.6142Y-4.4016
X7.622Y-4.5
X7.622Y-4.6
X7.622Y-4.7
X7.622Y-4.8
X7.922Y-4.5
X7.922Y-4.6
X7.922Y-4.7
X7.922Y-4.8
X6.8937Y-4.1654
X6.9921Y-4.1654
X6.8102Y-4.5
X7.1102Y-4.5
X7.622Y-4.5
X7.622Y-4.6
X7.622Y-4.7
X7.622Y-4.8
X7.922Y-4.5
X7.922Y-4.6
X7.922Y-4.7
X7.922Y-4.8
T4
X6.0854Y-5.2673
X6.0854Y-5.835
X8.2453Y-5.2673
X8.2453Y-5.835
T5
X5.4443Y-5.4449
X5.4443Y-5.7567
X5.7841Y-5.4449
X5.7841Y-5.7567
T0
M30
