G04 #@! TF.GenerationSoftware,KiCad,Pcbnew,(5.99.0-879-ga0698723b)*
G04 #@! TF.CreationDate,2020-02-28T07:42:53-06:00*
G04 #@! TF.ProjectId,Primary,5072696d-6172-4792-9e6b-696361645f70,rev?*
G04 #@! TF.SameCoordinates,Original*
G04 #@! TF.FileFunction,Soldermask,Top*
G04 #@! TF.FilePolarity,Negative*
%FSLAX46Y46*%
G04 Gerber Fmt 4.6, Leading zero omitted, Abs format (unit mm)*
G04 Created by KiCad (PCBNEW (5.99.0-879-ga0698723b)) date 2020-02-28 07:42:53*
%MOMM*%
%LPD*%
G01*
G04 APERTURE LIST*
G04 APERTURE END LIST*
G36*
X209489139Y-147159342D02*
G01*
X209540391Y-147159700D01*
X209590592Y-147170005D01*
X209635921Y-147174769D01*
X209685849Y-147189559D01*
X209742293Y-147201145D01*
X209783643Y-147218527D01*
X209821126Y-147229630D01*
X209873310Y-147256219D01*
X209932300Y-147281016D01*
X209964181Y-147302520D01*
X209993239Y-147317326D01*
X210044895Y-147356963D01*
X210103174Y-147396273D01*
X210125742Y-147418999D01*
X210146479Y-147434911D01*
X210194446Y-147488184D01*
X210248407Y-147542523D01*
X210262580Y-147563855D01*
X210275732Y-147578462D01*
X210316673Y-147645271D01*
X210362468Y-147714198D01*
X210369774Y-147731924D01*
X210376659Y-147743159D01*
X210407227Y-147822791D01*
X210441011Y-147904758D01*
X210443483Y-147917242D01*
X210445882Y-147923492D01*
X210462877Y-148015190D01*
X210481045Y-148106944D01*
X210477757Y-148342363D01*
X210474353Y-148357347D01*
X210474203Y-148363066D01*
X210452784Y-148452285D01*
X210432094Y-148543352D01*
X210429548Y-148549071D01*
X210429497Y-148549282D01*
X210350930Y-148725745D01*
X210350810Y-148725919D01*
X210348261Y-148731645D01*
X210294384Y-148808021D01*
X210241524Y-148884932D01*
X210236786Y-148889670D01*
X210229451Y-148900068D01*
X210165258Y-148961198D01*
X210104932Y-149021524D01*
X210094070Y-149028989D01*
X210080191Y-149042206D01*
X210010349Y-149086529D01*
X209945745Y-149130930D01*
X209927781Y-149138928D01*
X209906165Y-149152646D01*
X209834788Y-149180332D01*
X209769282Y-149209497D01*
X209743863Y-149215599D01*
X209714002Y-149227182D01*
X209644772Y-149239389D01*
X209581462Y-149254588D01*
X209548890Y-149256295D01*
X209511022Y-149262972D01*
X209447047Y-149261632D01*
X209388562Y-149264697D01*
X209349812Y-149259596D01*
X209304955Y-149258656D01*
X209248658Y-149246278D01*
X209197049Y-149239484D01*
X209153715Y-149225404D01*
X209103652Y-149214397D01*
X209056680Y-149193875D01*
X209013342Y-149179794D01*
X208967590Y-149154953D01*
X208914779Y-149131880D01*
X208877942Y-149106278D01*
X208843588Y-149087625D01*
X208798070Y-149050765D01*
X208745530Y-149014249D01*
X208718819Y-148986589D01*
X208693479Y-148966069D01*
X208651204Y-148916572D01*
X208602353Y-148865985D01*
X208584997Y-148839054D01*
X208568024Y-148819181D01*
X208532176Y-148757092D01*
X208490701Y-148692734D01*
X208481277Y-148668932D01*
X208471443Y-148651899D01*
X208445273Y-148577997D01*
X208414826Y-148501096D01*
X208411366Y-148482245D01*
X208406966Y-148469819D01*
X208393619Y-148385547D01*
X208377619Y-148298371D01*
X208377797Y-148285649D01*
X208376749Y-148279034D01*
X208379192Y-148185694D01*
X208380497Y-148092279D01*
X208381798Y-148086157D01*
X208381804Y-148085936D01*
X208421965Y-147896999D01*
X208422047Y-147896800D01*
X208423350Y-147890672D01*
X208460167Y-147804771D01*
X208495886Y-147718538D01*
X208499534Y-147712920D01*
X208504546Y-147701227D01*
X208554610Y-147628111D01*
X208601090Y-147556537D01*
X208610166Y-147546973D01*
X208620992Y-147531162D01*
X208680082Y-147473296D01*
X208734053Y-147416423D01*
X208749964Y-147404863D01*
X208768253Y-147386953D01*
X208832313Y-147345033D01*
X208890323Y-147302887D01*
X208913918Y-147291633D01*
X208940720Y-147274094D01*
X209005896Y-147247761D01*
X209064666Y-147219729D01*
X209096171Y-147211287D01*
X209131823Y-147196883D01*
X209194682Y-147184892D01*
X209251249Y-147169735D01*
X209290210Y-147166669D01*
X209334284Y-147158261D01*
X209391923Y-147158663D01*
X209443819Y-147154579D01*
X209489139Y-147159342D01*
G37*
G36*
X154629139Y-147159342D02*
G01*
X154680391Y-147159700D01*
X154730592Y-147170005D01*
X154775921Y-147174769D01*
X154825849Y-147189559D01*
X154882293Y-147201145D01*
X154923643Y-147218527D01*
X154961126Y-147229630D01*
X155013310Y-147256219D01*
X155072300Y-147281016D01*
X155104181Y-147302520D01*
X155133239Y-147317326D01*
X155184895Y-147356963D01*
X155243174Y-147396273D01*
X155265742Y-147418999D01*
X155286479Y-147434911D01*
X155334446Y-147488184D01*
X155388407Y-147542523D01*
X155402580Y-147563855D01*
X155415732Y-147578462D01*
X155456673Y-147645271D01*
X155502468Y-147714198D01*
X155509774Y-147731924D01*
X155516659Y-147743159D01*
X155547227Y-147822791D01*
X155581011Y-147904758D01*
X155583483Y-147917242D01*
X155585882Y-147923492D01*
X155602877Y-148015190D01*
X155621045Y-148106944D01*
X155617757Y-148342363D01*
X155614353Y-148357347D01*
X155614203Y-148363066D01*
X155592784Y-148452285D01*
X155572094Y-148543352D01*
X155569548Y-148549071D01*
X155569497Y-148549282D01*
X155490930Y-148725745D01*
X155490810Y-148725919D01*
X155488261Y-148731645D01*
X155434384Y-148808021D01*
X155381524Y-148884932D01*
X155376786Y-148889670D01*
X155369451Y-148900068D01*
X155305258Y-148961198D01*
X155244932Y-149021524D01*
X155234070Y-149028989D01*
X155220191Y-149042206D01*
X155150349Y-149086529D01*
X155085745Y-149130930D01*
X155067781Y-149138928D01*
X155046165Y-149152646D01*
X154974788Y-149180332D01*
X154909282Y-149209497D01*
X154883863Y-149215599D01*
X154854002Y-149227182D01*
X154784772Y-149239389D01*
X154721462Y-149254588D01*
X154688890Y-149256295D01*
X154651022Y-149262972D01*
X154587047Y-149261632D01*
X154528562Y-149264697D01*
X154489812Y-149259596D01*
X154444955Y-149258656D01*
X154388658Y-149246278D01*
X154337049Y-149239484D01*
X154293715Y-149225404D01*
X154243652Y-149214397D01*
X154196680Y-149193875D01*
X154153342Y-149179794D01*
X154107590Y-149154953D01*
X154054779Y-149131880D01*
X154017942Y-149106278D01*
X153983588Y-149087625D01*
X153938070Y-149050765D01*
X153885530Y-149014249D01*
X153858819Y-148986589D01*
X153833479Y-148966069D01*
X153791204Y-148916572D01*
X153742353Y-148865985D01*
X153724997Y-148839054D01*
X153708024Y-148819181D01*
X153672176Y-148757092D01*
X153630701Y-148692734D01*
X153621277Y-148668932D01*
X153611443Y-148651899D01*
X153585273Y-148577997D01*
X153554826Y-148501096D01*
X153551366Y-148482245D01*
X153546966Y-148469819D01*
X153533619Y-148385547D01*
X153517619Y-148298371D01*
X153517797Y-148285649D01*
X153516749Y-148279034D01*
X153519192Y-148185694D01*
X153520497Y-148092279D01*
X153521798Y-148086157D01*
X153521804Y-148085936D01*
X153561965Y-147896999D01*
X153562047Y-147896800D01*
X153563350Y-147890672D01*
X153600167Y-147804771D01*
X153635886Y-147718538D01*
X153639534Y-147712920D01*
X153644546Y-147701227D01*
X153694610Y-147628111D01*
X153741090Y-147556537D01*
X153750166Y-147546973D01*
X153760992Y-147531162D01*
X153820082Y-147473296D01*
X153874053Y-147416423D01*
X153889964Y-147404863D01*
X153908253Y-147386953D01*
X153972313Y-147345033D01*
X154030323Y-147302887D01*
X154053918Y-147291633D01*
X154080720Y-147274094D01*
X154145896Y-147247761D01*
X154204666Y-147219729D01*
X154236171Y-147211287D01*
X154271823Y-147196883D01*
X154334682Y-147184892D01*
X154391249Y-147169735D01*
X154430210Y-147166669D01*
X154474284Y-147158261D01*
X154531923Y-147158663D01*
X154583819Y-147154579D01*
X154629139Y-147159342D01*
G37*
G36*
X146964700Y-143919000D02*
G01*
X147065815Y-143919000D01*
X147113037Y-143925217D01*
X147158014Y-143927102D01*
X147260769Y-143944666D01*
X147364866Y-143958371D01*
X147407014Y-143969664D01*
X147447395Y-143976567D01*
X147551091Y-144008270D01*
X147656219Y-144036439D01*
X147692831Y-144051604D01*
X147728133Y-144062397D01*
X147830796Y-144108751D01*
X147934890Y-144151868D01*
X147965749Y-144169684D01*
X147995705Y-144183210D01*
X148095276Y-144244467D01*
X148196110Y-144302683D01*
X148221203Y-144321938D01*
X148245745Y-144337036D01*
X148340093Y-144413165D01*
X148435410Y-144486305D01*
X148454943Y-144505838D01*
X148474223Y-144521395D01*
X148561223Y-144612118D01*
X148648695Y-144699590D01*
X148663068Y-144718322D01*
X148677410Y-144733277D01*
X148754920Y-144838024D01*
X148832317Y-144938890D01*
X148842115Y-144955861D01*
X148852036Y-144969268D01*
X148918004Y-145087304D01*
X148983132Y-145200110D01*
X148989098Y-145214514D01*
X148995260Y-145225539D01*
X149047760Y-145356136D01*
X149098561Y-145478781D01*
X149101555Y-145489955D01*
X149104759Y-145497925D01*
X149142008Y-145640927D01*
X149176629Y-145770134D01*
X149177615Y-145777627D01*
X149178760Y-145782021D01*
X149199196Y-145941550D01*
X149216000Y-146069185D01*
X149216000Y-146370815D01*
X149208807Y-146425453D01*
X149208108Y-146460262D01*
X149190583Y-146563879D01*
X149176629Y-146669866D01*
X149165856Y-146710071D01*
X149159361Y-146748472D01*
X149127224Y-146854249D01*
X149098561Y-146961219D01*
X149084162Y-146995980D01*
X149074017Y-147029373D01*
X149026960Y-147134079D01*
X148983132Y-147239890D01*
X148966321Y-147269008D01*
X148953675Y-147297146D01*
X148891456Y-147398678D01*
X148832317Y-147501110D01*
X148814284Y-147524611D01*
X148800282Y-147547460D01*
X148722918Y-147643681D01*
X148648695Y-147740410D01*
X148630584Y-147758521D01*
X148616331Y-147776248D01*
X148524123Y-147864982D01*
X148435410Y-147953695D01*
X148418269Y-147966848D01*
X148404789Y-147979820D01*
X148298217Y-148058967D01*
X148196110Y-148137317D01*
X148180876Y-148146112D01*
X148169112Y-148154849D01*
X148048900Y-148222309D01*
X147934890Y-148288132D01*
X147922339Y-148293331D01*
X147913092Y-148298520D01*
X147779644Y-148352437D01*
X147656219Y-148403561D01*
X147646982Y-148406036D01*
X147640896Y-148408495D01*
X147493161Y-148447252D01*
X147364866Y-148481629D01*
X147359363Y-148482354D01*
X147356929Y-148482992D01*
X147177655Y-148506276D01*
X147065815Y-148521000D01*
X146952845Y-148521000D01*
X146772225Y-148521315D01*
X146769732Y-148521000D01*
X146764185Y-148521000D01*
X146632575Y-148503673D01*
X146480970Y-148484521D01*
X146474613Y-148482877D01*
X146465134Y-148481629D01*
X146336176Y-148447075D01*
X146196755Y-148411018D01*
X146186900Y-148407076D01*
X146173781Y-148403561D01*
X146052165Y-148353186D01*
X145924168Y-148301991D01*
X145911365Y-148294865D01*
X145895110Y-148288132D01*
X145783608Y-148223756D01*
X145667655Y-148159218D01*
X145652605Y-148148122D01*
X145633890Y-148137317D01*
X145534337Y-148060927D01*
X145431358Y-147985004D01*
X145414916Y-147969292D01*
X145394590Y-147953695D01*
X145308358Y-147867463D01*
X145219110Y-147782176D01*
X145202247Y-147761352D01*
X145181305Y-147740410D01*
X145109317Y-147646593D01*
X145034364Y-147554035D01*
X145018153Y-147527786D01*
X144997683Y-147501110D01*
X144940411Y-147401912D01*
X144880099Y-147304258D01*
X144865684Y-147272481D01*
X144846868Y-147239890D01*
X144804480Y-147137557D01*
X144758821Y-147036901D01*
X144747371Y-146999682D01*
X144731439Y-146961219D01*
X144703767Y-146857945D01*
X144672499Y-146756308D01*
X144665181Y-146713942D01*
X144653371Y-146669866D01*
X144639920Y-146567694D01*
X144622530Y-146467018D01*
X144620478Y-146420021D01*
X144614000Y-146370815D01*
X144614000Y-146271643D01*
X144609725Y-146173727D01*
X144614000Y-146122817D01*
X144614000Y-146069185D01*
X144626435Y-145974731D01*
X144634291Y-145881178D01*
X144645851Y-145827256D01*
X144653371Y-145770134D01*
X144677007Y-145681925D01*
X144695828Y-145594130D01*
X144715497Y-145538276D01*
X144731439Y-145478781D01*
X144764878Y-145398052D01*
X144793343Y-145317221D01*
X144821774Y-145260692D01*
X144846868Y-145200110D01*
X144888586Y-145127853D01*
X144925250Y-145054954D01*
X144962902Y-144999133D01*
X144997683Y-144938890D01*
X145046070Y-144875831D01*
X145089416Y-144811568D01*
X145136545Y-144757922D01*
X145181305Y-144699590D01*
X145234697Y-144646198D01*
X145283172Y-144591020D01*
X145339794Y-144541101D01*
X145394590Y-144486305D01*
X145451348Y-144442753D01*
X145503384Y-144396877D01*
X145569258Y-144352277D01*
X145633890Y-144302683D01*
X145692416Y-144268893D01*
X145746486Y-144232285D01*
X145821139Y-144194575D01*
X145895110Y-144151868D01*
X145953857Y-144127534D01*
X146008520Y-144099922D01*
X146091228Y-144070633D01*
X146173781Y-144036439D01*
X146231352Y-144021013D01*
X146285257Y-144001924D01*
X146375028Y-143982515D01*
X146465134Y-143958371D01*
X146520275Y-143951111D01*
X146572200Y-143939885D01*
X146667802Y-143931689D01*
X146764185Y-143919000D01*
X146815816Y-143919000D01*
X146864702Y-143914809D01*
X146964700Y-143919000D01*
G37*
G36*
X138334700Y-143919000D02*
G01*
X138435815Y-143919000D01*
X138483037Y-143925217D01*
X138528014Y-143927102D01*
X138630769Y-143944666D01*
X138734866Y-143958371D01*
X138777014Y-143969664D01*
X138817395Y-143976567D01*
X138921091Y-144008270D01*
X139026219Y-144036439D01*
X139062831Y-144051604D01*
X139098133Y-144062397D01*
X139200796Y-144108751D01*
X139304890Y-144151868D01*
X139335749Y-144169684D01*
X139365705Y-144183210D01*
X139465276Y-144244467D01*
X139566110Y-144302683D01*
X139591203Y-144321938D01*
X139615745Y-144337036D01*
X139710093Y-144413165D01*
X139805410Y-144486305D01*
X139824943Y-144505838D01*
X139844223Y-144521395D01*
X139931223Y-144612118D01*
X140018695Y-144699590D01*
X140033068Y-144718322D01*
X140047410Y-144733277D01*
X140124920Y-144838024D01*
X140202317Y-144938890D01*
X140212115Y-144955861D01*
X140222036Y-144969268D01*
X140288004Y-145087304D01*
X140353132Y-145200110D01*
X140359098Y-145214514D01*
X140365260Y-145225539D01*
X140417760Y-145356136D01*
X140468561Y-145478781D01*
X140471555Y-145489955D01*
X140474759Y-145497925D01*
X140512008Y-145640927D01*
X140546629Y-145770134D01*
X140547615Y-145777627D01*
X140548760Y-145782021D01*
X140569196Y-145941550D01*
X140586000Y-146069185D01*
X140586000Y-146370815D01*
X140578807Y-146425453D01*
X140578108Y-146460262D01*
X140560583Y-146563879D01*
X140546629Y-146669866D01*
X140535856Y-146710071D01*
X140529361Y-146748472D01*
X140497224Y-146854249D01*
X140468561Y-146961219D01*
X140454162Y-146995980D01*
X140444017Y-147029373D01*
X140396960Y-147134079D01*
X140353132Y-147239890D01*
X140336321Y-147269008D01*
X140323675Y-147297146D01*
X140261456Y-147398678D01*
X140202317Y-147501110D01*
X140184284Y-147524611D01*
X140170282Y-147547460D01*
X140092918Y-147643681D01*
X140018695Y-147740410D01*
X140000584Y-147758521D01*
X139986331Y-147776248D01*
X139894123Y-147864982D01*
X139805410Y-147953695D01*
X139788269Y-147966848D01*
X139774789Y-147979820D01*
X139668217Y-148058967D01*
X139566110Y-148137317D01*
X139550876Y-148146112D01*
X139539112Y-148154849D01*
X139418900Y-148222309D01*
X139304890Y-148288132D01*
X139292339Y-148293331D01*
X139283092Y-148298520D01*
X139149644Y-148352437D01*
X139026219Y-148403561D01*
X139016982Y-148406036D01*
X139010896Y-148408495D01*
X138863161Y-148447252D01*
X138734866Y-148481629D01*
X138729363Y-148482354D01*
X138726929Y-148482992D01*
X138547655Y-148506276D01*
X138435815Y-148521000D01*
X138322845Y-148521000D01*
X138142225Y-148521315D01*
X138139732Y-148521000D01*
X138134185Y-148521000D01*
X138002575Y-148503673D01*
X137850970Y-148484521D01*
X137844613Y-148482877D01*
X137835134Y-148481629D01*
X137706176Y-148447075D01*
X137566755Y-148411018D01*
X137556900Y-148407076D01*
X137543781Y-148403561D01*
X137422165Y-148353186D01*
X137294168Y-148301991D01*
X137281365Y-148294865D01*
X137265110Y-148288132D01*
X137153608Y-148223756D01*
X137037655Y-148159218D01*
X137022605Y-148148122D01*
X137003890Y-148137317D01*
X136904337Y-148060927D01*
X136801358Y-147985004D01*
X136784916Y-147969292D01*
X136764590Y-147953695D01*
X136678358Y-147867463D01*
X136589110Y-147782176D01*
X136572247Y-147761352D01*
X136551305Y-147740410D01*
X136479317Y-147646593D01*
X136404364Y-147554035D01*
X136388153Y-147527786D01*
X136367683Y-147501110D01*
X136310411Y-147401912D01*
X136250099Y-147304258D01*
X136235684Y-147272481D01*
X136216868Y-147239890D01*
X136174480Y-147137557D01*
X136128821Y-147036901D01*
X136117371Y-146999682D01*
X136101439Y-146961219D01*
X136073767Y-146857945D01*
X136042499Y-146756308D01*
X136035181Y-146713942D01*
X136023371Y-146669866D01*
X136009920Y-146567694D01*
X135992530Y-146467018D01*
X135990478Y-146420021D01*
X135984000Y-146370815D01*
X135984000Y-146271643D01*
X135979725Y-146173727D01*
X135984000Y-146122817D01*
X135984000Y-146069185D01*
X135996435Y-145974731D01*
X136004291Y-145881178D01*
X136015851Y-145827256D01*
X136023371Y-145770134D01*
X136047007Y-145681925D01*
X136065828Y-145594130D01*
X136085497Y-145538276D01*
X136101439Y-145478781D01*
X136134878Y-145398052D01*
X136163343Y-145317221D01*
X136191774Y-145260692D01*
X136216868Y-145200110D01*
X136258586Y-145127853D01*
X136295250Y-145054954D01*
X136332902Y-144999133D01*
X136367683Y-144938890D01*
X136416070Y-144875831D01*
X136459416Y-144811568D01*
X136506545Y-144757922D01*
X136551305Y-144699590D01*
X136604697Y-144646198D01*
X136653172Y-144591020D01*
X136709794Y-144541101D01*
X136764590Y-144486305D01*
X136821348Y-144442753D01*
X136873384Y-144396877D01*
X136939258Y-144352277D01*
X137003890Y-144302683D01*
X137062416Y-144268893D01*
X137116486Y-144232285D01*
X137191139Y-144194575D01*
X137265110Y-144151868D01*
X137323857Y-144127534D01*
X137378520Y-144099922D01*
X137461228Y-144070633D01*
X137543781Y-144036439D01*
X137601352Y-144021013D01*
X137655257Y-144001924D01*
X137745028Y-143982515D01*
X137835134Y-143958371D01*
X137890275Y-143951111D01*
X137942200Y-143939885D01*
X138037802Y-143931689D01*
X138134185Y-143919000D01*
X138185816Y-143919000D01*
X138234702Y-143914809D01*
X138334700Y-143919000D01*
G37*
G36*
X138334700Y-135999000D02*
G01*
X138435815Y-135999000D01*
X138483037Y-136005217D01*
X138528014Y-136007102D01*
X138630769Y-136024666D01*
X138734866Y-136038371D01*
X138777014Y-136049664D01*
X138817395Y-136056567D01*
X138921091Y-136088270D01*
X139026219Y-136116439D01*
X139062831Y-136131604D01*
X139098133Y-136142397D01*
X139200796Y-136188751D01*
X139304890Y-136231868D01*
X139335749Y-136249684D01*
X139365705Y-136263210D01*
X139465276Y-136324467D01*
X139566110Y-136382683D01*
X139591203Y-136401938D01*
X139615745Y-136417036D01*
X139710093Y-136493165D01*
X139805410Y-136566305D01*
X139824943Y-136585838D01*
X139844223Y-136601395D01*
X139931223Y-136692118D01*
X140018695Y-136779590D01*
X140033068Y-136798322D01*
X140047410Y-136813277D01*
X140124920Y-136918024D01*
X140202317Y-137018890D01*
X140212115Y-137035861D01*
X140222036Y-137049268D01*
X140288004Y-137167304D01*
X140353132Y-137280110D01*
X140359098Y-137294514D01*
X140365260Y-137305539D01*
X140417760Y-137436136D01*
X140468561Y-137558781D01*
X140471555Y-137569955D01*
X140474759Y-137577925D01*
X140512008Y-137720927D01*
X140546629Y-137850134D01*
X140547615Y-137857627D01*
X140548760Y-137862021D01*
X140569196Y-138021550D01*
X140586000Y-138149185D01*
X140586000Y-138450815D01*
X140578807Y-138505453D01*
X140578108Y-138540262D01*
X140560583Y-138643879D01*
X140546629Y-138749866D01*
X140535856Y-138790071D01*
X140529361Y-138828472D01*
X140497224Y-138934249D01*
X140468561Y-139041219D01*
X140454162Y-139075980D01*
X140444017Y-139109373D01*
X140396960Y-139214079D01*
X140353132Y-139319890D01*
X140336321Y-139349008D01*
X140323675Y-139377146D01*
X140261456Y-139478678D01*
X140202317Y-139581110D01*
X140184284Y-139604611D01*
X140170282Y-139627460D01*
X140092918Y-139723681D01*
X140018695Y-139820410D01*
X140000584Y-139838521D01*
X139986331Y-139856248D01*
X139894123Y-139944982D01*
X139805410Y-140033695D01*
X139788269Y-140046848D01*
X139774789Y-140059820D01*
X139668217Y-140138967D01*
X139566110Y-140217317D01*
X139550876Y-140226112D01*
X139539112Y-140234849D01*
X139418900Y-140302309D01*
X139304890Y-140368132D01*
X139292339Y-140373331D01*
X139283092Y-140378520D01*
X139149644Y-140432437D01*
X139026219Y-140483561D01*
X139016982Y-140486036D01*
X139010896Y-140488495D01*
X138863161Y-140527252D01*
X138734866Y-140561629D01*
X138729363Y-140562354D01*
X138726929Y-140562992D01*
X138547655Y-140586276D01*
X138435815Y-140601000D01*
X138322845Y-140601000D01*
X138142225Y-140601315D01*
X138139732Y-140601000D01*
X138134185Y-140601000D01*
X138002575Y-140583673D01*
X137850970Y-140564521D01*
X137844613Y-140562877D01*
X137835134Y-140561629D01*
X137706176Y-140527075D01*
X137566755Y-140491018D01*
X137556900Y-140487076D01*
X137543781Y-140483561D01*
X137422165Y-140433186D01*
X137294168Y-140381991D01*
X137281365Y-140374865D01*
X137265110Y-140368132D01*
X137153608Y-140303756D01*
X137037655Y-140239218D01*
X137022605Y-140228122D01*
X137003890Y-140217317D01*
X136904337Y-140140927D01*
X136801358Y-140065004D01*
X136784916Y-140049292D01*
X136764590Y-140033695D01*
X136678358Y-139947463D01*
X136589110Y-139862176D01*
X136572247Y-139841352D01*
X136551305Y-139820410D01*
X136479317Y-139726593D01*
X136404364Y-139634035D01*
X136388153Y-139607786D01*
X136367683Y-139581110D01*
X136310411Y-139481912D01*
X136250099Y-139384258D01*
X136235684Y-139352481D01*
X136216868Y-139319890D01*
X136174480Y-139217557D01*
X136128821Y-139116901D01*
X136117371Y-139079682D01*
X136101439Y-139041219D01*
X136073767Y-138937945D01*
X136042499Y-138836308D01*
X136035181Y-138793942D01*
X136023371Y-138749866D01*
X136009920Y-138647694D01*
X135992530Y-138547018D01*
X135990478Y-138500021D01*
X135984000Y-138450815D01*
X135984000Y-138351643D01*
X135979725Y-138253727D01*
X135984000Y-138202817D01*
X135984000Y-138149185D01*
X135996435Y-138054731D01*
X136004291Y-137961178D01*
X136015851Y-137907256D01*
X136023371Y-137850134D01*
X136047007Y-137761925D01*
X136065828Y-137674130D01*
X136085497Y-137618276D01*
X136101439Y-137558781D01*
X136134878Y-137478052D01*
X136163343Y-137397221D01*
X136191774Y-137340692D01*
X136216868Y-137280110D01*
X136258586Y-137207853D01*
X136295250Y-137134954D01*
X136332902Y-137079133D01*
X136367683Y-137018890D01*
X136416070Y-136955831D01*
X136459416Y-136891568D01*
X136506545Y-136837922D01*
X136551305Y-136779590D01*
X136604697Y-136726198D01*
X136653172Y-136671020D01*
X136709794Y-136621101D01*
X136764590Y-136566305D01*
X136821348Y-136522753D01*
X136873384Y-136476877D01*
X136939258Y-136432277D01*
X137003890Y-136382683D01*
X137062416Y-136348893D01*
X137116486Y-136312285D01*
X137191139Y-136274575D01*
X137265110Y-136231868D01*
X137323857Y-136207534D01*
X137378520Y-136179922D01*
X137461228Y-136150633D01*
X137543781Y-136116439D01*
X137601352Y-136101013D01*
X137655257Y-136081924D01*
X137745028Y-136062515D01*
X137835134Y-136038371D01*
X137890275Y-136031111D01*
X137942200Y-136019885D01*
X138037802Y-136011689D01*
X138134185Y-135999000D01*
X138185816Y-135999000D01*
X138234702Y-135994809D01*
X138334700Y-135999000D01*
G37*
G36*
X146964700Y-135999000D02*
G01*
X147065815Y-135999000D01*
X147113037Y-136005217D01*
X147158014Y-136007102D01*
X147260769Y-136024666D01*
X147364866Y-136038371D01*
X147407014Y-136049664D01*
X147447395Y-136056567D01*
X147551091Y-136088270D01*
X147656219Y-136116439D01*
X147692831Y-136131604D01*
X147728133Y-136142397D01*
X147830796Y-136188751D01*
X147934890Y-136231868D01*
X147965749Y-136249684D01*
X147995705Y-136263210D01*
X148095276Y-136324467D01*
X148196110Y-136382683D01*
X148221203Y-136401938D01*
X148245745Y-136417036D01*
X148340093Y-136493165D01*
X148435410Y-136566305D01*
X148454943Y-136585838D01*
X148474223Y-136601395D01*
X148561223Y-136692118D01*
X148648695Y-136779590D01*
X148663068Y-136798322D01*
X148677410Y-136813277D01*
X148754920Y-136918024D01*
X148832317Y-137018890D01*
X148842115Y-137035861D01*
X148852036Y-137049268D01*
X148918004Y-137167304D01*
X148983132Y-137280110D01*
X148989098Y-137294514D01*
X148995260Y-137305539D01*
X149047760Y-137436136D01*
X149098561Y-137558781D01*
X149101555Y-137569955D01*
X149104759Y-137577925D01*
X149142008Y-137720927D01*
X149176629Y-137850134D01*
X149177615Y-137857627D01*
X149178760Y-137862021D01*
X149199196Y-138021550D01*
X149216000Y-138149185D01*
X149216000Y-138450815D01*
X149208807Y-138505453D01*
X149208108Y-138540262D01*
X149190583Y-138643879D01*
X149176629Y-138749866D01*
X149165856Y-138790071D01*
X149159361Y-138828472D01*
X149127224Y-138934249D01*
X149098561Y-139041219D01*
X149084162Y-139075980D01*
X149074017Y-139109373D01*
X149026960Y-139214079D01*
X148983132Y-139319890D01*
X148966321Y-139349008D01*
X148953675Y-139377146D01*
X148891456Y-139478678D01*
X148832317Y-139581110D01*
X148814284Y-139604611D01*
X148800282Y-139627460D01*
X148722918Y-139723681D01*
X148648695Y-139820410D01*
X148630584Y-139838521D01*
X148616331Y-139856248D01*
X148524123Y-139944982D01*
X148435410Y-140033695D01*
X148418269Y-140046848D01*
X148404789Y-140059820D01*
X148298217Y-140138967D01*
X148196110Y-140217317D01*
X148180876Y-140226112D01*
X148169112Y-140234849D01*
X148048900Y-140302309D01*
X147934890Y-140368132D01*
X147922339Y-140373331D01*
X147913092Y-140378520D01*
X147779644Y-140432437D01*
X147656219Y-140483561D01*
X147646982Y-140486036D01*
X147640896Y-140488495D01*
X147493161Y-140527252D01*
X147364866Y-140561629D01*
X147359363Y-140562354D01*
X147356929Y-140562992D01*
X147177655Y-140586276D01*
X147065815Y-140601000D01*
X146952845Y-140601000D01*
X146772225Y-140601315D01*
X146769732Y-140601000D01*
X146764185Y-140601000D01*
X146632575Y-140583673D01*
X146480970Y-140564521D01*
X146474613Y-140562877D01*
X146465134Y-140561629D01*
X146336176Y-140527075D01*
X146196755Y-140491018D01*
X146186900Y-140487076D01*
X146173781Y-140483561D01*
X146052165Y-140433186D01*
X145924168Y-140381991D01*
X145911365Y-140374865D01*
X145895110Y-140368132D01*
X145783608Y-140303756D01*
X145667655Y-140239218D01*
X145652605Y-140228122D01*
X145633890Y-140217317D01*
X145534337Y-140140927D01*
X145431358Y-140065004D01*
X145414916Y-140049292D01*
X145394590Y-140033695D01*
X145308358Y-139947463D01*
X145219110Y-139862176D01*
X145202247Y-139841352D01*
X145181305Y-139820410D01*
X145109317Y-139726593D01*
X145034364Y-139634035D01*
X145018153Y-139607786D01*
X144997683Y-139581110D01*
X144940411Y-139481912D01*
X144880099Y-139384258D01*
X144865684Y-139352481D01*
X144846868Y-139319890D01*
X144804480Y-139217557D01*
X144758821Y-139116901D01*
X144747371Y-139079682D01*
X144731439Y-139041219D01*
X144703767Y-138937945D01*
X144672499Y-138836308D01*
X144665181Y-138793942D01*
X144653371Y-138749866D01*
X144639920Y-138647694D01*
X144622530Y-138547018D01*
X144620478Y-138500021D01*
X144614000Y-138450815D01*
X144614000Y-138351643D01*
X144609725Y-138253727D01*
X144614000Y-138202817D01*
X144614000Y-138149185D01*
X144626435Y-138054731D01*
X144634291Y-137961178D01*
X144645851Y-137907256D01*
X144653371Y-137850134D01*
X144677007Y-137761925D01*
X144695828Y-137674130D01*
X144715497Y-137618276D01*
X144731439Y-137558781D01*
X144764878Y-137478052D01*
X144793343Y-137397221D01*
X144821774Y-137340692D01*
X144846868Y-137280110D01*
X144888586Y-137207853D01*
X144925250Y-137134954D01*
X144962902Y-137079133D01*
X144997683Y-137018890D01*
X145046070Y-136955831D01*
X145089416Y-136891568D01*
X145136545Y-136837922D01*
X145181305Y-136779590D01*
X145234697Y-136726198D01*
X145283172Y-136671020D01*
X145339794Y-136621101D01*
X145394590Y-136566305D01*
X145451348Y-136522753D01*
X145503384Y-136476877D01*
X145569258Y-136432277D01*
X145633890Y-136382683D01*
X145692416Y-136348893D01*
X145746486Y-136312285D01*
X145821139Y-136274575D01*
X145895110Y-136231868D01*
X145953857Y-136207534D01*
X146008520Y-136179922D01*
X146091228Y-136150633D01*
X146173781Y-136116439D01*
X146231352Y-136101013D01*
X146285257Y-136081924D01*
X146375028Y-136062515D01*
X146465134Y-136038371D01*
X146520275Y-136031111D01*
X146572200Y-136019885D01*
X146667802Y-136011689D01*
X146764185Y-135999000D01*
X146815816Y-135999000D01*
X146864702Y-135994809D01*
X146964700Y-135999000D01*
G37*
G36*
X154629139Y-132739342D02*
G01*
X154680391Y-132739700D01*
X154730592Y-132750005D01*
X154775921Y-132754769D01*
X154825849Y-132769559D01*
X154882293Y-132781145D01*
X154923643Y-132798527D01*
X154961126Y-132809630D01*
X155013310Y-132836219D01*
X155072300Y-132861016D01*
X155104181Y-132882520D01*
X155133239Y-132897326D01*
X155184895Y-132936963D01*
X155243174Y-132976273D01*
X155265742Y-132998999D01*
X155286479Y-133014911D01*
X155334446Y-133068184D01*
X155388407Y-133122523D01*
X155402580Y-133143855D01*
X155415732Y-133158462D01*
X155456673Y-133225271D01*
X155502468Y-133294198D01*
X155509774Y-133311924D01*
X155516659Y-133323159D01*
X155547227Y-133402791D01*
X155581011Y-133484758D01*
X155583483Y-133497242D01*
X155585882Y-133503492D01*
X155602877Y-133595190D01*
X155621045Y-133686944D01*
X155617757Y-133922363D01*
X155614353Y-133937347D01*
X155614203Y-133943066D01*
X155592784Y-134032285D01*
X155572094Y-134123352D01*
X155569548Y-134129071D01*
X155569497Y-134129282D01*
X155490930Y-134305745D01*
X155490810Y-134305919D01*
X155488261Y-134311645D01*
X155434384Y-134388021D01*
X155381524Y-134464932D01*
X155376786Y-134469670D01*
X155369451Y-134480068D01*
X155305258Y-134541198D01*
X155244932Y-134601524D01*
X155234070Y-134608989D01*
X155220191Y-134622206D01*
X155150349Y-134666529D01*
X155085745Y-134710930D01*
X155067781Y-134718928D01*
X155046165Y-134732646D01*
X154974788Y-134760332D01*
X154909282Y-134789497D01*
X154883863Y-134795599D01*
X154854002Y-134807182D01*
X154784772Y-134819389D01*
X154721462Y-134834588D01*
X154688890Y-134836295D01*
X154651022Y-134842972D01*
X154587047Y-134841632D01*
X154528562Y-134844697D01*
X154489812Y-134839596D01*
X154444955Y-134838656D01*
X154388658Y-134826278D01*
X154337049Y-134819484D01*
X154293715Y-134805404D01*
X154243652Y-134794397D01*
X154196680Y-134773875D01*
X154153342Y-134759794D01*
X154107590Y-134734953D01*
X154054779Y-134711880D01*
X154017942Y-134686278D01*
X153983588Y-134667625D01*
X153938070Y-134630765D01*
X153885530Y-134594249D01*
X153858819Y-134566589D01*
X153833479Y-134546069D01*
X153791204Y-134496572D01*
X153742353Y-134445985D01*
X153724997Y-134419054D01*
X153708024Y-134399181D01*
X153672176Y-134337092D01*
X153630701Y-134272734D01*
X153621277Y-134248932D01*
X153611443Y-134231899D01*
X153585273Y-134157997D01*
X153554826Y-134081096D01*
X153551366Y-134062245D01*
X153546966Y-134049819D01*
X153533619Y-133965547D01*
X153517619Y-133878371D01*
X153517797Y-133865649D01*
X153516749Y-133859034D01*
X153519192Y-133765694D01*
X153520497Y-133672279D01*
X153521798Y-133666157D01*
X153521804Y-133665936D01*
X153561965Y-133476999D01*
X153562047Y-133476800D01*
X153563350Y-133470672D01*
X153600167Y-133384771D01*
X153635886Y-133298538D01*
X153639534Y-133292920D01*
X153644546Y-133281227D01*
X153694610Y-133208111D01*
X153741090Y-133136537D01*
X153750166Y-133126973D01*
X153760992Y-133111162D01*
X153820082Y-133053296D01*
X153874053Y-132996423D01*
X153889964Y-132984863D01*
X153908253Y-132966953D01*
X153972313Y-132925033D01*
X154030323Y-132882887D01*
X154053918Y-132871633D01*
X154080720Y-132854094D01*
X154145896Y-132827761D01*
X154204666Y-132799729D01*
X154236171Y-132791287D01*
X154271823Y-132776883D01*
X154334682Y-132764892D01*
X154391249Y-132749735D01*
X154430210Y-132746669D01*
X154474284Y-132738261D01*
X154531923Y-132738663D01*
X154583819Y-132734579D01*
X154629139Y-132739342D01*
G37*
G36*
X209489139Y-132739342D02*
G01*
X209540391Y-132739700D01*
X209590592Y-132750005D01*
X209635921Y-132754769D01*
X209685849Y-132769559D01*
X209742293Y-132781145D01*
X209783643Y-132798527D01*
X209821126Y-132809630D01*
X209873310Y-132836219D01*
X209932300Y-132861016D01*
X209964181Y-132882520D01*
X209993239Y-132897326D01*
X210044895Y-132936963D01*
X210103174Y-132976273D01*
X210125742Y-132998999D01*
X210146479Y-133014911D01*
X210194446Y-133068184D01*
X210248407Y-133122523D01*
X210262580Y-133143855D01*
X210275732Y-133158462D01*
X210316673Y-133225271D01*
X210362468Y-133294198D01*
X210369774Y-133311924D01*
X210376659Y-133323159D01*
X210407227Y-133402791D01*
X210441011Y-133484758D01*
X210443483Y-133497242D01*
X210445882Y-133503492D01*
X210462877Y-133595190D01*
X210481045Y-133686944D01*
X210477757Y-133922363D01*
X210474353Y-133937347D01*
X210474203Y-133943066D01*
X210452784Y-134032285D01*
X210432094Y-134123352D01*
X210429548Y-134129071D01*
X210429497Y-134129282D01*
X210350930Y-134305745D01*
X210350810Y-134305919D01*
X210348261Y-134311645D01*
X210294384Y-134388021D01*
X210241524Y-134464932D01*
X210236786Y-134469670D01*
X210229451Y-134480068D01*
X210165258Y-134541198D01*
X210104932Y-134601524D01*
X210094070Y-134608989D01*
X210080191Y-134622206D01*
X210010349Y-134666529D01*
X209945745Y-134710930D01*
X209927781Y-134718928D01*
X209906165Y-134732646D01*
X209834788Y-134760332D01*
X209769282Y-134789497D01*
X209743863Y-134795599D01*
X209714002Y-134807182D01*
X209644772Y-134819389D01*
X209581462Y-134834588D01*
X209548890Y-134836295D01*
X209511022Y-134842972D01*
X209447047Y-134841632D01*
X209388562Y-134844697D01*
X209349812Y-134839596D01*
X209304955Y-134838656D01*
X209248658Y-134826278D01*
X209197049Y-134819484D01*
X209153715Y-134805404D01*
X209103652Y-134794397D01*
X209056680Y-134773875D01*
X209013342Y-134759794D01*
X208967590Y-134734953D01*
X208914779Y-134711880D01*
X208877942Y-134686278D01*
X208843588Y-134667625D01*
X208798070Y-134630765D01*
X208745530Y-134594249D01*
X208718819Y-134566589D01*
X208693479Y-134546069D01*
X208651204Y-134496572D01*
X208602353Y-134445985D01*
X208584997Y-134419054D01*
X208568024Y-134399181D01*
X208532176Y-134337092D01*
X208490701Y-134272734D01*
X208481277Y-134248932D01*
X208471443Y-134231899D01*
X208445273Y-134157997D01*
X208414826Y-134081096D01*
X208411366Y-134062245D01*
X208406966Y-134049819D01*
X208393619Y-133965547D01*
X208377619Y-133878371D01*
X208377797Y-133865649D01*
X208376749Y-133859034D01*
X208379192Y-133765694D01*
X208380497Y-133672279D01*
X208381798Y-133666157D01*
X208381804Y-133665936D01*
X208421965Y-133476999D01*
X208422047Y-133476800D01*
X208423350Y-133470672D01*
X208460167Y-133384771D01*
X208495886Y-133298538D01*
X208499534Y-133292920D01*
X208504546Y-133281227D01*
X208554610Y-133208111D01*
X208601090Y-133136537D01*
X208610166Y-133126973D01*
X208620992Y-133111162D01*
X208680082Y-133053296D01*
X208734053Y-132996423D01*
X208749964Y-132984863D01*
X208768253Y-132966953D01*
X208832313Y-132925033D01*
X208890323Y-132882887D01*
X208913918Y-132871633D01*
X208940720Y-132854094D01*
X209005896Y-132827761D01*
X209064666Y-132799729D01*
X209096171Y-132791287D01*
X209131823Y-132776883D01*
X209194682Y-132764892D01*
X209251249Y-132749735D01*
X209290210Y-132746669D01*
X209334284Y-132738261D01*
X209391923Y-132738663D01*
X209443819Y-132734579D01*
X209489139Y-132739342D01*
G37*
G36*
X154629139Y-126009342D02*
G01*
X154680391Y-126009700D01*
X154730592Y-126020005D01*
X154775921Y-126024769D01*
X154825849Y-126039559D01*
X154882293Y-126051145D01*
X154923643Y-126068527D01*
X154961126Y-126079630D01*
X155013310Y-126106219D01*
X155072300Y-126131016D01*
X155104181Y-126152520D01*
X155133239Y-126167326D01*
X155184895Y-126206963D01*
X155243174Y-126246273D01*
X155265742Y-126268999D01*
X155286479Y-126284911D01*
X155334446Y-126338184D01*
X155388407Y-126392523D01*
X155402580Y-126413855D01*
X155415732Y-126428462D01*
X155456673Y-126495271D01*
X155502468Y-126564198D01*
X155509774Y-126581924D01*
X155516659Y-126593159D01*
X155547227Y-126672791D01*
X155581011Y-126754758D01*
X155583483Y-126767242D01*
X155585882Y-126773492D01*
X155602877Y-126865190D01*
X155621045Y-126956944D01*
X155617757Y-127192363D01*
X155614353Y-127207347D01*
X155614203Y-127213066D01*
X155592784Y-127302285D01*
X155572094Y-127393352D01*
X155569548Y-127399071D01*
X155569497Y-127399282D01*
X155490930Y-127575745D01*
X155490810Y-127575919D01*
X155488261Y-127581645D01*
X155434384Y-127658021D01*
X155381524Y-127734932D01*
X155376786Y-127739670D01*
X155369451Y-127750068D01*
X155305258Y-127811198D01*
X155244932Y-127871524D01*
X155234070Y-127878989D01*
X155220191Y-127892206D01*
X155150349Y-127936529D01*
X155085745Y-127980930D01*
X155067781Y-127988928D01*
X155046165Y-128002646D01*
X154974788Y-128030332D01*
X154909282Y-128059497D01*
X154883863Y-128065599D01*
X154854002Y-128077182D01*
X154784772Y-128089389D01*
X154721462Y-128104588D01*
X154688890Y-128106295D01*
X154651022Y-128112972D01*
X154587047Y-128111632D01*
X154528562Y-128114697D01*
X154489812Y-128109596D01*
X154444955Y-128108656D01*
X154388658Y-128096278D01*
X154337049Y-128089484D01*
X154293715Y-128075404D01*
X154243652Y-128064397D01*
X154196680Y-128043875D01*
X154153342Y-128029794D01*
X154107590Y-128004953D01*
X154054779Y-127981880D01*
X154017942Y-127956278D01*
X153983588Y-127937625D01*
X153938070Y-127900765D01*
X153885530Y-127864249D01*
X153858819Y-127836589D01*
X153833479Y-127816069D01*
X153791204Y-127766572D01*
X153742353Y-127715985D01*
X153724997Y-127689054D01*
X153708024Y-127669181D01*
X153672176Y-127607092D01*
X153630701Y-127542734D01*
X153621277Y-127518932D01*
X153611443Y-127501899D01*
X153585273Y-127427997D01*
X153554826Y-127351096D01*
X153551366Y-127332245D01*
X153546966Y-127319819D01*
X153533619Y-127235547D01*
X153517619Y-127148371D01*
X153517797Y-127135649D01*
X153516749Y-127129034D01*
X153519192Y-127035694D01*
X153520497Y-126942279D01*
X153521798Y-126936157D01*
X153521804Y-126935936D01*
X153561965Y-126746999D01*
X153562047Y-126746800D01*
X153563350Y-126740672D01*
X153600167Y-126654771D01*
X153635886Y-126568538D01*
X153639534Y-126562920D01*
X153644546Y-126551227D01*
X153694610Y-126478111D01*
X153741090Y-126406537D01*
X153750166Y-126396973D01*
X153760992Y-126381162D01*
X153820082Y-126323296D01*
X153874053Y-126266423D01*
X153889964Y-126254863D01*
X153908253Y-126236953D01*
X153972313Y-126195033D01*
X154030323Y-126152887D01*
X154053918Y-126141633D01*
X154080720Y-126124094D01*
X154145896Y-126097761D01*
X154204666Y-126069729D01*
X154236171Y-126061287D01*
X154271823Y-126046883D01*
X154334682Y-126034892D01*
X154391249Y-126019735D01*
X154430210Y-126016669D01*
X154474284Y-126008261D01*
X154531923Y-126008663D01*
X154583819Y-126004579D01*
X154629139Y-126009342D01*
G37*
G36*
X169222976Y-121447826D02*
G01*
X169264766Y-121445782D01*
X169309056Y-121452639D01*
X169359810Y-121455476D01*
X169400163Y-121466743D01*
X169435621Y-121472232D01*
X169483204Y-121489928D01*
X169537898Y-121505199D01*
X169569622Y-121522067D01*
X169597659Y-121532494D01*
X169645757Y-121562549D01*
X169701153Y-121592004D01*
X169723968Y-121611421D01*
X169744271Y-121624108D01*
X169789641Y-121667313D01*
X169841961Y-121711841D01*
X169856463Y-121730947D01*
X169869472Y-121743335D01*
X169908616Y-121799655D01*
X169953751Y-121859118D01*
X169961302Y-121875459D01*
X169968142Y-121885301D01*
X169997508Y-121953817D01*
X170031307Y-122026965D01*
X170033885Y-122038692D01*
X170036247Y-122044202D01*
X170052429Y-122123036D01*
X170071011Y-122207551D01*
X170070345Y-122398388D01*
X170051181Y-122482738D01*
X170034443Y-122561485D01*
X170032041Y-122566982D01*
X170029381Y-122578692D01*
X169995069Y-122651609D01*
X169965227Y-122719915D01*
X169958318Y-122729709D01*
X169950655Y-122745994D01*
X169905114Y-122805130D01*
X169865570Y-122861187D01*
X169852472Y-122873487D01*
X169837840Y-122892487D01*
X169785227Y-122936635D01*
X169739544Y-122979534D01*
X169719147Y-122992082D01*
X169696199Y-123011338D01*
X169640600Y-123040405D01*
X169592293Y-123070123D01*
X169564184Y-123080354D01*
X169532341Y-123097001D01*
X169477534Y-123111892D01*
X169429831Y-123129254D01*
X169394340Y-123134495D01*
X169353911Y-123145479D01*
X169303139Y-123147962D01*
X169258803Y-123154509D01*
X169217027Y-123152174D01*
X169169233Y-123154511D01*
X169124992Y-123147028D01*
X169086189Y-123144859D01*
X169039980Y-123132650D01*
X168986923Y-123123676D01*
X168950839Y-123109097D01*
X168919035Y-123100694D01*
X168870897Y-123076799D01*
X168815488Y-123054412D01*
X168788311Y-123035804D01*
X168764182Y-123023826D01*
X168717128Y-122987063D01*
X168662926Y-122949950D01*
X168644469Y-122930295D01*
X168627950Y-122917389D01*
X168585400Y-122867393D01*
X168536354Y-122815164D01*
X168525608Y-122797138D01*
X168515896Y-122785726D01*
X168481401Y-122722981D01*
X168441678Y-122656344D01*
X168436943Y-122642111D01*
X168432610Y-122634229D01*
X168409692Y-122560192D01*
X168383314Y-122480898D01*
X168382372Y-122471934D01*
X168381486Y-122469072D01*
X168373347Y-122386068D01*
X168363987Y-122297012D01*
X168373967Y-122208044D01*
X168382687Y-122125078D01*
X168383593Y-122122220D01*
X168384598Y-122113265D01*
X168411530Y-122034153D01*
X168434963Y-121960281D01*
X168439350Y-121952432D01*
X168444184Y-121938231D01*
X168484382Y-121871857D01*
X168519304Y-121809371D01*
X168529092Y-121798031D01*
X168539967Y-121780075D01*
X168589385Y-121728181D01*
X168632273Y-121678495D01*
X168648879Y-121665707D01*
X168667477Y-121646177D01*
X168721952Y-121609433D01*
X168769250Y-121573009D01*
X168793458Y-121561202D01*
X168820765Y-121542783D01*
X168876319Y-121520787D01*
X168924633Y-121497223D01*
X168956503Y-121489040D01*
X168992679Y-121474717D01*
X169045795Y-121466114D01*
X169092088Y-121454228D01*
X169130903Y-121452330D01*
X169175199Y-121445155D01*
X169222976Y-121447826D01*
G37*
G36*
X161602976Y-121447826D02*
G01*
X161644766Y-121445782D01*
X161689056Y-121452639D01*
X161739810Y-121455476D01*
X161780163Y-121466743D01*
X161815621Y-121472232D01*
X161863204Y-121489928D01*
X161917898Y-121505199D01*
X161949622Y-121522067D01*
X161977659Y-121532494D01*
X162025757Y-121562549D01*
X162081153Y-121592004D01*
X162103968Y-121611421D01*
X162124271Y-121624108D01*
X162169641Y-121667313D01*
X162221961Y-121711841D01*
X162236463Y-121730947D01*
X162249472Y-121743335D01*
X162288616Y-121799655D01*
X162333751Y-121859118D01*
X162341302Y-121875459D01*
X162348142Y-121885301D01*
X162377508Y-121953817D01*
X162411307Y-122026965D01*
X162413885Y-122038692D01*
X162416247Y-122044202D01*
X162432429Y-122123036D01*
X162451011Y-122207551D01*
X162450345Y-122398388D01*
X162431181Y-122482738D01*
X162414443Y-122561485D01*
X162412041Y-122566982D01*
X162409381Y-122578692D01*
X162375069Y-122651609D01*
X162345227Y-122719915D01*
X162338318Y-122729709D01*
X162330655Y-122745994D01*
X162285114Y-122805130D01*
X162245570Y-122861187D01*
X162232472Y-122873487D01*
X162217840Y-122892487D01*
X162165227Y-122936635D01*
X162119544Y-122979534D01*
X162099147Y-122992082D01*
X162076199Y-123011338D01*
X162020600Y-123040405D01*
X161972293Y-123070123D01*
X161944184Y-123080354D01*
X161912341Y-123097001D01*
X161857534Y-123111892D01*
X161809831Y-123129254D01*
X161774340Y-123134495D01*
X161733911Y-123145479D01*
X161683139Y-123147962D01*
X161638803Y-123154509D01*
X161597027Y-123152174D01*
X161549233Y-123154511D01*
X161504992Y-123147028D01*
X161466189Y-123144859D01*
X161419980Y-123132650D01*
X161366923Y-123123676D01*
X161330839Y-123109097D01*
X161299035Y-123100694D01*
X161250897Y-123076799D01*
X161195488Y-123054412D01*
X161168311Y-123035804D01*
X161144182Y-123023826D01*
X161097128Y-122987063D01*
X161042926Y-122949950D01*
X161024469Y-122930295D01*
X161007950Y-122917389D01*
X160965400Y-122867393D01*
X160916354Y-122815164D01*
X160905608Y-122797138D01*
X160895896Y-122785726D01*
X160861401Y-122722981D01*
X160821678Y-122656344D01*
X160816943Y-122642111D01*
X160812610Y-122634229D01*
X160789692Y-122560192D01*
X160763314Y-122480898D01*
X160762372Y-122471934D01*
X160761486Y-122469072D01*
X160753347Y-122386068D01*
X160743987Y-122297012D01*
X160753967Y-122208044D01*
X160762687Y-122125078D01*
X160763593Y-122122220D01*
X160764598Y-122113265D01*
X160791530Y-122034153D01*
X160814963Y-121960281D01*
X160819350Y-121952432D01*
X160824184Y-121938231D01*
X160864382Y-121871857D01*
X160899304Y-121809371D01*
X160909092Y-121798031D01*
X160919967Y-121780075D01*
X160969385Y-121728181D01*
X161012273Y-121678495D01*
X161028879Y-121665707D01*
X161047477Y-121646177D01*
X161101952Y-121609433D01*
X161149250Y-121573009D01*
X161173458Y-121561202D01*
X161200765Y-121542783D01*
X161256319Y-121520787D01*
X161304633Y-121497223D01*
X161336503Y-121489040D01*
X161372679Y-121474717D01*
X161425795Y-121466114D01*
X161472088Y-121454228D01*
X161510903Y-121452330D01*
X161555199Y-121445155D01*
X161602976Y-121447826D01*
G37*
G36*
X201222976Y-121067826D02*
G01*
X201264766Y-121065782D01*
X201309056Y-121072639D01*
X201359810Y-121075476D01*
X201400163Y-121086743D01*
X201435621Y-121092232D01*
X201483204Y-121109928D01*
X201537898Y-121125199D01*
X201569622Y-121142067D01*
X201597659Y-121152494D01*
X201645757Y-121182549D01*
X201701153Y-121212004D01*
X201723968Y-121231421D01*
X201744271Y-121244108D01*
X201789641Y-121287313D01*
X201841961Y-121331841D01*
X201856463Y-121350947D01*
X201869472Y-121363335D01*
X201908616Y-121419655D01*
X201953751Y-121479118D01*
X201961302Y-121495459D01*
X201968142Y-121505301D01*
X201997508Y-121573817D01*
X202031307Y-121646965D01*
X202033885Y-121658692D01*
X202036247Y-121664202D01*
X202052429Y-121743036D01*
X202071011Y-121827551D01*
X202070345Y-122018388D01*
X202051181Y-122102738D01*
X202034443Y-122181485D01*
X202032041Y-122186982D01*
X202029381Y-122198692D01*
X201995069Y-122271609D01*
X201965227Y-122339915D01*
X201958318Y-122349709D01*
X201950655Y-122365994D01*
X201905114Y-122425130D01*
X201865570Y-122481187D01*
X201852472Y-122493487D01*
X201837840Y-122512487D01*
X201785227Y-122556635D01*
X201739544Y-122599534D01*
X201719147Y-122612082D01*
X201696199Y-122631338D01*
X201640600Y-122660405D01*
X201592293Y-122690123D01*
X201564184Y-122700354D01*
X201532341Y-122717001D01*
X201477534Y-122731892D01*
X201429831Y-122749254D01*
X201394340Y-122754495D01*
X201353911Y-122765479D01*
X201303139Y-122767962D01*
X201258803Y-122774509D01*
X201217027Y-122772174D01*
X201169233Y-122774511D01*
X201124992Y-122767028D01*
X201086189Y-122764859D01*
X201039980Y-122752650D01*
X200986923Y-122743676D01*
X200950839Y-122729097D01*
X200919035Y-122720694D01*
X200870897Y-122696799D01*
X200815488Y-122674412D01*
X200788311Y-122655804D01*
X200764182Y-122643826D01*
X200717128Y-122607063D01*
X200662926Y-122569950D01*
X200644469Y-122550295D01*
X200627950Y-122537389D01*
X200585400Y-122487393D01*
X200536354Y-122435164D01*
X200525608Y-122417138D01*
X200515896Y-122405726D01*
X200481401Y-122342981D01*
X200441678Y-122276344D01*
X200436943Y-122262111D01*
X200432610Y-122254229D01*
X200409692Y-122180192D01*
X200383314Y-122100898D01*
X200382372Y-122091934D01*
X200381486Y-122089072D01*
X200373347Y-122006068D01*
X200363987Y-121917012D01*
X200373967Y-121828044D01*
X200382687Y-121745078D01*
X200383593Y-121742220D01*
X200384598Y-121733265D01*
X200411530Y-121654153D01*
X200434963Y-121580281D01*
X200439350Y-121572432D01*
X200444184Y-121558231D01*
X200484382Y-121491857D01*
X200519304Y-121429371D01*
X200529092Y-121418031D01*
X200539967Y-121400075D01*
X200589385Y-121348181D01*
X200632273Y-121298495D01*
X200648879Y-121285707D01*
X200667477Y-121266177D01*
X200721952Y-121229433D01*
X200769250Y-121193009D01*
X200793458Y-121181202D01*
X200820765Y-121162783D01*
X200876319Y-121140787D01*
X200924633Y-121117223D01*
X200956503Y-121109040D01*
X200992679Y-121094717D01*
X201045795Y-121086114D01*
X201092088Y-121074228D01*
X201130903Y-121072330D01*
X201175199Y-121065155D01*
X201222976Y-121067826D01*
G37*
G36*
X193602976Y-121067826D02*
G01*
X193644766Y-121065782D01*
X193689056Y-121072639D01*
X193739810Y-121075476D01*
X193780163Y-121086743D01*
X193815621Y-121092232D01*
X193863204Y-121109928D01*
X193917898Y-121125199D01*
X193949622Y-121142067D01*
X193977659Y-121152494D01*
X194025757Y-121182549D01*
X194081153Y-121212004D01*
X194103968Y-121231421D01*
X194124271Y-121244108D01*
X194169641Y-121287313D01*
X194221961Y-121331841D01*
X194236463Y-121350947D01*
X194249472Y-121363335D01*
X194288616Y-121419655D01*
X194333751Y-121479118D01*
X194341302Y-121495459D01*
X194348142Y-121505301D01*
X194377508Y-121573817D01*
X194411307Y-121646965D01*
X194413885Y-121658692D01*
X194416247Y-121664202D01*
X194432429Y-121743036D01*
X194451011Y-121827551D01*
X194450345Y-122018388D01*
X194431181Y-122102738D01*
X194414443Y-122181485D01*
X194412041Y-122186982D01*
X194409381Y-122198692D01*
X194375069Y-122271609D01*
X194345227Y-122339915D01*
X194338318Y-122349709D01*
X194330655Y-122365994D01*
X194285114Y-122425130D01*
X194245570Y-122481187D01*
X194232472Y-122493487D01*
X194217840Y-122512487D01*
X194165227Y-122556635D01*
X194119544Y-122599534D01*
X194099147Y-122612082D01*
X194076199Y-122631338D01*
X194020600Y-122660405D01*
X193972293Y-122690123D01*
X193944184Y-122700354D01*
X193912341Y-122717001D01*
X193857534Y-122731892D01*
X193809831Y-122749254D01*
X193774340Y-122754495D01*
X193733911Y-122765479D01*
X193683139Y-122767962D01*
X193638803Y-122774509D01*
X193597027Y-122772174D01*
X193549233Y-122774511D01*
X193504992Y-122767028D01*
X193466189Y-122764859D01*
X193419980Y-122752650D01*
X193366923Y-122743676D01*
X193330839Y-122729097D01*
X193299035Y-122720694D01*
X193250897Y-122696799D01*
X193195488Y-122674412D01*
X193168311Y-122655804D01*
X193144182Y-122643826D01*
X193097128Y-122607063D01*
X193042926Y-122569950D01*
X193024469Y-122550295D01*
X193007950Y-122537389D01*
X192965400Y-122487393D01*
X192916354Y-122435164D01*
X192905608Y-122417138D01*
X192895896Y-122405726D01*
X192861401Y-122342981D01*
X192821678Y-122276344D01*
X192816943Y-122262111D01*
X192812610Y-122254229D01*
X192789692Y-122180192D01*
X192763314Y-122100898D01*
X192762372Y-122091934D01*
X192761486Y-122089072D01*
X192753347Y-122006068D01*
X192743987Y-121917012D01*
X192753967Y-121828044D01*
X192762687Y-121745078D01*
X192763593Y-121742220D01*
X192764598Y-121733265D01*
X192791530Y-121654153D01*
X192814963Y-121580281D01*
X192819350Y-121572432D01*
X192824184Y-121558231D01*
X192864382Y-121491857D01*
X192899304Y-121429371D01*
X192909092Y-121418031D01*
X192919967Y-121400075D01*
X192969385Y-121348181D01*
X193012273Y-121298495D01*
X193028879Y-121285707D01*
X193047477Y-121266177D01*
X193101952Y-121229433D01*
X193149250Y-121193009D01*
X193173458Y-121181202D01*
X193200765Y-121162783D01*
X193256319Y-121140787D01*
X193304633Y-121117223D01*
X193336503Y-121109040D01*
X193372679Y-121094717D01*
X193425795Y-121086114D01*
X193472088Y-121074228D01*
X193510903Y-121072330D01*
X193555199Y-121065155D01*
X193602976Y-121067826D01*
G37*
G36*
X201222976Y-118527826D02*
G01*
X201264766Y-118525782D01*
X201309056Y-118532639D01*
X201359810Y-118535476D01*
X201400163Y-118546743D01*
X201435621Y-118552232D01*
X201483204Y-118569928D01*
X201537898Y-118585199D01*
X201569622Y-118602067D01*
X201597659Y-118612494D01*
X201645757Y-118642549D01*
X201701153Y-118672004D01*
X201723968Y-118691421D01*
X201744271Y-118704108D01*
X201789641Y-118747313D01*
X201841961Y-118791841D01*
X201856463Y-118810947D01*
X201869472Y-118823335D01*
X201908616Y-118879655D01*
X201953751Y-118939118D01*
X201961302Y-118955459D01*
X201968142Y-118965301D01*
X201997508Y-119033817D01*
X202031307Y-119106965D01*
X202033885Y-119118692D01*
X202036247Y-119124202D01*
X202052429Y-119203036D01*
X202071011Y-119287551D01*
X202070345Y-119478388D01*
X202051181Y-119562738D01*
X202034443Y-119641485D01*
X202032041Y-119646982D01*
X202029381Y-119658692D01*
X201995069Y-119731609D01*
X201965227Y-119799915D01*
X201958318Y-119809709D01*
X201950655Y-119825994D01*
X201905114Y-119885130D01*
X201865570Y-119941187D01*
X201852472Y-119953487D01*
X201837840Y-119972487D01*
X201785227Y-120016635D01*
X201739544Y-120059534D01*
X201719147Y-120072082D01*
X201696199Y-120091338D01*
X201640600Y-120120405D01*
X201592293Y-120150123D01*
X201564184Y-120160354D01*
X201532341Y-120177001D01*
X201477534Y-120191892D01*
X201429831Y-120209254D01*
X201394340Y-120214495D01*
X201353911Y-120225479D01*
X201303139Y-120227962D01*
X201258803Y-120234509D01*
X201217027Y-120232174D01*
X201169233Y-120234511D01*
X201124992Y-120227028D01*
X201086189Y-120224859D01*
X201039980Y-120212650D01*
X200986923Y-120203676D01*
X200950839Y-120189097D01*
X200919035Y-120180694D01*
X200870897Y-120156799D01*
X200815488Y-120134412D01*
X200788311Y-120115804D01*
X200764182Y-120103826D01*
X200717128Y-120067063D01*
X200662926Y-120029950D01*
X200644469Y-120010295D01*
X200627950Y-119997389D01*
X200585400Y-119947393D01*
X200536354Y-119895164D01*
X200525608Y-119877138D01*
X200515896Y-119865726D01*
X200481401Y-119802981D01*
X200441678Y-119736344D01*
X200436943Y-119722111D01*
X200432610Y-119714229D01*
X200409692Y-119640192D01*
X200383314Y-119560898D01*
X200382372Y-119551934D01*
X200381486Y-119549072D01*
X200373347Y-119466068D01*
X200363987Y-119377012D01*
X200373967Y-119288044D01*
X200382687Y-119205078D01*
X200383593Y-119202220D01*
X200384598Y-119193265D01*
X200411530Y-119114153D01*
X200434963Y-119040281D01*
X200439350Y-119032432D01*
X200444184Y-119018231D01*
X200484382Y-118951857D01*
X200519304Y-118889371D01*
X200529092Y-118878031D01*
X200539967Y-118860075D01*
X200589385Y-118808181D01*
X200632273Y-118758495D01*
X200648879Y-118745707D01*
X200667477Y-118726177D01*
X200721952Y-118689433D01*
X200769250Y-118653009D01*
X200793458Y-118641202D01*
X200820765Y-118622783D01*
X200876319Y-118600787D01*
X200924633Y-118577223D01*
X200956503Y-118569040D01*
X200992679Y-118554717D01*
X201045795Y-118546114D01*
X201092088Y-118534228D01*
X201130903Y-118532330D01*
X201175199Y-118525155D01*
X201222976Y-118527826D01*
G37*
G36*
X193602976Y-118527826D02*
G01*
X193644766Y-118525782D01*
X193689056Y-118532639D01*
X193739810Y-118535476D01*
X193780163Y-118546743D01*
X193815621Y-118552232D01*
X193863204Y-118569928D01*
X193917898Y-118585199D01*
X193949622Y-118602067D01*
X193977659Y-118612494D01*
X194025757Y-118642549D01*
X194081153Y-118672004D01*
X194103968Y-118691421D01*
X194124271Y-118704108D01*
X194169641Y-118747313D01*
X194221961Y-118791841D01*
X194236463Y-118810947D01*
X194249472Y-118823335D01*
X194288616Y-118879655D01*
X194333751Y-118939118D01*
X194341302Y-118955459D01*
X194348142Y-118965301D01*
X194377508Y-119033817D01*
X194411307Y-119106965D01*
X194413885Y-119118692D01*
X194416247Y-119124202D01*
X194432429Y-119203036D01*
X194451011Y-119287551D01*
X194450345Y-119478388D01*
X194431181Y-119562738D01*
X194414443Y-119641485D01*
X194412041Y-119646982D01*
X194409381Y-119658692D01*
X194375069Y-119731609D01*
X194345227Y-119799915D01*
X194338318Y-119809709D01*
X194330655Y-119825994D01*
X194285114Y-119885130D01*
X194245570Y-119941187D01*
X194232472Y-119953487D01*
X194217840Y-119972487D01*
X194165227Y-120016635D01*
X194119544Y-120059534D01*
X194099147Y-120072082D01*
X194076199Y-120091338D01*
X194020600Y-120120405D01*
X193972293Y-120150123D01*
X193944184Y-120160354D01*
X193912341Y-120177001D01*
X193857534Y-120191892D01*
X193809831Y-120209254D01*
X193774340Y-120214495D01*
X193733911Y-120225479D01*
X193683139Y-120227962D01*
X193638803Y-120234509D01*
X193597027Y-120232174D01*
X193549233Y-120234511D01*
X193504992Y-120227028D01*
X193466189Y-120224859D01*
X193419980Y-120212650D01*
X193366923Y-120203676D01*
X193330839Y-120189097D01*
X193299035Y-120180694D01*
X193250897Y-120156799D01*
X193195488Y-120134412D01*
X193168311Y-120115804D01*
X193144182Y-120103826D01*
X193097128Y-120067063D01*
X193042926Y-120029950D01*
X193024469Y-120010295D01*
X193007950Y-119997389D01*
X192965400Y-119947393D01*
X192916354Y-119895164D01*
X192905608Y-119877138D01*
X192895896Y-119865726D01*
X192861401Y-119802981D01*
X192821678Y-119736344D01*
X192816943Y-119722111D01*
X192812610Y-119714229D01*
X192789692Y-119640192D01*
X192763314Y-119560898D01*
X192762372Y-119551934D01*
X192761486Y-119549072D01*
X192753347Y-119466068D01*
X192743987Y-119377012D01*
X192753967Y-119288044D01*
X192762687Y-119205078D01*
X192763593Y-119202220D01*
X192764598Y-119193265D01*
X192791530Y-119114153D01*
X192814963Y-119040281D01*
X192819350Y-119032432D01*
X192824184Y-119018231D01*
X192864382Y-118951857D01*
X192899304Y-118889371D01*
X192909092Y-118878031D01*
X192919967Y-118860075D01*
X192969385Y-118808181D01*
X193012273Y-118758495D01*
X193028879Y-118745707D01*
X193047477Y-118726177D01*
X193101952Y-118689433D01*
X193149250Y-118653009D01*
X193173458Y-118641202D01*
X193200765Y-118622783D01*
X193256319Y-118600787D01*
X193304633Y-118577223D01*
X193336503Y-118569040D01*
X193372679Y-118554717D01*
X193425795Y-118546114D01*
X193472088Y-118534228D01*
X193510903Y-118532330D01*
X193555199Y-118525155D01*
X193602976Y-118527826D01*
G37*
G36*
X207975366Y-115468826D02*
G01*
X208038358Y-115494918D01*
X208099189Y-115518635D01*
X208104317Y-115522239D01*
X208115485Y-115526865D01*
X208165441Y-115565198D01*
X208213254Y-115598801D01*
X208221393Y-115608131D01*
X208235808Y-115619192D01*
X208270630Y-115664573D01*
X208304902Y-115703860D01*
X208313381Y-115720287D01*
X208328135Y-115739515D01*
X208347761Y-115786895D01*
X208368846Y-115827747D01*
X208374587Y-115851660D01*
X208386174Y-115879634D01*
X208392089Y-115924562D01*
X208401391Y-115963309D01*
X208401230Y-115993998D01*
X208405970Y-116030000D01*
X208400838Y-116068984D01*
X208400661Y-116102722D01*
X208391699Y-116138403D01*
X208386174Y-116180366D01*
X208373430Y-116211134D01*
X208366697Y-116237937D01*
X208346624Y-116275848D01*
X208328135Y-116320485D01*
X208311537Y-116342116D01*
X208301459Y-116361150D01*
X208268833Y-116397768D01*
X208235808Y-116440808D01*
X208218987Y-116453715D01*
X208208717Y-116465242D01*
X208163166Y-116496548D01*
X208115485Y-116533135D01*
X208101507Y-116538925D01*
X208093820Y-116544208D01*
X208082790Y-116548376D01*
X208026587Y-116590826D01*
X208002257Y-116656923D01*
X208017524Y-116725681D01*
X208081569Y-116781766D01*
X208099192Y-116788637D01*
X208104318Y-116792239D01*
X208115485Y-116796865D01*
X208165440Y-116835197D01*
X208213254Y-116868801D01*
X208221393Y-116878131D01*
X208235808Y-116889192D01*
X208270630Y-116934573D01*
X208304902Y-116973860D01*
X208313381Y-116990287D01*
X208328135Y-117009515D01*
X208347761Y-117056895D01*
X208368846Y-117097747D01*
X208374587Y-117121660D01*
X208386174Y-117149634D01*
X208392089Y-117194562D01*
X208401391Y-117233309D01*
X208401230Y-117263998D01*
X208405970Y-117300000D01*
X208400838Y-117338984D01*
X208400661Y-117372722D01*
X208391699Y-117408403D01*
X208386174Y-117450366D01*
X208373430Y-117481134D01*
X208366697Y-117507937D01*
X208346624Y-117545848D01*
X208328135Y-117590485D01*
X208311537Y-117612116D01*
X208301459Y-117631150D01*
X208268833Y-117667768D01*
X208235808Y-117710808D01*
X208218987Y-117723715D01*
X208208717Y-117735242D01*
X208169000Y-117762538D01*
X208124545Y-117817168D01*
X208116683Y-117887161D01*
X208147909Y-117950293D01*
X208239800Y-117990552D01*
X208337688Y-117990552D01*
X208369899Y-117996959D01*
X208386769Y-118008231D01*
X208398041Y-118025101D01*
X208404448Y-118057312D01*
X208404448Y-119082688D01*
X208401999Y-119095000D01*
X208398041Y-119114899D01*
X208386769Y-119131769D01*
X208369899Y-119143041D01*
X208350000Y-119146999D01*
X208337688Y-119149448D01*
X206862312Y-119149448D01*
X206830101Y-119143041D01*
X206813231Y-119131769D01*
X206801959Y-119114899D01*
X206795552Y-119082688D01*
X206795552Y-118057312D01*
X206801959Y-118025101D01*
X206813231Y-118008231D01*
X206830101Y-117996959D01*
X206862312Y-117990552D01*
X206960525Y-117990552D01*
X207028105Y-117970709D01*
X207074228Y-117917479D01*
X207084252Y-117847764D01*
X207032400Y-117763285D01*
X206986746Y-117731199D01*
X206978607Y-117721869D01*
X206964192Y-117710808D01*
X206929370Y-117665427D01*
X206895098Y-117626140D01*
X206886619Y-117609713D01*
X206871865Y-117590485D01*
X206852239Y-117543105D01*
X206831154Y-117502253D01*
X206825413Y-117478340D01*
X206813826Y-117450366D01*
X206807911Y-117405438D01*
X206798609Y-117366691D01*
X206798770Y-117336002D01*
X206794030Y-117300000D01*
X206799162Y-117261016D01*
X206799339Y-117227278D01*
X206808301Y-117191597D01*
X206813826Y-117149634D01*
X206826570Y-117118866D01*
X206833303Y-117092063D01*
X206853376Y-117054152D01*
X206871865Y-117009515D01*
X206888463Y-116987884D01*
X206898541Y-116968850D01*
X206931167Y-116932232D01*
X206964192Y-116889192D01*
X206981013Y-116876285D01*
X206991283Y-116864758D01*
X207036834Y-116833452D01*
X207084515Y-116796865D01*
X207098493Y-116791075D01*
X207106180Y-116785792D01*
X207117210Y-116781624D01*
X207173413Y-116739174D01*
X207197743Y-116673077D01*
X207182476Y-116604319D01*
X207118431Y-116548234D01*
X207100808Y-116541363D01*
X207095682Y-116537761D01*
X207084515Y-116533135D01*
X207034560Y-116494803D01*
X206986746Y-116461199D01*
X206978607Y-116451869D01*
X206964192Y-116440808D01*
X206929370Y-116395427D01*
X206895098Y-116356140D01*
X206886619Y-116339713D01*
X206871865Y-116320485D01*
X206852239Y-116273105D01*
X206831154Y-116232253D01*
X206825413Y-116208340D01*
X206813826Y-116180366D01*
X206807911Y-116135438D01*
X206798609Y-116096691D01*
X206798770Y-116066002D01*
X206794030Y-116030000D01*
X206799162Y-115991016D01*
X206799339Y-115957278D01*
X206808301Y-115921597D01*
X206813826Y-115879634D01*
X206826570Y-115848866D01*
X206833303Y-115822063D01*
X206853376Y-115784152D01*
X206871865Y-115739515D01*
X206888463Y-115717884D01*
X206898541Y-115698850D01*
X206931167Y-115662232D01*
X206964192Y-115619192D01*
X206981013Y-115606285D01*
X206991283Y-115594758D01*
X207036836Y-115563451D01*
X207084515Y-115526865D01*
X207098492Y-115521076D01*
X207106181Y-115515791D01*
X207163956Y-115493960D01*
X207224634Y-115468826D01*
X207233590Y-115467647D01*
X207236591Y-115466513D01*
X207306014Y-115458112D01*
X207337249Y-115454000D01*
X207862751Y-115454000D01*
X207975366Y-115468826D01*
G37*
G36*
X138602976Y-116447826D02*
G01*
X138644766Y-116445782D01*
X138689056Y-116452639D01*
X138739810Y-116455476D01*
X138780163Y-116466743D01*
X138815621Y-116472232D01*
X138863204Y-116489928D01*
X138917898Y-116505199D01*
X138949622Y-116522067D01*
X138977659Y-116532494D01*
X139025757Y-116562549D01*
X139081153Y-116592004D01*
X139103968Y-116611421D01*
X139124271Y-116624108D01*
X139169641Y-116667313D01*
X139221961Y-116711841D01*
X139236463Y-116730947D01*
X139249472Y-116743335D01*
X139288616Y-116799655D01*
X139333751Y-116859118D01*
X139341302Y-116875459D01*
X139348142Y-116885301D01*
X139377508Y-116953817D01*
X139411307Y-117026965D01*
X139413885Y-117038692D01*
X139416247Y-117044202D01*
X139432429Y-117123036D01*
X139451011Y-117207551D01*
X139450345Y-117398388D01*
X139431181Y-117482738D01*
X139414443Y-117561485D01*
X139412041Y-117566982D01*
X139409381Y-117578692D01*
X139375069Y-117651609D01*
X139345227Y-117719915D01*
X139338318Y-117729709D01*
X139330655Y-117745994D01*
X139285114Y-117805130D01*
X139245570Y-117861187D01*
X139232472Y-117873487D01*
X139217840Y-117892487D01*
X139165227Y-117936635D01*
X139119544Y-117979534D01*
X139099147Y-117992082D01*
X139076199Y-118011338D01*
X139020600Y-118040405D01*
X138972293Y-118070123D01*
X138944184Y-118080354D01*
X138912341Y-118097001D01*
X138857534Y-118111892D01*
X138809831Y-118129254D01*
X138774340Y-118134495D01*
X138733911Y-118145479D01*
X138683139Y-118147962D01*
X138638803Y-118154509D01*
X138597027Y-118152174D01*
X138549233Y-118154511D01*
X138504992Y-118147028D01*
X138466189Y-118144859D01*
X138419980Y-118132650D01*
X138366923Y-118123676D01*
X138330839Y-118109097D01*
X138299035Y-118100694D01*
X138250897Y-118076799D01*
X138195488Y-118054412D01*
X138168311Y-118035804D01*
X138144182Y-118023826D01*
X138097128Y-117987063D01*
X138042926Y-117949950D01*
X138024469Y-117930295D01*
X138007950Y-117917389D01*
X137965400Y-117867393D01*
X137916354Y-117815164D01*
X137905608Y-117797138D01*
X137895896Y-117785726D01*
X137861401Y-117722981D01*
X137821678Y-117656344D01*
X137816943Y-117642111D01*
X137812610Y-117634229D01*
X137789692Y-117560192D01*
X137763314Y-117480898D01*
X137762372Y-117471934D01*
X137761486Y-117469072D01*
X137753347Y-117386068D01*
X137743987Y-117297012D01*
X137753967Y-117208044D01*
X137762687Y-117125078D01*
X137763593Y-117122220D01*
X137764598Y-117113265D01*
X137791530Y-117034153D01*
X137814963Y-116960281D01*
X137819350Y-116952432D01*
X137824184Y-116938231D01*
X137864382Y-116871857D01*
X137899304Y-116809371D01*
X137909092Y-116798031D01*
X137919967Y-116780075D01*
X137969385Y-116728181D01*
X138012273Y-116678495D01*
X138028879Y-116665707D01*
X138047477Y-116646177D01*
X138101952Y-116609433D01*
X138149250Y-116573009D01*
X138173458Y-116561202D01*
X138200765Y-116542783D01*
X138256319Y-116520787D01*
X138304633Y-116497223D01*
X138336503Y-116489040D01*
X138372679Y-116474717D01*
X138425795Y-116466114D01*
X138472088Y-116454228D01*
X138510903Y-116452330D01*
X138555199Y-116445155D01*
X138602976Y-116447826D01*
G37*
G36*
X146222976Y-116447826D02*
G01*
X146264766Y-116445782D01*
X146309056Y-116452639D01*
X146359810Y-116455476D01*
X146400163Y-116466743D01*
X146435621Y-116472232D01*
X146483204Y-116489928D01*
X146537898Y-116505199D01*
X146569622Y-116522067D01*
X146597659Y-116532494D01*
X146645757Y-116562549D01*
X146701153Y-116592004D01*
X146723968Y-116611421D01*
X146744271Y-116624108D01*
X146789641Y-116667313D01*
X146841961Y-116711841D01*
X146856463Y-116730947D01*
X146869472Y-116743335D01*
X146908616Y-116799655D01*
X146953751Y-116859118D01*
X146961302Y-116875459D01*
X146968142Y-116885301D01*
X146997508Y-116953817D01*
X147031307Y-117026965D01*
X147033885Y-117038692D01*
X147036247Y-117044202D01*
X147052429Y-117123036D01*
X147071011Y-117207551D01*
X147070345Y-117398388D01*
X147051181Y-117482738D01*
X147034443Y-117561485D01*
X147032041Y-117566982D01*
X147029381Y-117578692D01*
X146995069Y-117651609D01*
X146965227Y-117719915D01*
X146958318Y-117729709D01*
X146950655Y-117745994D01*
X146905114Y-117805130D01*
X146865570Y-117861187D01*
X146852472Y-117873487D01*
X146837840Y-117892487D01*
X146785227Y-117936635D01*
X146739544Y-117979534D01*
X146719147Y-117992082D01*
X146696199Y-118011338D01*
X146640600Y-118040405D01*
X146592293Y-118070123D01*
X146564184Y-118080354D01*
X146532341Y-118097001D01*
X146477534Y-118111892D01*
X146429831Y-118129254D01*
X146394340Y-118134495D01*
X146353911Y-118145479D01*
X146303139Y-118147962D01*
X146258803Y-118154509D01*
X146217027Y-118152174D01*
X146169233Y-118154511D01*
X146124992Y-118147028D01*
X146086189Y-118144859D01*
X146039980Y-118132650D01*
X145986923Y-118123676D01*
X145950839Y-118109097D01*
X145919035Y-118100694D01*
X145870897Y-118076799D01*
X145815488Y-118054412D01*
X145788311Y-118035804D01*
X145764182Y-118023826D01*
X145717128Y-117987063D01*
X145662926Y-117949950D01*
X145644469Y-117930295D01*
X145627950Y-117917389D01*
X145585400Y-117867393D01*
X145536354Y-117815164D01*
X145525608Y-117797138D01*
X145515896Y-117785726D01*
X145481401Y-117722981D01*
X145441678Y-117656344D01*
X145436943Y-117642111D01*
X145432610Y-117634229D01*
X145409692Y-117560192D01*
X145383314Y-117480898D01*
X145382372Y-117471934D01*
X145381486Y-117469072D01*
X145373347Y-117386068D01*
X145363987Y-117297012D01*
X145373967Y-117208044D01*
X145382687Y-117125078D01*
X145383593Y-117122220D01*
X145384598Y-117113265D01*
X145411530Y-117034153D01*
X145434963Y-116960281D01*
X145439350Y-116952432D01*
X145444184Y-116938231D01*
X145484382Y-116871857D01*
X145519304Y-116809371D01*
X145529092Y-116798031D01*
X145539967Y-116780075D01*
X145589385Y-116728181D01*
X145632273Y-116678495D01*
X145648879Y-116665707D01*
X145667477Y-116646177D01*
X145721952Y-116609433D01*
X145769250Y-116573009D01*
X145793458Y-116561202D01*
X145820765Y-116542783D01*
X145876319Y-116520787D01*
X145924633Y-116497223D01*
X145956503Y-116489040D01*
X145992679Y-116474717D01*
X146045795Y-116466114D01*
X146092088Y-116454228D01*
X146130903Y-116452330D01*
X146175199Y-116445155D01*
X146222976Y-116447826D01*
G37*
G36*
X151982976Y-116447826D02*
G01*
X152024766Y-116445782D01*
X152069056Y-116452639D01*
X152119810Y-116455476D01*
X152160163Y-116466743D01*
X152195621Y-116472232D01*
X152243204Y-116489928D01*
X152297898Y-116505199D01*
X152329622Y-116522067D01*
X152357659Y-116532494D01*
X152405757Y-116562549D01*
X152461153Y-116592004D01*
X152483968Y-116611421D01*
X152504271Y-116624108D01*
X152549641Y-116667313D01*
X152601961Y-116711841D01*
X152616463Y-116730947D01*
X152629472Y-116743335D01*
X152668616Y-116799655D01*
X152713751Y-116859118D01*
X152721302Y-116875459D01*
X152728142Y-116885301D01*
X152757508Y-116953817D01*
X152791307Y-117026965D01*
X152793885Y-117038692D01*
X152796247Y-117044202D01*
X152812429Y-117123036D01*
X152831011Y-117207551D01*
X152830345Y-117398388D01*
X152811181Y-117482738D01*
X152794443Y-117561485D01*
X152792041Y-117566982D01*
X152789381Y-117578692D01*
X152755069Y-117651609D01*
X152725227Y-117719915D01*
X152718318Y-117729709D01*
X152710655Y-117745994D01*
X152665114Y-117805130D01*
X152625570Y-117861187D01*
X152612472Y-117873487D01*
X152597840Y-117892487D01*
X152545227Y-117936635D01*
X152499544Y-117979534D01*
X152479147Y-117992082D01*
X152456199Y-118011338D01*
X152400600Y-118040405D01*
X152352293Y-118070123D01*
X152324184Y-118080354D01*
X152292341Y-118097001D01*
X152237534Y-118111892D01*
X152189831Y-118129254D01*
X152154340Y-118134495D01*
X152113911Y-118145479D01*
X152063139Y-118147962D01*
X152018803Y-118154509D01*
X151977027Y-118152174D01*
X151929233Y-118154511D01*
X151884992Y-118147028D01*
X151846189Y-118144859D01*
X151799980Y-118132650D01*
X151746923Y-118123676D01*
X151710839Y-118109097D01*
X151679035Y-118100694D01*
X151630897Y-118076799D01*
X151575488Y-118054412D01*
X151548311Y-118035804D01*
X151524182Y-118023826D01*
X151477128Y-117987063D01*
X151422926Y-117949950D01*
X151404469Y-117930295D01*
X151387950Y-117917389D01*
X151345400Y-117867393D01*
X151296354Y-117815164D01*
X151285608Y-117797138D01*
X151275896Y-117785726D01*
X151241401Y-117722981D01*
X151201678Y-117656344D01*
X151196943Y-117642111D01*
X151192610Y-117634229D01*
X151169692Y-117560192D01*
X151143314Y-117480898D01*
X151142372Y-117471934D01*
X151141486Y-117469072D01*
X151133347Y-117386068D01*
X151123987Y-117297012D01*
X151133967Y-117208044D01*
X151142687Y-117125078D01*
X151143593Y-117122220D01*
X151144598Y-117113265D01*
X151171530Y-117034153D01*
X151194963Y-116960281D01*
X151199350Y-116952432D01*
X151204184Y-116938231D01*
X151244382Y-116871857D01*
X151279304Y-116809371D01*
X151289092Y-116798031D01*
X151299967Y-116780075D01*
X151349385Y-116728181D01*
X151392273Y-116678495D01*
X151408879Y-116665707D01*
X151427477Y-116646177D01*
X151481952Y-116609433D01*
X151529250Y-116573009D01*
X151553458Y-116561202D01*
X151580765Y-116542783D01*
X151636319Y-116520787D01*
X151684633Y-116497223D01*
X151716503Y-116489040D01*
X151752679Y-116474717D01*
X151805795Y-116466114D01*
X151852088Y-116454228D01*
X151890903Y-116452330D01*
X151935199Y-116445155D01*
X151982976Y-116447826D01*
G37*
G36*
X160419899Y-116451959D02*
G01*
X160436769Y-116463231D01*
X160448041Y-116480101D01*
X160454448Y-116512312D01*
X160454448Y-118087688D01*
X160451999Y-118100000D01*
X160448041Y-118119899D01*
X160436769Y-118136769D01*
X160419899Y-118148041D01*
X160400000Y-118151999D01*
X160387688Y-118154448D01*
X158812312Y-118154448D01*
X158780101Y-118148041D01*
X158763231Y-118136769D01*
X158751959Y-118119899D01*
X158745552Y-118087688D01*
X158745552Y-116512312D01*
X158751959Y-116480101D01*
X158763231Y-116463231D01*
X158780101Y-116451959D01*
X158812312Y-116445552D01*
X160387688Y-116445552D01*
X160419899Y-116451959D01*
G37*
G36*
X193602976Y-115987826D02*
G01*
X193644766Y-115985782D01*
X193689056Y-115992639D01*
X193739810Y-115995476D01*
X193780163Y-116006743D01*
X193815621Y-116012232D01*
X193863204Y-116029928D01*
X193917898Y-116045199D01*
X193949622Y-116062067D01*
X193977659Y-116072494D01*
X194025757Y-116102549D01*
X194081153Y-116132004D01*
X194103968Y-116151421D01*
X194124271Y-116164108D01*
X194169641Y-116207313D01*
X194221961Y-116251841D01*
X194236463Y-116270947D01*
X194249472Y-116283335D01*
X194288616Y-116339655D01*
X194333751Y-116399118D01*
X194341302Y-116415459D01*
X194348142Y-116425301D01*
X194377508Y-116493817D01*
X194411307Y-116566965D01*
X194413885Y-116578692D01*
X194416247Y-116584202D01*
X194432429Y-116663036D01*
X194451011Y-116747551D01*
X194450345Y-116938388D01*
X194431181Y-117022738D01*
X194414443Y-117101485D01*
X194412041Y-117106982D01*
X194409381Y-117118692D01*
X194375069Y-117191609D01*
X194345227Y-117259915D01*
X194338318Y-117269709D01*
X194330655Y-117285994D01*
X194285114Y-117345130D01*
X194245570Y-117401187D01*
X194232472Y-117413487D01*
X194217840Y-117432487D01*
X194165227Y-117476635D01*
X194119544Y-117519534D01*
X194099147Y-117532082D01*
X194076199Y-117551338D01*
X194020600Y-117580405D01*
X193972293Y-117610123D01*
X193944184Y-117620354D01*
X193912341Y-117637001D01*
X193857534Y-117651892D01*
X193809831Y-117669254D01*
X193774340Y-117674495D01*
X193733911Y-117685479D01*
X193683139Y-117687962D01*
X193638803Y-117694509D01*
X193597027Y-117692174D01*
X193549233Y-117694511D01*
X193504992Y-117687028D01*
X193466189Y-117684859D01*
X193419980Y-117672650D01*
X193366923Y-117663676D01*
X193330839Y-117649097D01*
X193299035Y-117640694D01*
X193250897Y-117616799D01*
X193195488Y-117594412D01*
X193168311Y-117575804D01*
X193144182Y-117563826D01*
X193097128Y-117527063D01*
X193042926Y-117489950D01*
X193024469Y-117470295D01*
X193007950Y-117457389D01*
X192965400Y-117407393D01*
X192916354Y-117355164D01*
X192905608Y-117337138D01*
X192895896Y-117325726D01*
X192861401Y-117262981D01*
X192821678Y-117196344D01*
X192816943Y-117182111D01*
X192812610Y-117174229D01*
X192789692Y-117100192D01*
X192763314Y-117020898D01*
X192762372Y-117011934D01*
X192761486Y-117009072D01*
X192753347Y-116926068D01*
X192743987Y-116837012D01*
X192753967Y-116748044D01*
X192762687Y-116665078D01*
X192763593Y-116662220D01*
X192764598Y-116653265D01*
X192791530Y-116574153D01*
X192814963Y-116500281D01*
X192819350Y-116492432D01*
X192824184Y-116478231D01*
X192864382Y-116411857D01*
X192899304Y-116349371D01*
X192909092Y-116338031D01*
X192919967Y-116320075D01*
X192969385Y-116268181D01*
X193012273Y-116218495D01*
X193028879Y-116205707D01*
X193047477Y-116186177D01*
X193101952Y-116149433D01*
X193149250Y-116113009D01*
X193173458Y-116101202D01*
X193200765Y-116082783D01*
X193256319Y-116060787D01*
X193304633Y-116037223D01*
X193336503Y-116029040D01*
X193372679Y-116014717D01*
X193425795Y-116006114D01*
X193472088Y-115994228D01*
X193510903Y-115992330D01*
X193555199Y-115985155D01*
X193602976Y-115987826D01*
G37*
G36*
X201222976Y-115987826D02*
G01*
X201264766Y-115985782D01*
X201309056Y-115992639D01*
X201359810Y-115995476D01*
X201400163Y-116006743D01*
X201435621Y-116012232D01*
X201483204Y-116029928D01*
X201537898Y-116045199D01*
X201569622Y-116062067D01*
X201597659Y-116072494D01*
X201645757Y-116102549D01*
X201701153Y-116132004D01*
X201723968Y-116151421D01*
X201744271Y-116164108D01*
X201789641Y-116207313D01*
X201841961Y-116251841D01*
X201856463Y-116270947D01*
X201869472Y-116283335D01*
X201908616Y-116339655D01*
X201953751Y-116399118D01*
X201961302Y-116415459D01*
X201968142Y-116425301D01*
X201997508Y-116493817D01*
X202031307Y-116566965D01*
X202033885Y-116578692D01*
X202036247Y-116584202D01*
X202052429Y-116663036D01*
X202071011Y-116747551D01*
X202070345Y-116938388D01*
X202051181Y-117022738D01*
X202034443Y-117101485D01*
X202032041Y-117106982D01*
X202029381Y-117118692D01*
X201995069Y-117191609D01*
X201965227Y-117259915D01*
X201958318Y-117269709D01*
X201950655Y-117285994D01*
X201905114Y-117345130D01*
X201865570Y-117401187D01*
X201852472Y-117413487D01*
X201837840Y-117432487D01*
X201785227Y-117476635D01*
X201739544Y-117519534D01*
X201719147Y-117532082D01*
X201696199Y-117551338D01*
X201640600Y-117580405D01*
X201592293Y-117610123D01*
X201564184Y-117620354D01*
X201532341Y-117637001D01*
X201477534Y-117651892D01*
X201429831Y-117669254D01*
X201394340Y-117674495D01*
X201353911Y-117685479D01*
X201303139Y-117687962D01*
X201258803Y-117694509D01*
X201217027Y-117692174D01*
X201169233Y-117694511D01*
X201124992Y-117687028D01*
X201086189Y-117684859D01*
X201039980Y-117672650D01*
X200986923Y-117663676D01*
X200950839Y-117649097D01*
X200919035Y-117640694D01*
X200870897Y-117616799D01*
X200815488Y-117594412D01*
X200788311Y-117575804D01*
X200764182Y-117563826D01*
X200717128Y-117527063D01*
X200662926Y-117489950D01*
X200644469Y-117470295D01*
X200627950Y-117457389D01*
X200585400Y-117407393D01*
X200536354Y-117355164D01*
X200525608Y-117337138D01*
X200515896Y-117325726D01*
X200481401Y-117262981D01*
X200441678Y-117196344D01*
X200436943Y-117182111D01*
X200432610Y-117174229D01*
X200409692Y-117100192D01*
X200383314Y-117020898D01*
X200382372Y-117011934D01*
X200381486Y-117009072D01*
X200373347Y-116926068D01*
X200363987Y-116837012D01*
X200373967Y-116748044D01*
X200382687Y-116665078D01*
X200383593Y-116662220D01*
X200384598Y-116653265D01*
X200411530Y-116574153D01*
X200434963Y-116500281D01*
X200439350Y-116492432D01*
X200444184Y-116478231D01*
X200484382Y-116411857D01*
X200519304Y-116349371D01*
X200529092Y-116338031D01*
X200539967Y-116320075D01*
X200589385Y-116268181D01*
X200632273Y-116218495D01*
X200648879Y-116205707D01*
X200667477Y-116186177D01*
X200721952Y-116149433D01*
X200769250Y-116113009D01*
X200793458Y-116101202D01*
X200820765Y-116082783D01*
X200876319Y-116060787D01*
X200924633Y-116037223D01*
X200956503Y-116029040D01*
X200992679Y-116014717D01*
X201045795Y-116006114D01*
X201092088Y-115994228D01*
X201130903Y-115992330D01*
X201175199Y-115985155D01*
X201222976Y-115987826D01*
G37*
G36*
X167419899Y-114451959D02*
G01*
X167436769Y-114463231D01*
X167448041Y-114480101D01*
X167454448Y-114512312D01*
X167454448Y-116087688D01*
X167451999Y-116100000D01*
X167448041Y-116119899D01*
X167436769Y-116136769D01*
X167419899Y-116148041D01*
X167400000Y-116151999D01*
X167387688Y-116154448D01*
X165812312Y-116154448D01*
X165780101Y-116148041D01*
X165763231Y-116136769D01*
X165751959Y-116119899D01*
X165745552Y-116087688D01*
X165745552Y-114512312D01*
X165751959Y-114480101D01*
X165763231Y-114463231D01*
X165780101Y-114451959D01*
X165812312Y-114445552D01*
X167387688Y-114445552D01*
X167419899Y-114451959D01*
G37*
G36*
X186602976Y-113947826D02*
G01*
X186644766Y-113945782D01*
X186689056Y-113952639D01*
X186739810Y-113955476D01*
X186780163Y-113966743D01*
X186815621Y-113972232D01*
X186863204Y-113989928D01*
X186917898Y-114005199D01*
X186949622Y-114022067D01*
X186977659Y-114032494D01*
X187025757Y-114062549D01*
X187081153Y-114092004D01*
X187103968Y-114111421D01*
X187124271Y-114124108D01*
X187169641Y-114167313D01*
X187221961Y-114211841D01*
X187236463Y-114230947D01*
X187249472Y-114243335D01*
X187288616Y-114299655D01*
X187333751Y-114359118D01*
X187341302Y-114375459D01*
X187348142Y-114385301D01*
X187377508Y-114453817D01*
X187411307Y-114526965D01*
X187413885Y-114538692D01*
X187416247Y-114544202D01*
X187432429Y-114623036D01*
X187451011Y-114707551D01*
X187450345Y-114898388D01*
X187431181Y-114982738D01*
X187414443Y-115061485D01*
X187412041Y-115066982D01*
X187409381Y-115078692D01*
X187375069Y-115151609D01*
X187345227Y-115219915D01*
X187338318Y-115229709D01*
X187330655Y-115245994D01*
X187285114Y-115305130D01*
X187245570Y-115361187D01*
X187232472Y-115373487D01*
X187217840Y-115392487D01*
X187165227Y-115436635D01*
X187119544Y-115479534D01*
X187099147Y-115492082D01*
X187076199Y-115511338D01*
X187020600Y-115540405D01*
X186972293Y-115570123D01*
X186944184Y-115580354D01*
X186912341Y-115597001D01*
X186857534Y-115611892D01*
X186809831Y-115629254D01*
X186774340Y-115634495D01*
X186733911Y-115645479D01*
X186683139Y-115647962D01*
X186638803Y-115654509D01*
X186597027Y-115652174D01*
X186549233Y-115654511D01*
X186504992Y-115647028D01*
X186466189Y-115644859D01*
X186419980Y-115632650D01*
X186366923Y-115623676D01*
X186330839Y-115609097D01*
X186299035Y-115600694D01*
X186250897Y-115576799D01*
X186195488Y-115554412D01*
X186168311Y-115535804D01*
X186144182Y-115523826D01*
X186097128Y-115487063D01*
X186042926Y-115449950D01*
X186024469Y-115430295D01*
X186007950Y-115417389D01*
X185965400Y-115367393D01*
X185916354Y-115315164D01*
X185905608Y-115297138D01*
X185895896Y-115285726D01*
X185861401Y-115222981D01*
X185821678Y-115156344D01*
X185816943Y-115142111D01*
X185812610Y-115134229D01*
X185789692Y-115060192D01*
X185763314Y-114980898D01*
X185762372Y-114971934D01*
X185761486Y-114969072D01*
X185753347Y-114886068D01*
X185743987Y-114797012D01*
X185753967Y-114708044D01*
X185762687Y-114625078D01*
X185763593Y-114622220D01*
X185764598Y-114613265D01*
X185791530Y-114534153D01*
X185814963Y-114460281D01*
X185819350Y-114452432D01*
X185824184Y-114438231D01*
X185864382Y-114371857D01*
X185899304Y-114309371D01*
X185909092Y-114298031D01*
X185919967Y-114280075D01*
X185969385Y-114228181D01*
X186012273Y-114178495D01*
X186028879Y-114165707D01*
X186047477Y-114146177D01*
X186101952Y-114109433D01*
X186149250Y-114073009D01*
X186173458Y-114061202D01*
X186200765Y-114042783D01*
X186256319Y-114020787D01*
X186304633Y-113997223D01*
X186336503Y-113989040D01*
X186372679Y-113974717D01*
X186425795Y-113966114D01*
X186472088Y-113954228D01*
X186510903Y-113952330D01*
X186555199Y-113945155D01*
X186602976Y-113947826D01*
G37*
G36*
X151982976Y-113907826D02*
G01*
X152024766Y-113905782D01*
X152069056Y-113912639D01*
X152119810Y-113915476D01*
X152160163Y-113926743D01*
X152195621Y-113932232D01*
X152243204Y-113949928D01*
X152297898Y-113965199D01*
X152329622Y-113982067D01*
X152357659Y-113992494D01*
X152405757Y-114022549D01*
X152461153Y-114052004D01*
X152483968Y-114071421D01*
X152504271Y-114084108D01*
X152549641Y-114127313D01*
X152601961Y-114171841D01*
X152616463Y-114190947D01*
X152629472Y-114203335D01*
X152668616Y-114259655D01*
X152713751Y-114319118D01*
X152721302Y-114335459D01*
X152728142Y-114345301D01*
X152757508Y-114413817D01*
X152791307Y-114486965D01*
X152793885Y-114498692D01*
X152796247Y-114504202D01*
X152812429Y-114583036D01*
X152831011Y-114667551D01*
X152830345Y-114858388D01*
X152811181Y-114942738D01*
X152794443Y-115021485D01*
X152792041Y-115026982D01*
X152789381Y-115038692D01*
X152755069Y-115111609D01*
X152725227Y-115179915D01*
X152718318Y-115189709D01*
X152710655Y-115205994D01*
X152665114Y-115265130D01*
X152625570Y-115321187D01*
X152612472Y-115333487D01*
X152597840Y-115352487D01*
X152545227Y-115396635D01*
X152499544Y-115439534D01*
X152479147Y-115452082D01*
X152456199Y-115471338D01*
X152400600Y-115500405D01*
X152352293Y-115530123D01*
X152324184Y-115540354D01*
X152292341Y-115557001D01*
X152237534Y-115571892D01*
X152189831Y-115589254D01*
X152154340Y-115594495D01*
X152113911Y-115605479D01*
X152063139Y-115607962D01*
X152018803Y-115614509D01*
X151977027Y-115612174D01*
X151929233Y-115614511D01*
X151884992Y-115607028D01*
X151846189Y-115604859D01*
X151799980Y-115592650D01*
X151746923Y-115583676D01*
X151710839Y-115569097D01*
X151679035Y-115560694D01*
X151630897Y-115536799D01*
X151575488Y-115514412D01*
X151548311Y-115495804D01*
X151524182Y-115483826D01*
X151477128Y-115447063D01*
X151422926Y-115409950D01*
X151404469Y-115390295D01*
X151387950Y-115377389D01*
X151345400Y-115327393D01*
X151296354Y-115275164D01*
X151285608Y-115257138D01*
X151275896Y-115245726D01*
X151241401Y-115182981D01*
X151201678Y-115116344D01*
X151196943Y-115102111D01*
X151192610Y-115094229D01*
X151169692Y-115020192D01*
X151143314Y-114940898D01*
X151142372Y-114931934D01*
X151141486Y-114929072D01*
X151133347Y-114846068D01*
X151123987Y-114757012D01*
X151133967Y-114668044D01*
X151142687Y-114585078D01*
X151143593Y-114582220D01*
X151144598Y-114573265D01*
X151171530Y-114494153D01*
X151194963Y-114420281D01*
X151199350Y-114412432D01*
X151204184Y-114398231D01*
X151244382Y-114331857D01*
X151279304Y-114269371D01*
X151289092Y-114258031D01*
X151299967Y-114240075D01*
X151349385Y-114188181D01*
X151392273Y-114138495D01*
X151408879Y-114125707D01*
X151427477Y-114106177D01*
X151481952Y-114069433D01*
X151529250Y-114033009D01*
X151553458Y-114021202D01*
X151580765Y-114002783D01*
X151636319Y-113980787D01*
X151684633Y-113957223D01*
X151716503Y-113949040D01*
X151752679Y-113934717D01*
X151805795Y-113926114D01*
X151852088Y-113914228D01*
X151890903Y-113912330D01*
X151935199Y-113905155D01*
X151982976Y-113907826D01*
G37*
G36*
X159602976Y-113907826D02*
G01*
X159644766Y-113905782D01*
X159689056Y-113912639D01*
X159739810Y-113915476D01*
X159780163Y-113926743D01*
X159815621Y-113932232D01*
X159863204Y-113949928D01*
X159917898Y-113965199D01*
X159949622Y-113982067D01*
X159977659Y-113992494D01*
X160025757Y-114022549D01*
X160081153Y-114052004D01*
X160103968Y-114071421D01*
X160124271Y-114084108D01*
X160169641Y-114127313D01*
X160221961Y-114171841D01*
X160236463Y-114190947D01*
X160249472Y-114203335D01*
X160288616Y-114259655D01*
X160333751Y-114319118D01*
X160341302Y-114335459D01*
X160348142Y-114345301D01*
X160377508Y-114413817D01*
X160411307Y-114486965D01*
X160413885Y-114498692D01*
X160416247Y-114504202D01*
X160432429Y-114583036D01*
X160451011Y-114667551D01*
X160450345Y-114858388D01*
X160431181Y-114942738D01*
X160414443Y-115021485D01*
X160412041Y-115026982D01*
X160409381Y-115038692D01*
X160375069Y-115111609D01*
X160345227Y-115179915D01*
X160338318Y-115189709D01*
X160330655Y-115205994D01*
X160285114Y-115265130D01*
X160245570Y-115321187D01*
X160232472Y-115333487D01*
X160217840Y-115352487D01*
X160165227Y-115396635D01*
X160119544Y-115439534D01*
X160099147Y-115452082D01*
X160076199Y-115471338D01*
X160020600Y-115500405D01*
X159972293Y-115530123D01*
X159944184Y-115540354D01*
X159912341Y-115557001D01*
X159857534Y-115571892D01*
X159809831Y-115589254D01*
X159774340Y-115594495D01*
X159733911Y-115605479D01*
X159683139Y-115607962D01*
X159638803Y-115614509D01*
X159597027Y-115612174D01*
X159549233Y-115614511D01*
X159504992Y-115607028D01*
X159466189Y-115604859D01*
X159419980Y-115592650D01*
X159366923Y-115583676D01*
X159330839Y-115569097D01*
X159299035Y-115560694D01*
X159250897Y-115536799D01*
X159195488Y-115514412D01*
X159168311Y-115495804D01*
X159144182Y-115483826D01*
X159097128Y-115447063D01*
X159042926Y-115409950D01*
X159024469Y-115390295D01*
X159007950Y-115377389D01*
X158965400Y-115327393D01*
X158916354Y-115275164D01*
X158905608Y-115257138D01*
X158895896Y-115245726D01*
X158861401Y-115182981D01*
X158821678Y-115116344D01*
X158816943Y-115102111D01*
X158812610Y-115094229D01*
X158789692Y-115020192D01*
X158763314Y-114940898D01*
X158762372Y-114931934D01*
X158761486Y-114929072D01*
X158753347Y-114846068D01*
X158743987Y-114757012D01*
X158753967Y-114668044D01*
X158762687Y-114585078D01*
X158763593Y-114582220D01*
X158764598Y-114573265D01*
X158791530Y-114494153D01*
X158814963Y-114420281D01*
X158819350Y-114412432D01*
X158824184Y-114398231D01*
X158864382Y-114331857D01*
X158899304Y-114269371D01*
X158909092Y-114258031D01*
X158919967Y-114240075D01*
X158969385Y-114188181D01*
X159012273Y-114138495D01*
X159028879Y-114125707D01*
X159047477Y-114106177D01*
X159101952Y-114069433D01*
X159149250Y-114033009D01*
X159173458Y-114021202D01*
X159200765Y-114002783D01*
X159256319Y-113980787D01*
X159304633Y-113957223D01*
X159336503Y-113949040D01*
X159372679Y-113934717D01*
X159425795Y-113926114D01*
X159472088Y-113914228D01*
X159510903Y-113912330D01*
X159555199Y-113905155D01*
X159602976Y-113907826D01*
G37*
G36*
X201222976Y-113447826D02*
G01*
X201264766Y-113445782D01*
X201309056Y-113452639D01*
X201359810Y-113455476D01*
X201400163Y-113466743D01*
X201435621Y-113472232D01*
X201483204Y-113489928D01*
X201537898Y-113505199D01*
X201569622Y-113522067D01*
X201597659Y-113532494D01*
X201645757Y-113562549D01*
X201701153Y-113592004D01*
X201723968Y-113611421D01*
X201744271Y-113624108D01*
X201789641Y-113667313D01*
X201841961Y-113711841D01*
X201856463Y-113730947D01*
X201869472Y-113743335D01*
X201908616Y-113799655D01*
X201953751Y-113859118D01*
X201961302Y-113875459D01*
X201968142Y-113885301D01*
X201997508Y-113953817D01*
X202031307Y-114026965D01*
X202033885Y-114038692D01*
X202036247Y-114044202D01*
X202052429Y-114123036D01*
X202071011Y-114207551D01*
X202070345Y-114398388D01*
X202051181Y-114482738D01*
X202034443Y-114561485D01*
X202032041Y-114566982D01*
X202029381Y-114578692D01*
X201995069Y-114651609D01*
X201965227Y-114719915D01*
X201958318Y-114729709D01*
X201950655Y-114745994D01*
X201905114Y-114805130D01*
X201865570Y-114861187D01*
X201852472Y-114873487D01*
X201837840Y-114892487D01*
X201785227Y-114936635D01*
X201739544Y-114979534D01*
X201719147Y-114992082D01*
X201696199Y-115011338D01*
X201640600Y-115040405D01*
X201592293Y-115070123D01*
X201564184Y-115080354D01*
X201532341Y-115097001D01*
X201477534Y-115111892D01*
X201429831Y-115129254D01*
X201394340Y-115134495D01*
X201353911Y-115145479D01*
X201303139Y-115147962D01*
X201258803Y-115154509D01*
X201217027Y-115152174D01*
X201169233Y-115154511D01*
X201124992Y-115147028D01*
X201086189Y-115144859D01*
X201039980Y-115132650D01*
X200986923Y-115123676D01*
X200950839Y-115109097D01*
X200919035Y-115100694D01*
X200870897Y-115076799D01*
X200815488Y-115054412D01*
X200788311Y-115035804D01*
X200764182Y-115023826D01*
X200717128Y-114987063D01*
X200662926Y-114949950D01*
X200644469Y-114930295D01*
X200627950Y-114917389D01*
X200585400Y-114867393D01*
X200536354Y-114815164D01*
X200525608Y-114797138D01*
X200515896Y-114785726D01*
X200481401Y-114722981D01*
X200441678Y-114656344D01*
X200436943Y-114642111D01*
X200432610Y-114634229D01*
X200409692Y-114560192D01*
X200383314Y-114480898D01*
X200382372Y-114471934D01*
X200381486Y-114469072D01*
X200373347Y-114386068D01*
X200363987Y-114297012D01*
X200373967Y-114208044D01*
X200382687Y-114125078D01*
X200383593Y-114122220D01*
X200384598Y-114113265D01*
X200411530Y-114034153D01*
X200434963Y-113960281D01*
X200439350Y-113952432D01*
X200444184Y-113938231D01*
X200484382Y-113871857D01*
X200519304Y-113809371D01*
X200529092Y-113798031D01*
X200539967Y-113780075D01*
X200589385Y-113728181D01*
X200632273Y-113678495D01*
X200648879Y-113665707D01*
X200667477Y-113646177D01*
X200721952Y-113609433D01*
X200769250Y-113573009D01*
X200793458Y-113561202D01*
X200820765Y-113542783D01*
X200876319Y-113520787D01*
X200924633Y-113497223D01*
X200956503Y-113489040D01*
X200992679Y-113474717D01*
X201045795Y-113466114D01*
X201092088Y-113454228D01*
X201130903Y-113452330D01*
X201175199Y-113445155D01*
X201222976Y-113447826D01*
G37*
G36*
X180602976Y-113447826D02*
G01*
X180644766Y-113445782D01*
X180689056Y-113452639D01*
X180739810Y-113455476D01*
X180780163Y-113466743D01*
X180815621Y-113472232D01*
X180863204Y-113489928D01*
X180917898Y-113505199D01*
X180949622Y-113522067D01*
X180977659Y-113532494D01*
X181025757Y-113562549D01*
X181081153Y-113592004D01*
X181103968Y-113611421D01*
X181124271Y-113624108D01*
X181169641Y-113667313D01*
X181221961Y-113711841D01*
X181236463Y-113730947D01*
X181249472Y-113743335D01*
X181288616Y-113799655D01*
X181333751Y-113859118D01*
X181341302Y-113875459D01*
X181348142Y-113885301D01*
X181377508Y-113953817D01*
X181411307Y-114026965D01*
X181413885Y-114038692D01*
X181416247Y-114044202D01*
X181432429Y-114123036D01*
X181451011Y-114207551D01*
X181450345Y-114398388D01*
X181431181Y-114482738D01*
X181414443Y-114561485D01*
X181412041Y-114566982D01*
X181409381Y-114578692D01*
X181375069Y-114651609D01*
X181345227Y-114719915D01*
X181338318Y-114729709D01*
X181330655Y-114745994D01*
X181285114Y-114805130D01*
X181245570Y-114861187D01*
X181232472Y-114873487D01*
X181217840Y-114892487D01*
X181165227Y-114936635D01*
X181119544Y-114979534D01*
X181099147Y-114992082D01*
X181076199Y-115011338D01*
X181020600Y-115040405D01*
X180972293Y-115070123D01*
X180944184Y-115080354D01*
X180912341Y-115097001D01*
X180857534Y-115111892D01*
X180809831Y-115129254D01*
X180774340Y-115134495D01*
X180733911Y-115145479D01*
X180683139Y-115147962D01*
X180638803Y-115154509D01*
X180597027Y-115152174D01*
X180549233Y-115154511D01*
X180504992Y-115147028D01*
X180466189Y-115144859D01*
X180419980Y-115132650D01*
X180366923Y-115123676D01*
X180330839Y-115109097D01*
X180299035Y-115100694D01*
X180250897Y-115076799D01*
X180195488Y-115054412D01*
X180168311Y-115035804D01*
X180144182Y-115023826D01*
X180097128Y-114987063D01*
X180042926Y-114949950D01*
X180024469Y-114930295D01*
X180007950Y-114917389D01*
X179965400Y-114867393D01*
X179916354Y-114815164D01*
X179905608Y-114797138D01*
X179895896Y-114785726D01*
X179861401Y-114722981D01*
X179821678Y-114656344D01*
X179816943Y-114642111D01*
X179812610Y-114634229D01*
X179789692Y-114560192D01*
X179763314Y-114480898D01*
X179762372Y-114471934D01*
X179761486Y-114469072D01*
X179753347Y-114386068D01*
X179743987Y-114297012D01*
X179753967Y-114208044D01*
X179762687Y-114125078D01*
X179763593Y-114122220D01*
X179764598Y-114113265D01*
X179791530Y-114034153D01*
X179814963Y-113960281D01*
X179819350Y-113952432D01*
X179824184Y-113938231D01*
X179864382Y-113871857D01*
X179899304Y-113809371D01*
X179909092Y-113798031D01*
X179919967Y-113780075D01*
X179969385Y-113728181D01*
X180012273Y-113678495D01*
X180028879Y-113665707D01*
X180047477Y-113646177D01*
X180101952Y-113609433D01*
X180149250Y-113573009D01*
X180173458Y-113561202D01*
X180200765Y-113542783D01*
X180256319Y-113520787D01*
X180304633Y-113497223D01*
X180336503Y-113489040D01*
X180372679Y-113474717D01*
X180425795Y-113466114D01*
X180472088Y-113454228D01*
X180510903Y-113452330D01*
X180555199Y-113445155D01*
X180602976Y-113447826D01*
G37*
G36*
X172982976Y-113447826D02*
G01*
X173024766Y-113445782D01*
X173069056Y-113452639D01*
X173119810Y-113455476D01*
X173160163Y-113466743D01*
X173195621Y-113472232D01*
X173243204Y-113489928D01*
X173297898Y-113505199D01*
X173329622Y-113522067D01*
X173357659Y-113532494D01*
X173405757Y-113562549D01*
X173461153Y-113592004D01*
X173483968Y-113611421D01*
X173504271Y-113624108D01*
X173549641Y-113667313D01*
X173601961Y-113711841D01*
X173616463Y-113730947D01*
X173629472Y-113743335D01*
X173668616Y-113799655D01*
X173713751Y-113859118D01*
X173721302Y-113875459D01*
X173728142Y-113885301D01*
X173757508Y-113953817D01*
X173791307Y-114026965D01*
X173793885Y-114038692D01*
X173796247Y-114044202D01*
X173812429Y-114123036D01*
X173831011Y-114207551D01*
X173830345Y-114398388D01*
X173811181Y-114482738D01*
X173794443Y-114561485D01*
X173792041Y-114566982D01*
X173789381Y-114578692D01*
X173755069Y-114651609D01*
X173725227Y-114719915D01*
X173718318Y-114729709D01*
X173710655Y-114745994D01*
X173665114Y-114805130D01*
X173625570Y-114861187D01*
X173612472Y-114873487D01*
X173597840Y-114892487D01*
X173545227Y-114936635D01*
X173499544Y-114979534D01*
X173479147Y-114992082D01*
X173456199Y-115011338D01*
X173400600Y-115040405D01*
X173352293Y-115070123D01*
X173324184Y-115080354D01*
X173292341Y-115097001D01*
X173237534Y-115111892D01*
X173189831Y-115129254D01*
X173154340Y-115134495D01*
X173113911Y-115145479D01*
X173063139Y-115147962D01*
X173018803Y-115154509D01*
X172977027Y-115152174D01*
X172929233Y-115154511D01*
X172884992Y-115147028D01*
X172846189Y-115144859D01*
X172799980Y-115132650D01*
X172746923Y-115123676D01*
X172710839Y-115109097D01*
X172679035Y-115100694D01*
X172630897Y-115076799D01*
X172575488Y-115054412D01*
X172548311Y-115035804D01*
X172524182Y-115023826D01*
X172477128Y-114987063D01*
X172422926Y-114949950D01*
X172404469Y-114930295D01*
X172387950Y-114917389D01*
X172345400Y-114867393D01*
X172296354Y-114815164D01*
X172285608Y-114797138D01*
X172275896Y-114785726D01*
X172241401Y-114722981D01*
X172201678Y-114656344D01*
X172196943Y-114642111D01*
X172192610Y-114634229D01*
X172169692Y-114560192D01*
X172143314Y-114480898D01*
X172142372Y-114471934D01*
X172141486Y-114469072D01*
X172133347Y-114386068D01*
X172123987Y-114297012D01*
X172133967Y-114208044D01*
X172142687Y-114125078D01*
X172143593Y-114122220D01*
X172144598Y-114113265D01*
X172171530Y-114034153D01*
X172194963Y-113960281D01*
X172199350Y-113952432D01*
X172204184Y-113938231D01*
X172244382Y-113871857D01*
X172279304Y-113809371D01*
X172289092Y-113798031D01*
X172299967Y-113780075D01*
X172349385Y-113728181D01*
X172392273Y-113678495D01*
X172408879Y-113665707D01*
X172427477Y-113646177D01*
X172481952Y-113609433D01*
X172529250Y-113573009D01*
X172553458Y-113561202D01*
X172580765Y-113542783D01*
X172636319Y-113520787D01*
X172684633Y-113497223D01*
X172716503Y-113489040D01*
X172752679Y-113474717D01*
X172805795Y-113466114D01*
X172852088Y-113454228D01*
X172890903Y-113452330D01*
X172935199Y-113445155D01*
X172982976Y-113447826D01*
G37*
G36*
X194419899Y-113451959D02*
G01*
X194436769Y-113463231D01*
X194448041Y-113480101D01*
X194454448Y-113512312D01*
X194454448Y-115087688D01*
X194451999Y-115100000D01*
X194448041Y-115119899D01*
X194436769Y-115136769D01*
X194419899Y-115148041D01*
X194400000Y-115151999D01*
X194387688Y-115154448D01*
X192812312Y-115154448D01*
X192780101Y-115148041D01*
X192763231Y-115136769D01*
X192751959Y-115119899D01*
X192745552Y-115087688D01*
X192745552Y-113512312D01*
X192751959Y-113480101D01*
X192763231Y-113463231D01*
X192780101Y-113451959D01*
X192812312Y-113445552D01*
X194387688Y-113445552D01*
X194419899Y-113451959D01*
G37*
G36*
X166602976Y-111947826D02*
G01*
X166644766Y-111945782D01*
X166689056Y-111952639D01*
X166739810Y-111955476D01*
X166780163Y-111966743D01*
X166815621Y-111972232D01*
X166863204Y-111989928D01*
X166917898Y-112005199D01*
X166949622Y-112022067D01*
X166977659Y-112032494D01*
X167025757Y-112062549D01*
X167081153Y-112092004D01*
X167103968Y-112111421D01*
X167124271Y-112124108D01*
X167169641Y-112167313D01*
X167221961Y-112211841D01*
X167236463Y-112230947D01*
X167249472Y-112243335D01*
X167288616Y-112299655D01*
X167333751Y-112359118D01*
X167341302Y-112375459D01*
X167348142Y-112385301D01*
X167377508Y-112453817D01*
X167411307Y-112526965D01*
X167413885Y-112538692D01*
X167416247Y-112544202D01*
X167432429Y-112623036D01*
X167451011Y-112707551D01*
X167450345Y-112898388D01*
X167431181Y-112982738D01*
X167414443Y-113061485D01*
X167412041Y-113066982D01*
X167409381Y-113078692D01*
X167375069Y-113151609D01*
X167345227Y-113219915D01*
X167338318Y-113229709D01*
X167330655Y-113245994D01*
X167285114Y-113305130D01*
X167245570Y-113361187D01*
X167232472Y-113373487D01*
X167217840Y-113392487D01*
X167165227Y-113436635D01*
X167119544Y-113479534D01*
X167099147Y-113492082D01*
X167076199Y-113511338D01*
X167020600Y-113540405D01*
X166972293Y-113570123D01*
X166944184Y-113580354D01*
X166912341Y-113597001D01*
X166857534Y-113611892D01*
X166809831Y-113629254D01*
X166774340Y-113634495D01*
X166733911Y-113645479D01*
X166683139Y-113647962D01*
X166638803Y-113654509D01*
X166597027Y-113652174D01*
X166549233Y-113654511D01*
X166504992Y-113647028D01*
X166466189Y-113644859D01*
X166419980Y-113632650D01*
X166366923Y-113623676D01*
X166330839Y-113609097D01*
X166299035Y-113600694D01*
X166250897Y-113576799D01*
X166195488Y-113554412D01*
X166168311Y-113535804D01*
X166144182Y-113523826D01*
X166097128Y-113487063D01*
X166042926Y-113449950D01*
X166024469Y-113430295D01*
X166007950Y-113417389D01*
X165965400Y-113367393D01*
X165916354Y-113315164D01*
X165905608Y-113297138D01*
X165895896Y-113285726D01*
X165861401Y-113222981D01*
X165821678Y-113156344D01*
X165816943Y-113142111D01*
X165812610Y-113134229D01*
X165789692Y-113060192D01*
X165763314Y-112980898D01*
X165762372Y-112971934D01*
X165761486Y-112969072D01*
X165753347Y-112886068D01*
X165743987Y-112797012D01*
X165753967Y-112708044D01*
X165762687Y-112625078D01*
X165763593Y-112622220D01*
X165764598Y-112613265D01*
X165791530Y-112534153D01*
X165814963Y-112460281D01*
X165819350Y-112452432D01*
X165824184Y-112438231D01*
X165864382Y-112371857D01*
X165899304Y-112309371D01*
X165909092Y-112298031D01*
X165919967Y-112280075D01*
X165969385Y-112228181D01*
X166012273Y-112178495D01*
X166028879Y-112165707D01*
X166047477Y-112146177D01*
X166101952Y-112109433D01*
X166149250Y-112073009D01*
X166173458Y-112061202D01*
X166200765Y-112042783D01*
X166256319Y-112020787D01*
X166304633Y-111997223D01*
X166336503Y-111989040D01*
X166372679Y-111974717D01*
X166425795Y-111966114D01*
X166472088Y-111954228D01*
X166510903Y-111952330D01*
X166555199Y-111945155D01*
X166602976Y-111947826D01*
G37*
G36*
X187419899Y-111451959D02*
G01*
X187436769Y-111463231D01*
X187448041Y-111480101D01*
X187454448Y-111512312D01*
X187454448Y-113087688D01*
X187451999Y-113100000D01*
X187448041Y-113119899D01*
X187436769Y-113136769D01*
X187419899Y-113148041D01*
X187400000Y-113151999D01*
X187387688Y-113154448D01*
X185812312Y-113154448D01*
X185780101Y-113148041D01*
X185763231Y-113136769D01*
X185751959Y-113119899D01*
X185745552Y-113087688D01*
X185745552Y-111512312D01*
X185751959Y-111480101D01*
X185763231Y-111463231D01*
X185780101Y-111451959D01*
X185812312Y-111445552D01*
X187387688Y-111445552D01*
X187419899Y-111451959D01*
G37*
G36*
X151982976Y-111367826D02*
G01*
X152024766Y-111365782D01*
X152069056Y-111372639D01*
X152119810Y-111375476D01*
X152160163Y-111386743D01*
X152195621Y-111392232D01*
X152243204Y-111409928D01*
X152297898Y-111425199D01*
X152329622Y-111442067D01*
X152357659Y-111452494D01*
X152405757Y-111482549D01*
X152461153Y-111512004D01*
X152483968Y-111531421D01*
X152504271Y-111544108D01*
X152549641Y-111587313D01*
X152601961Y-111631841D01*
X152616463Y-111650947D01*
X152629472Y-111663335D01*
X152668616Y-111719655D01*
X152713751Y-111779118D01*
X152721302Y-111795459D01*
X152728142Y-111805301D01*
X152757508Y-111873817D01*
X152791307Y-111946965D01*
X152793885Y-111958692D01*
X152796247Y-111964202D01*
X152812429Y-112043036D01*
X152831011Y-112127551D01*
X152830345Y-112318388D01*
X152811181Y-112402738D01*
X152794443Y-112481485D01*
X152792041Y-112486982D01*
X152789381Y-112498692D01*
X152755069Y-112571609D01*
X152725227Y-112639915D01*
X152718318Y-112649709D01*
X152710655Y-112665994D01*
X152665114Y-112725130D01*
X152625570Y-112781187D01*
X152612472Y-112793487D01*
X152597840Y-112812487D01*
X152545227Y-112856635D01*
X152499544Y-112899534D01*
X152479147Y-112912082D01*
X152456199Y-112931338D01*
X152400600Y-112960405D01*
X152352293Y-112990123D01*
X152324184Y-113000354D01*
X152292341Y-113017001D01*
X152237534Y-113031892D01*
X152189831Y-113049254D01*
X152154340Y-113054495D01*
X152113911Y-113065479D01*
X152063139Y-113067962D01*
X152018803Y-113074509D01*
X151977027Y-113072174D01*
X151929233Y-113074511D01*
X151884992Y-113067028D01*
X151846189Y-113064859D01*
X151799980Y-113052650D01*
X151746923Y-113043676D01*
X151710839Y-113029097D01*
X151679035Y-113020694D01*
X151630897Y-112996799D01*
X151575488Y-112974412D01*
X151548311Y-112955804D01*
X151524182Y-112943826D01*
X151477128Y-112907063D01*
X151422926Y-112869950D01*
X151404469Y-112850295D01*
X151387950Y-112837389D01*
X151345400Y-112787393D01*
X151296354Y-112735164D01*
X151285608Y-112717138D01*
X151275896Y-112705726D01*
X151241401Y-112642981D01*
X151201678Y-112576344D01*
X151196943Y-112562111D01*
X151192610Y-112554229D01*
X151169692Y-112480192D01*
X151143314Y-112400898D01*
X151142372Y-112391934D01*
X151141486Y-112389072D01*
X151133347Y-112306068D01*
X151123987Y-112217012D01*
X151133967Y-112128044D01*
X151142687Y-112045078D01*
X151143593Y-112042220D01*
X151144598Y-112033265D01*
X151171530Y-111954153D01*
X151194963Y-111880281D01*
X151199350Y-111872432D01*
X151204184Y-111858231D01*
X151244382Y-111791857D01*
X151279304Y-111729371D01*
X151289092Y-111718031D01*
X151299967Y-111700075D01*
X151349385Y-111648181D01*
X151392273Y-111598495D01*
X151408879Y-111585707D01*
X151427477Y-111566177D01*
X151481952Y-111529433D01*
X151529250Y-111493009D01*
X151553458Y-111481202D01*
X151580765Y-111462783D01*
X151636319Y-111440787D01*
X151684633Y-111417223D01*
X151716503Y-111409040D01*
X151752679Y-111394717D01*
X151805795Y-111386114D01*
X151852088Y-111374228D01*
X151890903Y-111372330D01*
X151935199Y-111365155D01*
X151982976Y-111367826D01*
G37*
G36*
X159602976Y-111367826D02*
G01*
X159644766Y-111365782D01*
X159689056Y-111372639D01*
X159739810Y-111375476D01*
X159780163Y-111386743D01*
X159815621Y-111392232D01*
X159863204Y-111409928D01*
X159917898Y-111425199D01*
X159949622Y-111442067D01*
X159977659Y-111452494D01*
X160025757Y-111482549D01*
X160081153Y-111512004D01*
X160103968Y-111531421D01*
X160124271Y-111544108D01*
X160169641Y-111587313D01*
X160221961Y-111631841D01*
X160236463Y-111650947D01*
X160249472Y-111663335D01*
X160288616Y-111719655D01*
X160333751Y-111779118D01*
X160341302Y-111795459D01*
X160348142Y-111805301D01*
X160377508Y-111873817D01*
X160411307Y-111946965D01*
X160413885Y-111958692D01*
X160416247Y-111964202D01*
X160432429Y-112043036D01*
X160451011Y-112127551D01*
X160450345Y-112318388D01*
X160431181Y-112402738D01*
X160414443Y-112481485D01*
X160412041Y-112486982D01*
X160409381Y-112498692D01*
X160375069Y-112571609D01*
X160345227Y-112639915D01*
X160338318Y-112649709D01*
X160330655Y-112665994D01*
X160285114Y-112725130D01*
X160245570Y-112781187D01*
X160232472Y-112793487D01*
X160217840Y-112812487D01*
X160165227Y-112856635D01*
X160119544Y-112899534D01*
X160099147Y-112912082D01*
X160076199Y-112931338D01*
X160020600Y-112960405D01*
X159972293Y-112990123D01*
X159944184Y-113000354D01*
X159912341Y-113017001D01*
X159857534Y-113031892D01*
X159809831Y-113049254D01*
X159774340Y-113054495D01*
X159733911Y-113065479D01*
X159683139Y-113067962D01*
X159638803Y-113074509D01*
X159597027Y-113072174D01*
X159549233Y-113074511D01*
X159504992Y-113067028D01*
X159466189Y-113064859D01*
X159419980Y-113052650D01*
X159366923Y-113043676D01*
X159330839Y-113029097D01*
X159299035Y-113020694D01*
X159250897Y-112996799D01*
X159195488Y-112974412D01*
X159168311Y-112955804D01*
X159144182Y-112943826D01*
X159097128Y-112907063D01*
X159042926Y-112869950D01*
X159024469Y-112850295D01*
X159007950Y-112837389D01*
X158965400Y-112787393D01*
X158916354Y-112735164D01*
X158905608Y-112717138D01*
X158895896Y-112705726D01*
X158861401Y-112642981D01*
X158821678Y-112576344D01*
X158816943Y-112562111D01*
X158812610Y-112554229D01*
X158789692Y-112480192D01*
X158763314Y-112400898D01*
X158762372Y-112391934D01*
X158761486Y-112389072D01*
X158753347Y-112306068D01*
X158743987Y-112217012D01*
X158753967Y-112128044D01*
X158762687Y-112045078D01*
X158763593Y-112042220D01*
X158764598Y-112033265D01*
X158791530Y-111954153D01*
X158814963Y-111880281D01*
X158819350Y-111872432D01*
X158824184Y-111858231D01*
X158864382Y-111791857D01*
X158899304Y-111729371D01*
X158909092Y-111718031D01*
X158919967Y-111700075D01*
X158969385Y-111648181D01*
X159012273Y-111598495D01*
X159028879Y-111585707D01*
X159047477Y-111566177D01*
X159101952Y-111529433D01*
X159149250Y-111493009D01*
X159173458Y-111481202D01*
X159200765Y-111462783D01*
X159256319Y-111440787D01*
X159304633Y-111417223D01*
X159336503Y-111409040D01*
X159372679Y-111394717D01*
X159425795Y-111386114D01*
X159472088Y-111374228D01*
X159510903Y-111372330D01*
X159555199Y-111365155D01*
X159602976Y-111367826D01*
G37*
G36*
X142602976Y-110947826D02*
G01*
X142644766Y-110945782D01*
X142689056Y-110952639D01*
X142739810Y-110955476D01*
X142780163Y-110966743D01*
X142815621Y-110972232D01*
X142863204Y-110989928D01*
X142917898Y-111005199D01*
X142949622Y-111022067D01*
X142977659Y-111032494D01*
X143025757Y-111062549D01*
X143081153Y-111092004D01*
X143103968Y-111111421D01*
X143124271Y-111124108D01*
X143169641Y-111167313D01*
X143221961Y-111211841D01*
X143236463Y-111230947D01*
X143249472Y-111243335D01*
X143288616Y-111299655D01*
X143333751Y-111359118D01*
X143341302Y-111375459D01*
X143348142Y-111385301D01*
X143377508Y-111453817D01*
X143411307Y-111526965D01*
X143413885Y-111538692D01*
X143416247Y-111544202D01*
X143432429Y-111623036D01*
X143451011Y-111707551D01*
X143450345Y-111898388D01*
X143431181Y-111982738D01*
X143414443Y-112061485D01*
X143412041Y-112066982D01*
X143409381Y-112078692D01*
X143375069Y-112151609D01*
X143345227Y-112219915D01*
X143338318Y-112229709D01*
X143330655Y-112245994D01*
X143285114Y-112305130D01*
X143245570Y-112361187D01*
X143232472Y-112373487D01*
X143217840Y-112392487D01*
X143165227Y-112436635D01*
X143119544Y-112479534D01*
X143099147Y-112492082D01*
X143076199Y-112511338D01*
X143020600Y-112540405D01*
X142972293Y-112570123D01*
X142944184Y-112580354D01*
X142912341Y-112597001D01*
X142857534Y-112611892D01*
X142809831Y-112629254D01*
X142774340Y-112634495D01*
X142733911Y-112645479D01*
X142683139Y-112647962D01*
X142638803Y-112654509D01*
X142597027Y-112652174D01*
X142549233Y-112654511D01*
X142504992Y-112647028D01*
X142466189Y-112644859D01*
X142419980Y-112632650D01*
X142366923Y-112623676D01*
X142330839Y-112609097D01*
X142299035Y-112600694D01*
X142250897Y-112576799D01*
X142195488Y-112554412D01*
X142168311Y-112535804D01*
X142144182Y-112523826D01*
X142097128Y-112487063D01*
X142042926Y-112449950D01*
X142024469Y-112430295D01*
X142007950Y-112417389D01*
X141965400Y-112367393D01*
X141916354Y-112315164D01*
X141905608Y-112297138D01*
X141895896Y-112285726D01*
X141861401Y-112222981D01*
X141821678Y-112156344D01*
X141816943Y-112142111D01*
X141812610Y-112134229D01*
X141789692Y-112060192D01*
X141763314Y-111980898D01*
X141762372Y-111971934D01*
X141761486Y-111969072D01*
X141753347Y-111886068D01*
X141743987Y-111797012D01*
X141753967Y-111708044D01*
X141762687Y-111625078D01*
X141763593Y-111622220D01*
X141764598Y-111613265D01*
X141791530Y-111534153D01*
X141814963Y-111460281D01*
X141819350Y-111452432D01*
X141824184Y-111438231D01*
X141864382Y-111371857D01*
X141899304Y-111309371D01*
X141909092Y-111298031D01*
X141919967Y-111280075D01*
X141969385Y-111228181D01*
X142012273Y-111178495D01*
X142028879Y-111165707D01*
X142047477Y-111146177D01*
X142101952Y-111109433D01*
X142149250Y-111073009D01*
X142173458Y-111061202D01*
X142200765Y-111042783D01*
X142256319Y-111020787D01*
X142304633Y-110997223D01*
X142336503Y-110989040D01*
X142372679Y-110974717D01*
X142425795Y-110966114D01*
X142472088Y-110954228D01*
X142510903Y-110952330D01*
X142555199Y-110945155D01*
X142602976Y-110947826D01*
G37*
G36*
X151982976Y-108827826D02*
G01*
X152024766Y-108825782D01*
X152069056Y-108832639D01*
X152119810Y-108835476D01*
X152160163Y-108846743D01*
X152195621Y-108852232D01*
X152243204Y-108869928D01*
X152297898Y-108885199D01*
X152329622Y-108902067D01*
X152357659Y-108912494D01*
X152405757Y-108942549D01*
X152461153Y-108972004D01*
X152483968Y-108991421D01*
X152504271Y-109004108D01*
X152549641Y-109047313D01*
X152601961Y-109091841D01*
X152616463Y-109110947D01*
X152629472Y-109123335D01*
X152668616Y-109179655D01*
X152713751Y-109239118D01*
X152721302Y-109255459D01*
X152728142Y-109265301D01*
X152757508Y-109333817D01*
X152791307Y-109406965D01*
X152793885Y-109418692D01*
X152796247Y-109424202D01*
X152812429Y-109503036D01*
X152831011Y-109587551D01*
X152830345Y-109778388D01*
X152811181Y-109862738D01*
X152794443Y-109941485D01*
X152792041Y-109946982D01*
X152789381Y-109958692D01*
X152755069Y-110031609D01*
X152725227Y-110099915D01*
X152718318Y-110109709D01*
X152710655Y-110125994D01*
X152665114Y-110185130D01*
X152625570Y-110241187D01*
X152612472Y-110253487D01*
X152597840Y-110272487D01*
X152545227Y-110316635D01*
X152499544Y-110359534D01*
X152479147Y-110372082D01*
X152456199Y-110391338D01*
X152400600Y-110420405D01*
X152352293Y-110450123D01*
X152324184Y-110460354D01*
X152292341Y-110477001D01*
X152237534Y-110491892D01*
X152189831Y-110509254D01*
X152154340Y-110514495D01*
X152113911Y-110525479D01*
X152063139Y-110527962D01*
X152018803Y-110534509D01*
X151977027Y-110532174D01*
X151929233Y-110534511D01*
X151884992Y-110527028D01*
X151846189Y-110524859D01*
X151799980Y-110512650D01*
X151746923Y-110503676D01*
X151710839Y-110489097D01*
X151679035Y-110480694D01*
X151630897Y-110456799D01*
X151575488Y-110434412D01*
X151548311Y-110415804D01*
X151524182Y-110403826D01*
X151477128Y-110367063D01*
X151422926Y-110329950D01*
X151404469Y-110310295D01*
X151387950Y-110297389D01*
X151345400Y-110247393D01*
X151296354Y-110195164D01*
X151285608Y-110177138D01*
X151275896Y-110165726D01*
X151241401Y-110102981D01*
X151201678Y-110036344D01*
X151196943Y-110022111D01*
X151192610Y-110014229D01*
X151169692Y-109940192D01*
X151143314Y-109860898D01*
X151142372Y-109851934D01*
X151141486Y-109849072D01*
X151133347Y-109766068D01*
X151123987Y-109677012D01*
X151133967Y-109588044D01*
X151142687Y-109505078D01*
X151143593Y-109502220D01*
X151144598Y-109493265D01*
X151171530Y-109414153D01*
X151194963Y-109340281D01*
X151199350Y-109332432D01*
X151204184Y-109318231D01*
X151244382Y-109251857D01*
X151279304Y-109189371D01*
X151289092Y-109178031D01*
X151299967Y-109160075D01*
X151349385Y-109108181D01*
X151392273Y-109058495D01*
X151408879Y-109045707D01*
X151427477Y-109026177D01*
X151481952Y-108989433D01*
X151529250Y-108953009D01*
X151553458Y-108941202D01*
X151580765Y-108922783D01*
X151636319Y-108900787D01*
X151684633Y-108877223D01*
X151716503Y-108869040D01*
X151752679Y-108854717D01*
X151805795Y-108846114D01*
X151852088Y-108834228D01*
X151890903Y-108832330D01*
X151935199Y-108825155D01*
X151982976Y-108827826D01*
G37*
G36*
X159602976Y-108827826D02*
G01*
X159644766Y-108825782D01*
X159689056Y-108832639D01*
X159739810Y-108835476D01*
X159780163Y-108846743D01*
X159815621Y-108852232D01*
X159863204Y-108869928D01*
X159917898Y-108885199D01*
X159949622Y-108902067D01*
X159977659Y-108912494D01*
X160025757Y-108942549D01*
X160081153Y-108972004D01*
X160103968Y-108991421D01*
X160124271Y-109004108D01*
X160169641Y-109047313D01*
X160221961Y-109091841D01*
X160236463Y-109110947D01*
X160249472Y-109123335D01*
X160288616Y-109179655D01*
X160333751Y-109239118D01*
X160341302Y-109255459D01*
X160348142Y-109265301D01*
X160377508Y-109333817D01*
X160411307Y-109406965D01*
X160413885Y-109418692D01*
X160416247Y-109424202D01*
X160432429Y-109503036D01*
X160451011Y-109587551D01*
X160450345Y-109778388D01*
X160431181Y-109862738D01*
X160414443Y-109941485D01*
X160412041Y-109946982D01*
X160409381Y-109958692D01*
X160375069Y-110031609D01*
X160345227Y-110099915D01*
X160338318Y-110109709D01*
X160330655Y-110125994D01*
X160285114Y-110185130D01*
X160245570Y-110241187D01*
X160232472Y-110253487D01*
X160217840Y-110272487D01*
X160165227Y-110316635D01*
X160119544Y-110359534D01*
X160099147Y-110372082D01*
X160076199Y-110391338D01*
X160020600Y-110420405D01*
X159972293Y-110450123D01*
X159944184Y-110460354D01*
X159912341Y-110477001D01*
X159857534Y-110491892D01*
X159809831Y-110509254D01*
X159774340Y-110514495D01*
X159733911Y-110525479D01*
X159683139Y-110527962D01*
X159638803Y-110534509D01*
X159597027Y-110532174D01*
X159549233Y-110534511D01*
X159504992Y-110527028D01*
X159466189Y-110524859D01*
X159419980Y-110512650D01*
X159366923Y-110503676D01*
X159330839Y-110489097D01*
X159299035Y-110480694D01*
X159250897Y-110456799D01*
X159195488Y-110434412D01*
X159168311Y-110415804D01*
X159144182Y-110403826D01*
X159097128Y-110367063D01*
X159042926Y-110329950D01*
X159024469Y-110310295D01*
X159007950Y-110297389D01*
X158965400Y-110247393D01*
X158916354Y-110195164D01*
X158905608Y-110177138D01*
X158895896Y-110165726D01*
X158861401Y-110102981D01*
X158821678Y-110036344D01*
X158816943Y-110022111D01*
X158812610Y-110014229D01*
X158789692Y-109940192D01*
X158763314Y-109860898D01*
X158762372Y-109851934D01*
X158761486Y-109849072D01*
X158753347Y-109766068D01*
X158743987Y-109677012D01*
X158753967Y-109588044D01*
X158762687Y-109505078D01*
X158763593Y-109502220D01*
X158764598Y-109493265D01*
X158791530Y-109414153D01*
X158814963Y-109340281D01*
X158819350Y-109332432D01*
X158824184Y-109318231D01*
X158864382Y-109251857D01*
X158899304Y-109189371D01*
X158909092Y-109178031D01*
X158919967Y-109160075D01*
X158969385Y-109108181D01*
X159012273Y-109058495D01*
X159028879Y-109045707D01*
X159047477Y-109026177D01*
X159101952Y-108989433D01*
X159149250Y-108953009D01*
X159173458Y-108941202D01*
X159200765Y-108922783D01*
X159256319Y-108900787D01*
X159304633Y-108877223D01*
X159336503Y-108869040D01*
X159372679Y-108854717D01*
X159425795Y-108846114D01*
X159472088Y-108834228D01*
X159510903Y-108832330D01*
X159555199Y-108825155D01*
X159602976Y-108827826D01*
G37*
G36*
X207975366Y-106738826D02*
G01*
X208038358Y-106764918D01*
X208099189Y-106788635D01*
X208104317Y-106792239D01*
X208115485Y-106796865D01*
X208165441Y-106835198D01*
X208213254Y-106868801D01*
X208221393Y-106878131D01*
X208235808Y-106889192D01*
X208270630Y-106934573D01*
X208304902Y-106973860D01*
X208313381Y-106990287D01*
X208328135Y-107009515D01*
X208347761Y-107056895D01*
X208368846Y-107097747D01*
X208374587Y-107121660D01*
X208386174Y-107149634D01*
X208392089Y-107194562D01*
X208401391Y-107233309D01*
X208401230Y-107263998D01*
X208405970Y-107300000D01*
X208400838Y-107338984D01*
X208400661Y-107372722D01*
X208391699Y-107408403D01*
X208386174Y-107450366D01*
X208373430Y-107481134D01*
X208366697Y-107507937D01*
X208346624Y-107545848D01*
X208328135Y-107590485D01*
X208311537Y-107612116D01*
X208301459Y-107631150D01*
X208268833Y-107667768D01*
X208235808Y-107710808D01*
X208218987Y-107723715D01*
X208208717Y-107735242D01*
X208163166Y-107766548D01*
X208115485Y-107803135D01*
X208101507Y-107808925D01*
X208093820Y-107814208D01*
X208082790Y-107818376D01*
X208026587Y-107860826D01*
X208002257Y-107926923D01*
X208017524Y-107995681D01*
X208081569Y-108051766D01*
X208099192Y-108058637D01*
X208104318Y-108062239D01*
X208115485Y-108066865D01*
X208165440Y-108105197D01*
X208213254Y-108138801D01*
X208221393Y-108148131D01*
X208235808Y-108159192D01*
X208270630Y-108204573D01*
X208304902Y-108243860D01*
X208313381Y-108260287D01*
X208328135Y-108279515D01*
X208347761Y-108326895D01*
X208368846Y-108367747D01*
X208374587Y-108391660D01*
X208386174Y-108419634D01*
X208392089Y-108464562D01*
X208401391Y-108503309D01*
X208401230Y-108533998D01*
X208405970Y-108570000D01*
X208400838Y-108608984D01*
X208400661Y-108642722D01*
X208391699Y-108678403D01*
X208386174Y-108720366D01*
X208373430Y-108751134D01*
X208366697Y-108777937D01*
X208346624Y-108815848D01*
X208328135Y-108860485D01*
X208311537Y-108882116D01*
X208301459Y-108901150D01*
X208268833Y-108937768D01*
X208235808Y-108980808D01*
X208218987Y-108993715D01*
X208208717Y-109005242D01*
X208169000Y-109032538D01*
X208124545Y-109087168D01*
X208116683Y-109157161D01*
X208147909Y-109220293D01*
X208239800Y-109260552D01*
X208337688Y-109260552D01*
X208369899Y-109266959D01*
X208386769Y-109278231D01*
X208398041Y-109295101D01*
X208404448Y-109327312D01*
X208404448Y-110352688D01*
X208401999Y-110365000D01*
X208398041Y-110384899D01*
X208386769Y-110401769D01*
X208369899Y-110413041D01*
X208350000Y-110416999D01*
X208337688Y-110419448D01*
X206862312Y-110419448D01*
X206830101Y-110413041D01*
X206813231Y-110401769D01*
X206801959Y-110384899D01*
X206795552Y-110352688D01*
X206795552Y-109327312D01*
X206801959Y-109295101D01*
X206813231Y-109278231D01*
X206830101Y-109266959D01*
X206862312Y-109260552D01*
X206960525Y-109260552D01*
X207028105Y-109240709D01*
X207074228Y-109187479D01*
X207084252Y-109117764D01*
X207032400Y-109033285D01*
X206986746Y-109001199D01*
X206978607Y-108991869D01*
X206964192Y-108980808D01*
X206929370Y-108935427D01*
X206895098Y-108896140D01*
X206886619Y-108879713D01*
X206871865Y-108860485D01*
X206852239Y-108813105D01*
X206831154Y-108772253D01*
X206825413Y-108748340D01*
X206813826Y-108720366D01*
X206807911Y-108675438D01*
X206798609Y-108636691D01*
X206798770Y-108606002D01*
X206794030Y-108570000D01*
X206799162Y-108531016D01*
X206799339Y-108497278D01*
X206808301Y-108461597D01*
X206813826Y-108419634D01*
X206826570Y-108388866D01*
X206833303Y-108362063D01*
X206853376Y-108324152D01*
X206871865Y-108279515D01*
X206888463Y-108257884D01*
X206898541Y-108238850D01*
X206931167Y-108202232D01*
X206964192Y-108159192D01*
X206981013Y-108146285D01*
X206991283Y-108134758D01*
X207036834Y-108103452D01*
X207084515Y-108066865D01*
X207098493Y-108061075D01*
X207106180Y-108055792D01*
X207117210Y-108051624D01*
X207173413Y-108009174D01*
X207197743Y-107943077D01*
X207182476Y-107874319D01*
X207118431Y-107818234D01*
X207100808Y-107811363D01*
X207095682Y-107807761D01*
X207084515Y-107803135D01*
X207034560Y-107764803D01*
X206986746Y-107731199D01*
X206978607Y-107721869D01*
X206964192Y-107710808D01*
X206929370Y-107665427D01*
X206895098Y-107626140D01*
X206886619Y-107609713D01*
X206871865Y-107590485D01*
X206852239Y-107543105D01*
X206831154Y-107502253D01*
X206825413Y-107478340D01*
X206813826Y-107450366D01*
X206807911Y-107405438D01*
X206798609Y-107366691D01*
X206798770Y-107336002D01*
X206794030Y-107300000D01*
X206799162Y-107261016D01*
X206799339Y-107227278D01*
X206808301Y-107191597D01*
X206813826Y-107149634D01*
X206826570Y-107118866D01*
X206833303Y-107092063D01*
X206853376Y-107054152D01*
X206871865Y-107009515D01*
X206888463Y-106987884D01*
X206898541Y-106968850D01*
X206931167Y-106932232D01*
X206964192Y-106889192D01*
X206981013Y-106876285D01*
X206991283Y-106864758D01*
X207036836Y-106833451D01*
X207084515Y-106796865D01*
X207098492Y-106791076D01*
X207106181Y-106785791D01*
X207163956Y-106763960D01*
X207224634Y-106738826D01*
X207233590Y-106737647D01*
X207236591Y-106736513D01*
X207306014Y-106728112D01*
X207337249Y-106724000D01*
X207862751Y-106724000D01*
X207975366Y-106738826D01*
G37*
G36*
X143419899Y-108451959D02*
G01*
X143436769Y-108463231D01*
X143448041Y-108480101D01*
X143454448Y-108512312D01*
X143454448Y-110087688D01*
X143451999Y-110100000D01*
X143448041Y-110119899D01*
X143436769Y-110136769D01*
X143419899Y-110148041D01*
X143400000Y-110151999D01*
X143387688Y-110154448D01*
X141812312Y-110154448D01*
X141780101Y-110148041D01*
X141763231Y-110136769D01*
X141751959Y-110119899D01*
X141745552Y-110087688D01*
X141745552Y-108512312D01*
X141751959Y-108480101D01*
X141763231Y-108463231D01*
X141780101Y-108451959D01*
X141812312Y-108445552D01*
X143387688Y-108445552D01*
X143419899Y-108451959D01*
G37*
G36*
X193982976Y-104947826D02*
G01*
X194024766Y-104945782D01*
X194069056Y-104952639D01*
X194119810Y-104955476D01*
X194160163Y-104966743D01*
X194195621Y-104972232D01*
X194243204Y-104989928D01*
X194297898Y-105005199D01*
X194329622Y-105022067D01*
X194357659Y-105032494D01*
X194405757Y-105062549D01*
X194461153Y-105092004D01*
X194483968Y-105111421D01*
X194504271Y-105124108D01*
X194549641Y-105167313D01*
X194601961Y-105211841D01*
X194616463Y-105230947D01*
X194629472Y-105243335D01*
X194668616Y-105299655D01*
X194713751Y-105359118D01*
X194721302Y-105375459D01*
X194728142Y-105385301D01*
X194757508Y-105453817D01*
X194791307Y-105526965D01*
X194793885Y-105538692D01*
X194796247Y-105544202D01*
X194812429Y-105623036D01*
X194831011Y-105707551D01*
X194830345Y-105898388D01*
X194811181Y-105982738D01*
X194794443Y-106061485D01*
X194792041Y-106066982D01*
X194789381Y-106078692D01*
X194755069Y-106151609D01*
X194725227Y-106219915D01*
X194718318Y-106229709D01*
X194710655Y-106245994D01*
X194665114Y-106305130D01*
X194625570Y-106361187D01*
X194612472Y-106373487D01*
X194597840Y-106392487D01*
X194545227Y-106436635D01*
X194499544Y-106479534D01*
X194479147Y-106492082D01*
X194456199Y-106511338D01*
X194400600Y-106540405D01*
X194352293Y-106570123D01*
X194324184Y-106580354D01*
X194292341Y-106597001D01*
X194237534Y-106611892D01*
X194189831Y-106629254D01*
X194154340Y-106634495D01*
X194113911Y-106645479D01*
X194063139Y-106647962D01*
X194018803Y-106654509D01*
X193977027Y-106652174D01*
X193929233Y-106654511D01*
X193884992Y-106647028D01*
X193846189Y-106644859D01*
X193799980Y-106632650D01*
X193746923Y-106623676D01*
X193710839Y-106609097D01*
X193679035Y-106600694D01*
X193630897Y-106576799D01*
X193575488Y-106554412D01*
X193548311Y-106535804D01*
X193524182Y-106523826D01*
X193477128Y-106487063D01*
X193422926Y-106449950D01*
X193404469Y-106430295D01*
X193387950Y-106417389D01*
X193345400Y-106367393D01*
X193296354Y-106315164D01*
X193285608Y-106297138D01*
X193275896Y-106285726D01*
X193241401Y-106222981D01*
X193201678Y-106156344D01*
X193196943Y-106142111D01*
X193192610Y-106134229D01*
X193169692Y-106060192D01*
X193143314Y-105980898D01*
X193142372Y-105971934D01*
X193141486Y-105969072D01*
X193133347Y-105886068D01*
X193123987Y-105797012D01*
X193133967Y-105708044D01*
X193142687Y-105625078D01*
X193143593Y-105622220D01*
X193144598Y-105613265D01*
X193171530Y-105534153D01*
X193194963Y-105460281D01*
X193199350Y-105452432D01*
X193204184Y-105438231D01*
X193244382Y-105371857D01*
X193279304Y-105309371D01*
X193289092Y-105298031D01*
X193299967Y-105280075D01*
X193349385Y-105228181D01*
X193392273Y-105178495D01*
X193408879Y-105165707D01*
X193427477Y-105146177D01*
X193481952Y-105109433D01*
X193529250Y-105073009D01*
X193553458Y-105061202D01*
X193580765Y-105042783D01*
X193636319Y-105020787D01*
X193684633Y-104997223D01*
X193716503Y-104989040D01*
X193752679Y-104974717D01*
X193805795Y-104966114D01*
X193852088Y-104954228D01*
X193890903Y-104952330D01*
X193935199Y-104945155D01*
X193982976Y-104947826D01*
G37*
G36*
X175102976Y-104947826D02*
G01*
X175144766Y-104945782D01*
X175189056Y-104952639D01*
X175239810Y-104955476D01*
X175280163Y-104966743D01*
X175315621Y-104972232D01*
X175363204Y-104989928D01*
X175417898Y-105005199D01*
X175449622Y-105022067D01*
X175477659Y-105032494D01*
X175525757Y-105062549D01*
X175581153Y-105092004D01*
X175603968Y-105111421D01*
X175624271Y-105124108D01*
X175669641Y-105167313D01*
X175721961Y-105211841D01*
X175736463Y-105230947D01*
X175749472Y-105243335D01*
X175788616Y-105299655D01*
X175833751Y-105359118D01*
X175841302Y-105375459D01*
X175848142Y-105385301D01*
X175877508Y-105453817D01*
X175911307Y-105526965D01*
X175913885Y-105538692D01*
X175916247Y-105544202D01*
X175932429Y-105623036D01*
X175951011Y-105707551D01*
X175950345Y-105898388D01*
X175931181Y-105982738D01*
X175914443Y-106061485D01*
X175912041Y-106066982D01*
X175909381Y-106078692D01*
X175875069Y-106151609D01*
X175845227Y-106219915D01*
X175838318Y-106229709D01*
X175830655Y-106245994D01*
X175785114Y-106305130D01*
X175745570Y-106361187D01*
X175732472Y-106373487D01*
X175717840Y-106392487D01*
X175665227Y-106436635D01*
X175619544Y-106479534D01*
X175599147Y-106492082D01*
X175576199Y-106511338D01*
X175520600Y-106540405D01*
X175472293Y-106570123D01*
X175444184Y-106580354D01*
X175412341Y-106597001D01*
X175357534Y-106611892D01*
X175309831Y-106629254D01*
X175274340Y-106634495D01*
X175233911Y-106645479D01*
X175183139Y-106647962D01*
X175138803Y-106654509D01*
X175097027Y-106652174D01*
X175049233Y-106654511D01*
X175004992Y-106647028D01*
X174966189Y-106644859D01*
X174919980Y-106632650D01*
X174866923Y-106623676D01*
X174830839Y-106609097D01*
X174799035Y-106600694D01*
X174750897Y-106576799D01*
X174695488Y-106554412D01*
X174668311Y-106535804D01*
X174644182Y-106523826D01*
X174597128Y-106487063D01*
X174542926Y-106449950D01*
X174524469Y-106430295D01*
X174507950Y-106417389D01*
X174465400Y-106367393D01*
X174416354Y-106315164D01*
X174405608Y-106297138D01*
X174395896Y-106285726D01*
X174361401Y-106222981D01*
X174321678Y-106156344D01*
X174316943Y-106142111D01*
X174312610Y-106134229D01*
X174289692Y-106060192D01*
X174263314Y-105980898D01*
X174262372Y-105971934D01*
X174261486Y-105969072D01*
X174253347Y-105886068D01*
X174243987Y-105797012D01*
X174253967Y-105708044D01*
X174262687Y-105625078D01*
X174263593Y-105622220D01*
X174264598Y-105613265D01*
X174291530Y-105534153D01*
X174314963Y-105460281D01*
X174319350Y-105452432D01*
X174324184Y-105438231D01*
X174364382Y-105371857D01*
X174399304Y-105309371D01*
X174409092Y-105298031D01*
X174419967Y-105280075D01*
X174469385Y-105228181D01*
X174512273Y-105178495D01*
X174528879Y-105165707D01*
X174547477Y-105146177D01*
X174601952Y-105109433D01*
X174649250Y-105073009D01*
X174673458Y-105061202D01*
X174700765Y-105042783D01*
X174756319Y-105020787D01*
X174804633Y-104997223D01*
X174836503Y-104989040D01*
X174872679Y-104974717D01*
X174925795Y-104966114D01*
X174972088Y-104954228D01*
X175010903Y-104952330D01*
X175055199Y-104945155D01*
X175102976Y-104947826D01*
G37*
G36*
X201602976Y-104947826D02*
G01*
X201644766Y-104945782D01*
X201689056Y-104952639D01*
X201739810Y-104955476D01*
X201780163Y-104966743D01*
X201815621Y-104972232D01*
X201863204Y-104989928D01*
X201917898Y-105005199D01*
X201949622Y-105022067D01*
X201977659Y-105032494D01*
X202025757Y-105062549D01*
X202081153Y-105092004D01*
X202103968Y-105111421D01*
X202124271Y-105124108D01*
X202169641Y-105167313D01*
X202221961Y-105211841D01*
X202236463Y-105230947D01*
X202249472Y-105243335D01*
X202288616Y-105299655D01*
X202333751Y-105359118D01*
X202341302Y-105375459D01*
X202348142Y-105385301D01*
X202377508Y-105453817D01*
X202411307Y-105526965D01*
X202413885Y-105538692D01*
X202416247Y-105544202D01*
X202432429Y-105623036D01*
X202451011Y-105707551D01*
X202450345Y-105898388D01*
X202431181Y-105982738D01*
X202414443Y-106061485D01*
X202412041Y-106066982D01*
X202409381Y-106078692D01*
X202375069Y-106151609D01*
X202345227Y-106219915D01*
X202338318Y-106229709D01*
X202330655Y-106245994D01*
X202285114Y-106305130D01*
X202245570Y-106361187D01*
X202232472Y-106373487D01*
X202217840Y-106392487D01*
X202165227Y-106436635D01*
X202119544Y-106479534D01*
X202099147Y-106492082D01*
X202076199Y-106511338D01*
X202020600Y-106540405D01*
X201972293Y-106570123D01*
X201944184Y-106580354D01*
X201912341Y-106597001D01*
X201857534Y-106611892D01*
X201809831Y-106629254D01*
X201774340Y-106634495D01*
X201733911Y-106645479D01*
X201683139Y-106647962D01*
X201638803Y-106654509D01*
X201597027Y-106652174D01*
X201549233Y-106654511D01*
X201504992Y-106647028D01*
X201466189Y-106644859D01*
X201419980Y-106632650D01*
X201366923Y-106623676D01*
X201330839Y-106609097D01*
X201299035Y-106600694D01*
X201250897Y-106576799D01*
X201195488Y-106554412D01*
X201168311Y-106535804D01*
X201144182Y-106523826D01*
X201097128Y-106487063D01*
X201042926Y-106449950D01*
X201024469Y-106430295D01*
X201007950Y-106417389D01*
X200965400Y-106367393D01*
X200916354Y-106315164D01*
X200905608Y-106297138D01*
X200895896Y-106285726D01*
X200861401Y-106222981D01*
X200821678Y-106156344D01*
X200816943Y-106142111D01*
X200812610Y-106134229D01*
X200789692Y-106060192D01*
X200763314Y-105980898D01*
X200762372Y-105971934D01*
X200761486Y-105969072D01*
X200753347Y-105886068D01*
X200743987Y-105797012D01*
X200753967Y-105708044D01*
X200762687Y-105625078D01*
X200763593Y-105622220D01*
X200764598Y-105613265D01*
X200791530Y-105534153D01*
X200814963Y-105460281D01*
X200819350Y-105452432D01*
X200824184Y-105438231D01*
X200864382Y-105371857D01*
X200899304Y-105309371D01*
X200909092Y-105298031D01*
X200919967Y-105280075D01*
X200969385Y-105228181D01*
X201012273Y-105178495D01*
X201028879Y-105165707D01*
X201047477Y-105146177D01*
X201101952Y-105109433D01*
X201149250Y-105073009D01*
X201173458Y-105061202D01*
X201200765Y-105042783D01*
X201256319Y-105020787D01*
X201304633Y-104997223D01*
X201336503Y-104989040D01*
X201372679Y-104974717D01*
X201425795Y-104966114D01*
X201472088Y-104954228D01*
X201510903Y-104952330D01*
X201555199Y-104945155D01*
X201602976Y-104947826D01*
G37*
G36*
X178419899Y-104951959D02*
G01*
X178436769Y-104963231D01*
X178448041Y-104980101D01*
X178454448Y-105012312D01*
X178454448Y-106587688D01*
X178451999Y-106600000D01*
X178448041Y-106619899D01*
X178436769Y-106636769D01*
X178419899Y-106648041D01*
X178400000Y-106651999D01*
X178387688Y-106654448D01*
X176812312Y-106654448D01*
X176780101Y-106648041D01*
X176763231Y-106636769D01*
X176751959Y-106619899D01*
X176745552Y-106587688D01*
X176745552Y-105012312D01*
X176751959Y-104980101D01*
X176763231Y-104963231D01*
X176780101Y-104951959D01*
X176812312Y-104945552D01*
X178387688Y-104945552D01*
X178419899Y-104951959D01*
G37*
G36*
X173722216Y-91248001D02*
G01*
X173722551Y-91248001D01*
X173727776Y-91249040D01*
X173787516Y-91260208D01*
X173789219Y-91261262D01*
X173791223Y-91261661D01*
X173808412Y-91273146D01*
X173843460Y-91294847D01*
X173846078Y-91298313D01*
X173849440Y-91300560D01*
X173862233Y-91319706D01*
X173881304Y-91344960D01*
X173882497Y-91350034D01*
X173888339Y-91358777D01*
X173901999Y-91427449D01*
X173901999Y-91432951D01*
X173904049Y-91441667D01*
X173904049Y-93161250D01*
X173901999Y-93172216D01*
X173901999Y-93172551D01*
X173900960Y-93177776D01*
X173889792Y-93237516D01*
X173888738Y-93239219D01*
X173888339Y-93241223D01*
X173876854Y-93258412D01*
X173855153Y-93293460D01*
X173851687Y-93296078D01*
X173849440Y-93299440D01*
X173830294Y-93312233D01*
X173805040Y-93331304D01*
X173799966Y-93332497D01*
X173791223Y-93338339D01*
X173722551Y-93351999D01*
X173717049Y-93351999D01*
X173708333Y-93354049D01*
X173488750Y-93354049D01*
X173477784Y-93351999D01*
X173477449Y-93351999D01*
X173472224Y-93350960D01*
X173412484Y-93339792D01*
X173410781Y-93338738D01*
X173408777Y-93338339D01*
X173391588Y-93326854D01*
X173356540Y-93305153D01*
X173353922Y-93301687D01*
X173350560Y-93299440D01*
X173337767Y-93280294D01*
X173318696Y-93255040D01*
X173317503Y-93249966D01*
X173311661Y-93241223D01*
X173298001Y-93172551D01*
X173298001Y-93167049D01*
X173295951Y-93158333D01*
X173295951Y-91438750D01*
X173298001Y-91427784D01*
X173298001Y-91427449D01*
X173299040Y-91422224D01*
X173310208Y-91362484D01*
X173311262Y-91360781D01*
X173311661Y-91358777D01*
X173323146Y-91341588D01*
X173344847Y-91306540D01*
X173348313Y-91303922D01*
X173350560Y-91300560D01*
X173369706Y-91287767D01*
X173394960Y-91268696D01*
X173400034Y-91267503D01*
X173408777Y-91261661D01*
X173477449Y-91248001D01*
X173482951Y-91248001D01*
X173491667Y-91245951D01*
X173711250Y-91245951D01*
X173722216Y-91248001D01*
G37*
G36*
X173722216Y-64748001D02*
G01*
X173722551Y-64748001D01*
X173727776Y-64749040D01*
X173787516Y-64760208D01*
X173789219Y-64761262D01*
X173791223Y-64761661D01*
X173808412Y-64773146D01*
X173843460Y-64794847D01*
X173846078Y-64798313D01*
X173849440Y-64800560D01*
X173862233Y-64819706D01*
X173881304Y-64844960D01*
X173882497Y-64850034D01*
X173888339Y-64858777D01*
X173901999Y-64927449D01*
X173901999Y-64932951D01*
X173904049Y-64941667D01*
X173904049Y-66661250D01*
X173901999Y-66672216D01*
X173901999Y-66672551D01*
X173900960Y-66677776D01*
X173889792Y-66737516D01*
X173888738Y-66739219D01*
X173888339Y-66741223D01*
X173876854Y-66758412D01*
X173855153Y-66793460D01*
X173851687Y-66796078D01*
X173849440Y-66799440D01*
X173830294Y-66812233D01*
X173805040Y-66831304D01*
X173799966Y-66832497D01*
X173791223Y-66838339D01*
X173722551Y-66851999D01*
X173717049Y-66851999D01*
X173708333Y-66854049D01*
X173488750Y-66854049D01*
X173477784Y-66851999D01*
X173477449Y-66851999D01*
X173472224Y-66850960D01*
X173412484Y-66839792D01*
X173410781Y-66838738D01*
X173408777Y-66838339D01*
X173391588Y-66826854D01*
X173356540Y-66805153D01*
X173353922Y-66801687D01*
X173350560Y-66799440D01*
X173337767Y-66780294D01*
X173318696Y-66755040D01*
X173317503Y-66749966D01*
X173311661Y-66741223D01*
X173298001Y-66672551D01*
X173298001Y-66667049D01*
X173295951Y-66658333D01*
X173295951Y-64938750D01*
X173298001Y-64927784D01*
X173298001Y-64927449D01*
X173299040Y-64922224D01*
X173310208Y-64862484D01*
X173311262Y-64860781D01*
X173311661Y-64858777D01*
X173323146Y-64841588D01*
X173344847Y-64806540D01*
X173348313Y-64803922D01*
X173350560Y-64800560D01*
X173369706Y-64787767D01*
X173394960Y-64768696D01*
X173400034Y-64767503D01*
X173408777Y-64761661D01*
X173477449Y-64748001D01*
X173482951Y-64748001D01*
X173491667Y-64745951D01*
X173711250Y-64745951D01*
X173722216Y-64748001D01*
G37*
M02*
